<?xml version="1.0" encoding="UTF-8"?>
<svg id="Layer_1" data-name="Layer 1" xmlns="http://www.w3.org/2000/svg" viewBox="0 0 2000 1000">
  <defs>
    <style>
      .cls-1, .cls-2 {
        fill: #e9e9e9;
      }

      .cls-3, .cls-4 {
        fill: #fff;
      }

      .cls-4, .cls-2, .cls-5, .cls-6 {
        stroke: #f39c12;
        stroke-width: 5.62px;
      }

      .cls-4, .cls-2, .cls-6 {
        stroke-miterlimit: 10;
      }

      .cls-7 {
        fill: #f39c12;
      }

      .cls-5 {
        stroke-linecap: round;
        stroke-linejoin: round;
      }

      .cls-5, .cls-6 {
        fill: none;
      }
    </style>
  </defs>
  <g>
    <g>
      <path class="cls-1" d="M199.64,774.27c-4.34,0-7.74-3.42-7.74-7.78V328.11c0-4.34,3.4-7.74,7.74-7.74H987.55c4.36,0,7.78,3.4,7.78,7.74v155.79l-15.56,26.93v-161.55c0-7.39-6.01-13.39-13.4-13.39H220.81c-7.51,0-13.4,5.88-13.4,13.39v396.07c0,7.49,5.88,13.36,13.4,13.36H836.66l-8.99,15.56H199.64Z"/>
      <path class="cls-7" d="M987.55,323.17c2.79,0,4.97,2.17,4.97,4.93v155.04l-9.94,17.21v-151.07c0-8.94-7.27-16.2-16.2-16.2H220.81c-9.09,0-16.2,7.12-16.2,16.2v396.07c0,9.07,7.12,16.17,16.2,16.17H831.8l-5.74,9.94H199.64c-2.81,0-4.94-2.14-4.94-4.97V328.11c0-2.81,2.12-4.93,4.94-4.93H987.55m0-5.62H199.64c-5.89,0-10.55,4.63-10.55,10.55v438.38c0,5.93,4.66,10.59,10.55,10.59H829.3l12.23-21.17H220.81c-5.93,0-10.59-4.66-10.59-10.55V349.28c0-5.93,4.66-10.59,10.59-10.59H966.38c5.82,0,10.59,4.66,10.59,10.59v172.03l21.17-36.66v-156.54c0-5.93-4.76-10.55-10.59-10.55h0Z"/>
    </g>
    <path class="cls-3" d="M976.97,349.28v172.03l-52.63,91.17-12.23,21.14-70.58,122.28H220.81c-5.93,0-10.59-4.66-10.59-10.55V349.28c0-5.93,4.66-10.59,10.59-10.59H966.38c5.82,0,10.59,4.66,10.59,10.59Z"/>
    <path class="cls-2" d="M184.83,787.08H823.51l-20.42,35.36H191.69c-7.57,0-13.7-6.13-13.7-13.7v-14.8c0-3.8,3.05-6.85,6.85-6.85Z"/>
  </g>
  <g>
    <g>
      <g>
        <g>
          <path class="cls-1" d="M916.45,630.8l8.99-15.52h518.22c7.39,0,13.4-6.01,13.4-13.4V205.81c0-2.14-.51-4.22-1.51-6.18-.38-.76-.86-1.48-1.47-2.19-2.53-3.17-6.32-4.99-10.42-4.99h-274.13l8.99-15.56h286.31c4.27,0,7.75,3.49,7.75,7.78v438.38c0,4.34-3.4,7.74-7.75,7.74H916.45Z"/>
          <path class="cls-7" d="M1464.84,179.71c2.77,0,4.94,2.18,4.94,4.97v438.38c0,2.77-2.17,4.93-4.94,4.93H921.32l5.74-9.9h516.6c8.94,0,16.21-7.27,16.21-16.2V205.81c0-2.59-.61-5.09-1.81-7.44-.49-.97-1.08-1.86-1.81-2.72-3.06-3.82-7.65-6.01-12.59-6.01h-269.26l5.74-9.94h284.69m0-5.62h-287.94l-12.23,21.17h278.99c3.36,0,6.34,1.54,8.26,3.97,.44,.51,.82,1.06,1.13,1.68,.75,1.47,1.2,3.12,1.2,4.9v396.07c0,5.93-4.76,10.59-10.59,10.59H923.81l-.07,.14-12.16,21h553.26c5.79,0,10.55-4.63,10.55-10.55V184.67c0-5.93-4.76-10.59-10.55-10.59h0Z"/>
        </g>
        <line class="cls-6" x1="1026.34" y1="804.21" x2="1026.34" y2="633.62"/>
        <line class="cls-6" x1="1115.43" y1="804.22" x2="1115.43" y2="633.64"/>
      </g>
      <g>
        <rect class="cls-4" x="1553.78" y="174.12" width="268.24" height="648.31" rx="24.09" ry="24.09"/>
        <g>
          <circle class="cls-2" cx="1687.9" cy="693.4" r="19.29"/>
          <circle class="cls-2" cx="1687.9" cy="740.21" r="11.37"/>
        </g>
        <rect class="cls-2" x="1588.42" y="213.74" width="198.96" height="17.13" rx="8.57" ry="8.57"/>
        <g>
          <rect class="cls-2" x="1588.42" y="259.53" width="56.44" height="17.13" rx="8.57" ry="8.57"/>
          <rect class="cls-2" x="1659.68" y="259.53" width="56.44" height="17.13" rx="8.57" ry="8.57"/>
          <rect class="cls-2" x="1730.93" y="259.53" width="56.44" height="17.13" rx="8.57" ry="8.57"/>
        </g>
      </g>
      <g>
        <path class="cls-1" d="M936.98,819.63c-3.48,0-6.31-2.83-6.31-6.31,0-1.65,.67-3.28,1.85-4.45,1.18-1.18,2.8-1.85,4.45-1.85h267.82c3.48,0,6.31,2.83,6.31,6.3,0,1.66-.67,3.28-1.85,4.46-1.19,1.19-2.78,1.85-4.46,1.85h-267.82Z"/>
        <path class="cls-7" d="M1204.8,809.83c1.93,0,3.5,1.57,3.5,3.5,0,.92-.37,1.82-1.02,2.47-.47,.47-1.28,1.03-2.47,1.03h-267.82c-1.93,0-3.5-1.57-3.5-3.5,0-.92,.37-1.82,1.03-2.47,.65-.65,1.55-1.03,2.47-1.03h267.82m0-5.62h-267.82c-2.5,0-4.8,1.03-6.44,2.67-1.64,1.64-2.67,3.94-2.67,6.44,0,5.04,4.08,9.11,9.11,9.11h267.82c2.54,0,4.8-1.03,6.44-2.67,1.64-1.64,2.67-3.94,2.67-6.44,0-5.04-4.08-9.11-9.11-9.11h0Z"/>
      </g>
    </g>
    <path class="cls-3" d="M1454.35,205.99v396.06c0,5.93-4.76,10.55-10.59,10.55H923.74l.07-.14h1.44l240.79-417.07h277.73c3.29,0,6.2,1.47,8.15,3.84,.45,.51,.82,1.06,1.13,1.68,.82,1.51,1.3,3.22,1.3,5.07Z"/>
  </g>
  <line class="cls-5" x1="1193.48" y1="145.83" x2="784.52" y2="854.17"/>
</svg>