<?xml version="1.0" encoding="UTF-8"?>
<svg id="Layer_1" data-name="Layer 1" xmlns="http://www.w3.org/2000/svg" viewBox="0 0 1000 1000">
  <defs>
    <style>
      .cls-1 {
        fill: #e9e9e9;
        stroke: #f39c12;
        stroke-width: 3px;
      }

      .cls-1, .cls-2 {
        stroke-miterlimit: 10;
      }

      .cls-3 {
        fill: #e2b588;
      }

      .cls-4 {
        fill: #e5a865;
      }

      .cls-5 {
        fill: #f39c12;
      }

      .cls-2 {
        fill: #fff;
        font-family: Poppins-Regular, Poppins;
        font-size: 52px;
        stroke: #e9e9e9;
      }
    </style>
  </defs>
  <rect class="cls-1" x="487.9" y="239.5" width="24.01" height="71.31"/>
  <rect class="cls-1" x="487.9" y="687.59" width="24.01" height="71.31"/>
  <polygon class="cls-1" points="671.3 415 728.47 382.07 716.56 361.22 659.17 394.28 671.3 415"/>
  <polygon class="cls-1" points="659.1 608.87 713.16 639.59 725.2 618.82 671.14 588.1 659.1 608.87"/>
  <polygon class="cls-1" points="281.95 644.12 340.87 609.33 328.94 588.49 270.03 623.28 281.95 644.12"/>
  <polygon class="cls-1" points="340.27 391.51 283.64 358.45 271.54 379.19 326.71 411.4 340.27 391.51"/>
  <g>
    <circle class="cls-5" cx="500" cy="138.34" r="115"/>
    <circle class="cls-4" cx="500" cy="138.34" r="85"/>
    <circle class="cls-3" cx="500" cy="138.34" r="55"/>
  </g>
  <g>
    <circle class="cls-5" cx="814.52" cy="321.55" r="115"/>
    <circle class="cls-4" cx="814.52" cy="321.55" r="85"/>
    <circle class="cls-3" cx="814.52" cy="321.55" r="55"/>
  </g>
  <g>
    <circle class="cls-5" cx="813.01" cy="680.96" r="115"/>
    <circle class="cls-4" cx="813.01" cy="680.96" r="85"/>
    <circle class="cls-3" cx="813.01" cy="680.96" r="55"/>
  </g>
  <g>
    <circle class="cls-5" cx="500" cy="861.66" r="115"/>
    <circle class="cls-4" cx="500" cy="861.66" r="85"/>
    <circle class="cls-3" cx="500" cy="861.66" r="55"/>
  </g>
  <g>
    <circle class="cls-5" cx="188.58" cy="684.58" r="115"/>
    <circle class="cls-4" cx="188.58" cy="684.58" r="85"/>
    <circle class="cls-3" cx="188.58" cy="684.58" r="55"/>
  </g>
  <g>
    <circle class="cls-5" cx="185.48" cy="321.15" r="115"/>
    <circle class="cls-4" cx="185.48" cy="321.15" r="85"/>
    <circle class="cls-3" cx="185.48" cy="321.15" r="55"/>
  </g>
  <g>
    <circle class="cls-5" cx="499.9" cy="500" r="200"/>
    <circle class="cls-4" cx="499.9" cy="500" r="150"/>
    <circle class="cls-3" cx="499.9" cy="500" r="100"/>
  </g>
  <text class="cls-2" transform="translate(448.16 156.51)"><tspan x="0" y="0">CPU</tspan></text>
  <text class="cls-2" transform="translate(762.52 339.7)"><tspan x="0" y="0">GPU</tspan></text>
  <text class="cls-2" transform="translate(765.09 699.13)"><tspan x="0" y="0">PSU</tspan></text>
  <text class="cls-2" transform="translate(444.28 879.78)"><tspan x="0" y="0">RAM</tspan></text>
  <text class="cls-2" transform="translate(132.94 702.7)"><tspan x="0" y="0">HDD</tspan></text>
  <text class="cls-2" transform="translate(400.09 519.01)"><tspan x="0" y="0">MBoard</tspan></text>
  <text class="cls-2" transform="translate(136.21 339.32)"><tspan x="0" y="0">SSD</tspan></text>
</svg>