<?xml version="1.0" encoding="UTF-8"?>
<svg id="Layer_1" data-name="Layer 1" xmlns="http://www.w3.org/2000/svg" viewBox="0 0 1000 1000">
  <defs>
    <style>
      .cls-1 {
        fill: #fff;
      }

      .cls-2 {
        fill: #e9e9e9;
        stroke: #f39c12;
        stroke-miterlimit: 10;
        stroke-width: 3px;
      }

      .cls-3 {
        font-family: Poppins-Regular, Poppins;
        font-size: 86.44px;
      }

      .cls-3, .cls-4 {
        fill: #ff931e;
      }
    </style>
  </defs>
  <rect class="cls-2" x="487.9" y="239.5" width="24.01" height="71.31"/>
  <rect class="cls-2" x="487.9" y="687.59" width="24.01" height="71.31"/>
  <polygon class="cls-2" points="671.3 415 728.47 382.07 716.56 361.22 659.17 394.28 671.3 415"/>
  <polygon class="cls-2" points="659.1 608.87 713.16 639.59 725.2 618.82 671.14 588.1 659.1 608.87"/>
  <polygon class="cls-2" points="281.95 644.12 340.87 609.33 328.94 588.49 270.03 623.28 281.95 644.12"/>
  <polygon class="cls-2" points="340.27 391.51 283.64 358.45 271.54 379.19 326.71 411.4 340.27 391.51"/>
  <g>
    <circle class="cls-1" cx="814.52" cy="321.55" r="114.87"/>
    <path class="cls-4" d="M814.52,208.18c30.28,0,58.75,11.79,80.16,33.2,21.41,21.41,33.2,49.88,33.2,80.16s-11.79,58.75-33.2,80.16c-21.41,21.41-49.88,33.2-80.16,33.2s-58.75-11.79-80.16-33.2c-21.41-21.41-33.2-49.88-33.2-80.16s11.79-58.75,33.2-80.16c21.41-21.41,49.88-33.2,80.16-33.2m0-3c-64.27,0-116.37,52.1-116.37,116.37s52.1,116.37,116.37,116.37,116.37-52.1,116.37-116.37-52.1-116.37-116.37-116.37h0Z"/>
  </g>
  <text class="cls-3" transform="translate(732.62 351.75)"><tspan x="0" y="0">SSD</tspan></text>
  <g>
    <circle class="cls-1" cx="188.58" cy="684.58" r="114.87"/>
    <path class="cls-4" d="M188.58,571.21c30.28,0,58.75,11.79,80.16,33.2,21.41,21.41,33.2,49.88,33.2,80.16s-11.79,58.75-33.2,80.16c-21.41,21.41-49.88,33.2-80.16,33.2s-58.75-11.79-80.16-33.2c-21.41-21.41-33.2-49.88-33.2-80.16s11.79-58.75,33.2-80.16c21.41-21.41,49.88-33.2,80.16-33.2m0-3c-64.27,0-116.37,52.1-116.37,116.37s52.1,116.37,116.37,116.37,116.37-52.1,116.37-116.37-52.1-116.37-116.37-116.37h0Z"/>
  </g>
  <text class="cls-3" transform="translate(102.14 714.74)"><tspan x="0" y="0">GPU</tspan></text>
  <g>
    <circle class="cls-1" cx="185.48" cy="321.15" r="114.87"/>
    <path class="cls-4" d="M185.48,207.78c30.28,0,58.75,11.79,80.16,33.2,21.41,21.41,33.2,49.88,33.2,80.16s-11.79,58.75-33.2,80.16c-21.41,21.41-49.88,33.2-80.16,33.2s-58.75-11.79-80.16-33.2c-21.41-21.41-33.2-49.88-33.2-80.16s11.79-58.75,33.2-80.16c21.41-21.41,49.88-33.2,80.16-33.2m0-3c-64.27,0-116.37,52.1-116.37,116.37s52.1,116.37,116.37,116.37,116.37-52.1,116.37-116.37-52.1-116.37-116.37-116.37h0Z"/>
  </g>
  <text class="cls-3" transform="translate(99.3 351.36)"><tspan x="0" y="0">CPU</tspan></text>
  <g>
    <circle class="cls-1" cx="499.9" cy="861.66" r="114.87" transform="translate(-131.57 91.2) rotate(-9.22)"/>
    <path class="cls-4" d="M499.9,748.29c30.28,0,58.75,11.79,80.16,33.2,21.41,21.41,33.2,49.88,33.2,80.16s-11.79,58.75-33.2,80.16c-21.41,21.41-49.88,33.2-80.16,33.2s-58.75-11.79-80.16-33.2c-21.41-21.41-33.2-49.88-33.2-80.16s11.79-58.75,33.2-80.16c21.41-21.41,49.88-33.2,80.16-33.2m0-3c-64.27,0-116.37,52.1-116.37,116.37s52.1,116.37,116.37,116.37,116.37-52.1,116.37-116.37-52.1-116.37-116.37-116.37h0Z"/>
  </g>
  <text class="cls-3" transform="translate(407.28 891.78)"><tspan x="0" y="0">RAM</tspan></text>
  <g>
    <circle class="cls-1" cx="499.9" cy="138.34" r="114.87" transform="translate(250.41 593.09) rotate(-76.72)"/>
    <path class="cls-4" d="M499.9,24.97c30.28,0,58.75,11.79,80.16,33.2,21.41,21.41,33.2,49.88,33.2,80.16s-11.79,58.75-33.2,80.16c-21.41,21.41-49.88,33.2-80.16,33.2s-58.75-11.79-80.16-33.2c-21.41-21.41-33.2-49.88-33.2-80.16s11.79-58.75,33.2-80.16c21.41-21.41,49.88-33.2,80.16-33.2m0-3c-64.27,0-116.37,52.1-116.37,116.37s52.1,116.37,116.37,116.37,116.37-52.1,116.37-116.37-52.1-116.37-116.37-116.37h0Z"/>
  </g>
  <text class="cls-3" transform="translate(407.42 168.46)"><tspan x="0" y="0">HDD</tspan></text>
  <g>
    <circle class="cls-1" cx="813.01" cy="680.96" r="114.87" transform="translate(-243.38 774.34) rotate(-45)"/>
    <path class="cls-4" d="M813.01,567.59c30.28,0,58.75,11.79,80.16,33.2s33.2,49.88,33.2,80.16-11.79,58.75-33.2,80.16c-21.41,21.41-49.88,33.2-80.16,33.2s-58.75-11.79-80.16-33.2c-21.41-21.41-33.2-49.88-33.2-80.16s11.79-58.75,33.2-80.16,49.88-33.2,80.16-33.2m0-3c-64.27,0-116.37,52.1-116.37,116.37s52.1,116.37,116.37,116.37,116.37-52.1,116.37-116.37-52.1-116.37-116.37-116.37h0Z"/>
  </g>
  <text class="cls-3" transform="translate(733.36 711.16)"><tspan x="0" y="0">PSU</tspan></text>
  <g>
    <circle class="cls-1" cx="499.9" cy="500" r="201.84" transform="translate(-207.13 499.93) rotate(-45)"/>
    <path class="cls-4" d="M499.9,299.66c27.05,0,53.28,5.3,77.98,15.74,23.86,10.09,45.28,24.54,63.68,42.94,18.4,18.4,32.85,39.82,42.94,63.68,10.45,24.7,15.74,50.93,15.74,77.98s-5.3,53.28-15.74,77.98c-10.09,23.86-24.54,45.28-42.94,63.68-18.4,18.4-39.83,32.85-63.68,42.94-24.7,10.45-50.93,15.74-77.98,15.74s-53.28-5.3-77.98-15.74c-23.86-10.09-45.28-24.54-63.68-42.94-18.4-18.4-32.85-39.83-42.94-63.68-10.45-24.7-15.74-50.93-15.74-77.98s5.3-53.28,15.74-77.98c10.09-23.86,24.54-45.28,42.94-63.68,18.4-18.4,39.83-32.85,63.68-42.94,24.7-10.45,50.93-15.74,77.98-15.74m0-3c-112.3,0-203.34,91.04-203.34,203.34s91.04,203.34,203.34,203.34,203.34-91.04,203.34-203.34-91.04-203.34-203.34-203.34h0Z"/>
  </g>
  <text class="cls-3" transform="translate(333.98 531.59)"><tspan x="0" y="0">MBoard</tspan></text>
</svg>