<?xml version="1.0" encoding="utf-8"?>
<!-- Generator: Adobe Illustrator 27.0.1, SVG Export Plug-In . SVG Version: 6.00 Build 0)  -->
<svg version="1.1" id="Layer_1" xmlns="http://www.w3.org/2000/svg" xmlns:xlink="http://www.w3.org/1999/xlink" x="0px" y="0px"
	 viewBox="0 0 2000 1000" style="enable-background:new 0 0 2000 1000;" xml:space="preserve">
<style type="text/css">
	.st0{fill:#FFFFFF;}
	.st1{fill:#E9E9E9;stroke:#F39C12;stroke-width:5.62;stroke-miterlimit:10;}
	.st2{fill:#E2B588;}
	.st3{fill:#E5A865;}
	.st4{fill:#F2A02A;}
	.st5{fill:#F39C12;}
	.st6{fill:#EDA23E;}
	.st7{fill:#E9E9E9;}
	.st8{font-family:'Poppins-Regular';}
	.st9{font-size:8px;}
	.st10{fill:none;stroke:#F39C12;stroke-width:5.62;stroke-miterlimit:10;}
	.st11{fill:#FFFFFF;stroke:#F39C12;stroke-width:5.62;stroke-miterlimit:10;}
	.st12{fill:#E9E9E9;stroke:#F39C12;stroke-width:2.3542;stroke-miterlimit:10;}
	.st13{fill:none;stroke:#F39C12;stroke-width:5.62;stroke-linecap:round;stroke-linejoin:round;}
</style>
<g>
	<path class="st0" d="M977,349.3v172l-52.6,91.2l-0.3,0.5l-12,20.7l-70.6,122.3H220.8c-0.8,0-1.5-0.1-2.2-0.2c-1-0.2-1.9-0.5-2.7-1
		c-0.2-0.1-0.4-0.2-0.6-0.3c-0.1-0.1-0.3-0.2-0.4-0.3c-0.6-0.4-1.1-0.8-1.6-1.3c-1.9-1.9-3.1-4.5-3.1-7.5V349.3
		c0-5.9,4.7-10.6,10.6-10.6h745.6C972.2,338.7,977,343.3,977,349.3z"/>
	<path class="st1" d="M184.8,787.1h638.7l-20.4,35.4H191.7c-7.6,0-13.7-6.1-13.7-13.7v-14.8C178,790.1,181,787.1,184.8,787.1
		L184.8,787.1z"/>
	<g>
		<path class="st2" d="M924.1,612.9l-12,20.7l-70.6,122.3H220.8c-0.8,0-1.5-0.1-2.2-0.2c0.7,0.2,1.4,0.2,2.2,0.2h620.7l-1.6,2.8
			H218.1c-5.9,0-10.7-4.7-10.7-10.7v-59.6c0.9,0.1,1.9,0.2,2.8,0.4c3.5,0.4,7,0.8,10.5,1.2c1.1,0.1,2.2,0.2,3.2,0.3
			c1,0.1,2,0.2,3,0.3c0.7,0.1,1.5,0.1,2.2,0.2c1.2,0.1,2.3,0.2,3.4,0.2c0.9,0.1,1.8,0.1,2.6,0.2c0.9,0.1,1.8,0.1,2.6,0.2
			c1.1,0.1,2.3,0.1,3.5,0.2c0.9,0,1.8,0.1,2.7,0.1c0.8,0,1.5,0.1,2.3,0.1c3,0.1,5.9,0.2,8.9,0.3c1.2,0,2.3,0,3.5,0.1
			c38.3,0.5,76.9-3.4,114.4-10.2c100.2-18.1,196.9-54.7,297-73.8c37.7-7.2,75.8-11.9,114-15.8c7.1-0.7,14.2-1.4,21.4-2
			c24.2,6.1,48.4,11.6,72.9,16C893.4,609,908.7,611.2,924.1,612.9z"/>
		<path class="st3" d="M207.4,688.4V555c32.7-0.6,65.6-4.4,97.6-10.1c43.7-7.9,86.8-19.3,129.7-31.3c0,0,0,0,0,0
			c10.9,0.9,21.7,1.9,32.6,3c38.2,3.8,76.3,8.5,114,15.8c75.6,14.5,149.3,38.9,224.1,57.8c-7.1,0.6-14.2,1.3-21.4,2
			c-38.2,3.8-76.3,8.6-114,15.8c-100.1,19.1-196.7,55.7-297,73.8C318.7,691.6,262,695.5,207.4,688.4z"/>
		<path class="st4" d="M207.4,555.3V383.8c37.5,0.8,75,3.8,112.3,7.5c38.2,3.8,76.3,8.5,114,15.8c73.5,14,145.1,37.5,217.7,56.2
			c-16.5,2.3-33,5-49.4,8.1c-32.7,6.2-65,14.4-97.2,23.1c-23.4,6.3-46.7,13-70.1,19.5c0,0,0,0,0,0c-42.9,12-86,23.4-129.7,31.3
			C273,550.9,240.2,554.6,207.4,555.3z"/>
		<path class="st5" d="M207.4,384.5v-37.9c0-6,4.8-10.7,10.7-10.7h751.1c0.9,0,1.8,0.1,2.7,0.3c0.2,0,0.4,0.1,0.6,0.2
			c0.6,0.2,1.1,0.4,1.6,0.7c0.2,0.1,0.5,0.2,0.7,0.4c0.3,0.2,0.6,0.4,0.9,0.6c2.6,1.9,4.2,5.1,4.2,8.6v120.6
			c-65.5,25.5-138.2,28.8-208.8,20.4c-13.5-1.6-26.9-3.7-40.2-6.1c-26.6-4.8-53-10.9-79.3-17.7c-72.6-18.6-144.2-42.1-217.7-56.2
			c-37.7-7.2-75.9-11.9-114-15.8C282.4,388.2,244.9,385.3,207.4,384.5z"/>
		<g>
			<path class="st6" d="M979.8,466.3v50.2l-2.8,4.8l-52.6,91.2l-0.3,0.5c-15.4-1.7-30.7-4-45.8-6.7c-24.5-4.4-48.7-9.9-72.9-16
				c-37.4-9.5-74.5-20.3-111.7-30.5c-37.2-10.3-74.5-20-112.4-27.2c-37.7-7.2-75.9-11.9-114-15.8c-10.6-1.1-21.2-2.1-31.9-3
				c-0.2,0-0.5,0-0.7-0.1c23.4-6.5,46.7-13.1,70.1-19.5c32.2-8.7,64.5-16.8,97.2-23.1c15.6-3,31.3-5.5,47-7.8
				c0.6-0.1,1.2-0.2,1.8-0.2c0.2,0,0.4-0.1,0.6-0.1c26.3,6.7,52.6,12.8,79.3,17.7c13.3,2.4,26.7,4.5,40.2,6.1
				c69.6,8.3,141.3,5.3,206-19.3C977.9,467,978.8,466.7,979.8,466.3z"/>
		</g>
	</g>
	<g>
		<path class="st7" d="M199.6,774.3c-4.3,0-7.7-3.4-7.7-7.8V328.1c0-4.3,3.4-7.7,7.7-7.7h787.9c4.4,0,7.8,3.4,7.8,7.7v155.8
			l-15.6,26.9V349.3c0-7.4-6-13.4-13.4-13.4H220.8c-7.5,0-13.4,5.9-13.4,13.4v396.1c0,7.5,5.9,13.4,13.4,13.4h615.8l-9,15.6
			L199.6,774.3L199.6,774.3z"/>
		<path class="st5" d="M987.5,317.6H199.6c-5.9,0-10.5,4.6-10.5,10.5v438.4c0,5.9,4.7,10.6,10.5,10.6h629.7l10.6-18.4l1.6-2.8H220.8
			c-0.8,0-1.5-0.1-2.2-0.2c-1-0.2-1.9-0.5-2.7-1c-0.2-0.1-0.4-0.2-0.6-0.3c-0.1-0.1-0.3-0.2-0.4-0.3c-0.6-0.4-1.1-0.8-1.6-1.3
			c-1.9-1.9-3.1-4.5-3.1-7.5V349.3c0-5.9,4.7-10.6,10.6-10.6h745.6c5.8,0,10.6,4.7,10.6,10.6v172l2.8-4.8l18.4-31.8V328.1
			C998.1,322.2,993.4,317.6,987.5,317.6z M204.6,349.3v396.1c0,9.1,7.1,16.2,16.2,16.2h611l-5.7,9.9H199.6c-2.8,0-4.9-2.1-4.9-5
			V328.1c0-2.8,2.1-4.9,4.9-4.9h787.9v0c2.8,0,5,2.2,5,4.9v155l-9.9,17.2V349.3c0-8.9-7.3-16.2-16.2-16.2H220.8
			C211.7,333.1,204.6,340.2,204.6,349.3z"/>
	</g>
	<g>
		<g>
			<path class="st5" d="M646.7,601H540.5c-3.8,0-6.7-3.6-5.8-7.3c7.5-29.5,31-51,58.9-51c27.9,0,51.4,21.5,58.9,51
				C653.4,597.4,650.5,601,646.7,601z"/>
			<circle class="st2" cx="593.6" cy="520.3" r="26.6"/>
		</g>
		<path class="st0" d="M648.4,627.9H537.5c-1.7,0-3-1.3-3-3v-7.1c0-1.7,1.3-3,3-3h110.9c1.7,0,3,1.3,3,3v7.1
			C651.4,626.6,650.1,627.9,648.4,627.9z"/>
		<path class="st6" d="M613.7,651.2h-41.5c-3.6,0-6.5-2.9-6.5-6.5l0,0c0-3.6,2.9-6.5,6.5-6.5h41.5c3.6,0,6.5,2.9,6.5,6.5l0,0
			C620.2,648.2,617.3,651.2,613.7,651.2z"/>
		<g>
			<circle class="st5" cx="567" cy="621.4" r="2.6"/>
			<circle class="st5" cx="573.5" cy="621.4" r="2.6"/>
			<circle class="st5" cx="580" cy="621.4" r="2.6"/>
			<circle class="st5" cx="586.5" cy="621.4" r="2.6"/>
			<circle class="st5" cx="593" cy="621.4" r="2.6"/>
			<circle class="st5" cx="599.4" cy="621.4" r="2.6"/>
			<circle class="st5" cx="605.9" cy="621.4" r="2.6"/>
			<circle class="st5" cx="612.4" cy="621.4" r="2.6"/>
			<circle class="st5" cx="618.9" cy="621.4" r="2.6"/>
		</g>
		<text transform="matrix(1 0 0 1 581.3341 646.3342)" class="st0 st8 st9">Log In</text>
	</g>
</g>
<g>
	<g>
		<path class="st2" d="M2154.7-477.8v-59.6c54.6,7.1,111.3,3.2,165.6-6.6c100.2-18.1,196.9-54.7,297-73.8
			c37.7-7.2,75.9-11.9,114-15.8c7.1-0.7,14.2-1.4,21.4-2h0c24.2,6.1,48.4,11.6,72.9,16c33.3,6,67.5,9.8,101.5,10.2v131.5
			c0,6-4.7,10.7-10.7,10.7h-751.1C2159.5-467.1,2154.7-471.8,2154.7-477.8z"/>
		<path class="st3" d="M2154.7-537.4v-133.4c32.7-0.6,65.6-4.4,97.6-10.1c43.7-7.9,86.8-19.3,129.7-31.3c0,0,0,0,0,0
			c10.9,0.9,21.7,1.9,32.6,3c38.2,3.8,76.3,8.5,114,15.8c75.6,14.5,149.3,38.9,224.1,57.8c-7.1,0.6-14.2,1.3-21.4,2
			c-38.2,3.8-76.3,8.6-114,15.8c-100.1,19.1-196.7,55.7-297,73.8C2266-534.1,2209.3-530.3,2154.7-537.4z"/>
		<path class="st4" d="M2154.7-670.5V-842c37.5,0.8,75,3.8,112.3,7.5c38.2,3.8,76.3,8.5,114,15.8c73.5,14,145.1,37.5,217.7,56.2
			c-16.5,2.3-33,5-49.4,8.1c-32.7,6.2-65,14.4-97.2,23.1c-23.4,6.3-46.7,13-70.1,19.5c0,0,0,0,0,0c-42.9,12-86,23.4-129.7,31.3
			C2220.3-674.8,2187.4-671.1,2154.7-670.5z"/>
		<path class="st5" d="M2154.7-841.3v-37.9c0-6,4.8-10.7,10.7-10.7h751.1c0.9,0,1.8,0.1,2.7,0.3c0.2,0,0.4,0.1,0.6,0.2
			c0.6,0.2,1.1,0.4,1.6,0.7c0.2,0.1,0.5,0.2,0.7,0.4c0.3,0.2,0.6,0.4,0.9,0.6c2.6,1.9,4.2,5.1,4.2,8.6v120.6
			c-65.5,25.5-138.2,28.8-208.8,20.4c-13.5-1.6-26.9-3.7-40.2-6.1c-26.6-4.8-53-10.9-79.3-17.7c-72.6-18.6-144.2-42.1-217.7-56.2
			c-37.7-7.2-75.9-11.9-114-15.8C2229.7-837.5,2192.2-840.4,2154.7-841.3z"/>
		<g>
			<path class="st6" d="M2382-712.1c23.3-6.5,46.7-13.1,70.1-19.5c32.2-8.7,64.5-16.8,97.2-23.1c16.4-3.1,32.9-5.8,49.4-8.1
				c26.3,6.7,52.6,12.9,79.3,17.7c13.3,2.4,26.7,4.4,40.2,6.1c70.6,8.4,143.4,5.2,208.8-20.4v150.1c-34-0.4-68.2-4.2-101.5-10.2
				c-24.5-4.4-48.7-9.9-72.9-16h0c-74.8-18.9-148.4-43.3-224.1-57.8c-37.7-7.2-75.9-11.9-114-15.8
				C2403.7-710.2,2392.9-711.2,2382-712.1z"/>
		</g>
	</g>
	<g>
		<g>
			<path class="st5" d="M2594-649.9h-106.2c-3.8,0-6.7-3.6-5.8-7.3c7.5-29.5,31-51,58.9-51c27.9,0,51.4,21.5,58.9,51
				C2600.7-653.5,2597.8-649.9,2594-649.9z"/>
			<circle class="st2" cx="2540.9" cy="-730.6" r="26.6"/>
		</g>
		<path class="st0" d="M2595.7-622.9h-110.9c-1.7,0-3-1.3-3-3v-7.1c0-1.7,1.3-3,3-3h110.9c1.7,0,3,1.3,3,3v7.1
			C2598.7-624.3,2597.4-622.9,2595.7-622.9z"/>
		<path class="st6" d="M2561-599.7h-41.5c-3.6,0-6.5-2.9-6.5-6.5l0,0c0-3.6,2.9-6.5,6.5-6.5h41.5c3.6,0,6.5,2.9,6.5,6.5l0,0
			C2567.5-602.6,2564.6-599.7,2561-599.7z"/>
		<g>
			<circle class="st5" cx="2514.3" cy="-629.5" r="2.6"/>
			<circle class="st5" cx="2520.8" cy="-629.5" r="2.6"/>
			<circle class="st5" cx="2527.3" cy="-629.5" r="2.6"/>
			<circle class="st5" cx="2533.8" cy="-629.5" r="2.6"/>
			<circle class="st5" cx="2540.3" cy="-629.5" r="2.6"/>
			<circle class="st5" cx="2546.7" cy="-629.5" r="2.6"/>
			<circle class="st5" cx="2553.2" cy="-629.5" r="2.6"/>
			<circle class="st5" cx="2559.7" cy="-629.5" r="2.6"/>
			<circle class="st5" cx="2566.2" cy="-629.5" r="2.6"/>
		</g>
		<text transform="matrix(1 0 0 1 2528.6292 -604.5233)" class="st0 st8 st9">Log In</text>
	</g>
</g>
<g>
	<g>
		<g>
			<path class="st2" d="M1457,473.1v131.5c0,6-4.7,10.7-10.7,10.7H922.1l0.1-0.2l1.3-2.3l0.2-0.3l0.1-0.1h1.4l23.1-40.1l38.8-67.1
				c53.1-14.8,106.1-30.2,160.1-40.5c37.7-7.2,75.9-11.9,114-15.8c7.1-0.7,14.2-1.4,21.4-2h0c24.2,6.1,48.4,11.6,72.9,16
				c32.4,5.9,65.6,9.6,98.8,10.1c0,0,0.1,0,0.1,0C1455.2,473.1,1456.1,473.1,1457,473.1z"/>
			<path class="st3" d="M1282.6,446.9c-7.1,0.7-14.2,1.3-21.4,2c-38.2,3.9-76.3,8.5-114,15.8c-54,10.3-107,25.7-160.1,40.5l0.1-0.1
				l26.5-45.9l7.4-12.9l8-13.9l25.4-44c1.3,0.2,2.6,0.5,3.9,0.7C1134.1,403.6,1207.8,428,1282.6,446.9z"/>
			<path class="st4" d="M1128.6,319.9c-0.6,0.1-1.2,0.2-1.8,0.2c-12.1,1.7-24.2,3.6-36.2,5.8l0.1-0.2l0.1-0.1l0.1-0.2l7.4-12.9
				l0.1-0.2l0.3-0.5c9.7,2.7,19.5,5.2,29.2,7.8C1128.2,319.8,1128.4,319.8,1128.6,319.9z"/>
			<path class="st5" d="M1457,203.3V324c-0.9,0.3-1.8,0.7-2.6,1c0,0-0.1,0-0.1,0c-64.8,24.6-136.4,27.6-206.1,19.3
				c-13.5-1.6-27-3.7-40.2-6.1c-26.6-4.8-53-10.9-79.3-17.7c-0.6-0.1-1.2-0.3-1.8-0.5c-0.2-0.1-0.4-0.1-0.7-0.2
				c-9.3-2.4-18.6-4.9-27.8-7.4l0.1-0.2l0.3-0.5l0.1-0.2l67.2-116.4h277.7c0.4,0,0.8,0,1.1,0.1c0.2,0,0.4,0,0.7,0.1
				c0.2,0,0.4,0.1,0.5,0.1c0.4,0.1,0.7,0.2,1,0.3c0.2,0.1,0.4,0.2,0.7,0.2c0.3,0.1,0.7,0.3,1,0.5c0.2,0.1,0.4,0.2,0.6,0.4
				c0.2,0.1,0.3,0.2,0.4,0.3c0.1,0.1,0.2,0.1,0.3,0.2c0.3,0.3,0.7,0.5,1,0.8c-0.1-0.1-0.2-0.3-0.4-0.4c-0.6-0.6-1.2-1-2-1.4
				c-0.2-0.1-0.3-0.2-0.4-0.2c-0.2-0.1-0.4-0.2-0.5-0.2c-0.2-0.1-0.3-0.1-0.5-0.2c-0.2-0.1-0.4-0.1-0.6-0.2
				c-0.4-0.1-0.8-0.2-1.2-0.3c-0.2,0-0.4-0.1-0.6-0.1c-0.4,0-0.8-0.1-1.3-0.1h-279l1.5-2.7h280.1c0.9,0,1.8,0.1,2.7,0.3
				c0.2,0.1,0.4,0.1,0.6,0.2c0.6,0.2,1.1,0.4,1.6,0.7c0.2,0.1,0.5,0.2,0.7,0.4c0.3,0.2,0.6,0.4,0.8,0.6
				C1455.3,196.6,1457,199.8,1457,203.3z"/>
			<g>
				<path class="st6" d="M1457,323v150.1c-0.9,0-1.8,0-2.6,0c0,0-0.1,0-0.1,0c-33.1-0.5-66.3-4.3-98.8-10.1
					c-24.5-4.4-48.7-9.9-72.9-16h0c-74.8-18.9-148.5-43.3-224.1-57.8c-1.3-0.2-2.6-0.5-3.9-0.7l0.1-0.2l6.7-11.6l1.1-1.9l25.2-43.7
					l3-5.2l0.1-0.2l0.1-0.1c11.8-2.1,23.5-4,35.4-5.6c0.6-0.1,1.2-0.2,1.8-0.3c0.2,0,0.4-0.1,0.7-0.1c26.3,6.8,52.6,12.9,79.3,17.7
					c13.3,2.4,26.7,4.4,40.2,6.1c69.7,8.3,141.3,5.3,206.1-19.3c0,0,0.1,0,0.1,0C1455.2,323.7,1456.1,323.3,1457,323z"/>
			</g>
		</g>
		<g>
			<g>
				<g>
					<g>
						<path class="st7" d="M916.5,630.8l9-15.5h518.2c7.4,0,13.4-6,13.4-13.4V205.8c0-2.1-0.5-4.2-1.5-6.2c-0.4-0.8-0.9-1.5-1.5-2.2
							c-2.5-3.2-6.3-5-10.4-5h-274.1l9-15.6h286.3c4.3,0,7.8,3.5,7.8,7.8V623c0,4.3-3.4,7.7-7.8,7.7L916.5,630.8L916.5,630.8z"/>
						<path class="st5" d="M1464.8,174.1h-288l-10.6,18.3l-0.1,0.2l-1.5,2.7h279c0.4,0,0.8,0,1.3,0.1c0.2,0,0.4,0.1,0.6,0.1
							c0.4,0.1,0.8,0.2,1.2,0.3c0.2,0.1,0.4,0.1,0.6,0.2c0.2,0.1,0.3,0.1,0.5,0.2c0.2,0.1,0.3,0.1,0.5,0.2c0.2,0.1,0.3,0.1,0.4,0.2
							c0.7,0.4,1.4,0.9,2,1.4c0.1,0.1,0.3,0.2,0.4,0.4c0,0,0,0,0,0c0.1,0.1,0.2,0.2,0.4,0.4c0.1,0.1,0.2,0.3,0.4,0.4c0,0,0,0,0,0
							c0.1,0.1,0.2,0.3,0.3,0.4c0.3,0.4,0.6,0.8,0.8,1.3c0,0,0,0,0,0c0.7,1.5,1.2,3.1,1.2,4.9v396.1c0,5.9-4.8,10.6-10.6,10.6H923.8
							l-0.1,0.1l-0.2,0.3l-1.3,2.3l-0.1,0.2l-10.5,18.2h553.3c5.8,0,10.5-4.6,10.5-10.5V184.7
							C1475.4,178.7,1470.6,174.1,1464.8,174.1z M1443.7,618.1c8.9,0,16.2-7.3,16.2-16.2V205.8c0-2.6-0.6-5.1-1.8-7.4
							c-0.5-1-1.1-1.9-1.8-2.7c-3.1-3.8-7.7-6-12.6-6h-269.3l5.7-9.9h284.7l0,0c2.8,0,4.9,2.2,4.9,5v438.4c0,2.8-2.2,4.9-4.9,4.9
							H921.3l5.7-9.9H1443.7z"/>
					</g>
					<line class="st10" x1="1026.3" y1="804.2" x2="1026.3" y2="633.6"/>
					<line class="st10" x1="1115.4" y1="804.2" x2="1115.4" y2="633.6"/>
				</g>
				<g>
					<path class="st11" d="M1577.9,174.1h220.1c13.3,0,24.1,10.8,24.1,24.1v600.1c0,13.3-10.8,24.1-24.1,24.1h-220.1
						c-13.3,0-24.1-10.8-24.1-24.1V198.2C1553.8,184.9,1564.6,174.1,1577.9,174.1z"/>
					<g>
						<circle class="st1" cx="1687.9" cy="693.4" r="19.3"/>
						<circle class="st1" cx="1687.9" cy="740.2" r="11.4"/>
					</g>
					<path class="st1" d="M1597,213.7h181.8c4.7,0,8.6,3.8,8.6,8.6l0,0c0,4.7-3.8,8.6-8.6,8.6H1597c-4.7,0-8.6-3.8-8.6-8.6l0,0
						C1588.4,217.6,1592.3,213.7,1597,213.7z"/>
					<g>
						<path class="st1" d="M1597,259.5h39.3c4.7,0,8.6,3.8,8.6,8.6l0,0c0,4.7-3.8,8.6-8.6,8.6H1597c-4.7,0-8.6-3.8-8.6-8.6l0,0
							C1588.4,263.4,1592.3,259.5,1597,259.5z"/>
						<path class="st1" d="M1668.2,259.5h39.3c4.7,0,8.6,3.8,8.6,8.6l0,0c0,4.7-3.8,8.6-8.6,8.6h-39.3c-4.7,0-8.6-3.8-8.6-8.6l0,0
							C1659.7,263.4,1663.5,259.5,1668.2,259.5z"/>
						<path class="st1" d="M1739.5,259.5h39.3c4.7,0,8.6,3.8,8.6,8.6l0,0c0,4.7-3.8,8.6-8.6,8.6h-39.3c-4.7,0-8.6-3.8-8.6-8.6l0,0
							C1730.9,263.4,1734.8,259.5,1739.5,259.5z"/>
					</g>
				</g>
				<g>
					<path class="st7" d="M937,819.6c-3.5,0-6.3-2.8-6.3-6.3c0-1.7,0.7-3.3,1.8-4.5c1.2-1.2,2.8-1.8,4.5-1.8h267.8
						c3.5,0,6.3,2.8,6.3,6.3c0,1.7-0.7,3.3-1.8,4.5c-1.2,1.2-2.8,1.8-4.5,1.8H937L937,819.6z"/>
					<path class="st5" d="M1204.8,804.2H937c-2.5,0-4.8,1-6.4,2.7c-1.6,1.6-2.7,3.9-2.7,6.4c0,5,4.1,9.1,9.1,9.1h267.8
						c2.5,0,4.8-1,6.4-2.7s2.7-3.9,2.7-6.4C1213.9,808.3,1209.8,804.2,1204.8,804.2z M1207.3,815.8c-0.5,0.5-1.3,1-2.5,1H937
						c-1.9,0-3.5-1.6-3.5-3.5c0-0.9,0.4-1.8,1-2.5c0.6-0.6,1.6-1,2.5-1h267.8c1.9,0,3.5,1.6,3.5,3.5
						C1208.3,814.2,1207.9,815.2,1207.3,815.8z"/>
				</g>
			</g>
		</g>
		<path class="st0" d="M1296.2,584.6v28.3H923.6l0.2-0.3l0.1-0.1h1.4l23.1-40.1H1284C1290.7,572.4,1296.2,577.9,1296.2,584.6z"/>
		<circle class="st12" cx="960.6" cy="592.7" r="12.9"/>
		<circle class="st12" cx="1013.4" cy="592.7" r="12.9"/>
		<circle class="st12" cx="1066.2" cy="592.7" r="12.9"/>
		<circle class="st12" cx="1119" cy="592.7" r="12.9"/>
		<circle class="st12" cx="1171.8" cy="592.7" r="12.9"/>
		<circle class="st12" cx="1224.6" cy="592.7" r="12.9"/>
	</g>
	<circle class="st0" cx="1385.4" cy="251.9" r="24.9"/>
	<g>
		<g>
			<path class="st0" d="M1385.6,281.8L1385.6,281.8c2.1,0,3.8,1.7,3.8,3.7l0.1,12.6c0,2.1-1.7,3.8-3.7,3.8l0,0
				c-2.1,0-3.8-1.7-3.8-3.7l-0.1-12.6C1381.9,283.5,1383.6,281.8,1385.6,281.8z"/>
		</g>
		<g>
			<path class="st0" d="M1364.4,273.2L1364.4,273.2c1.5,1.5,1.5,3.9,0,5.3l-8.8,9c-1.5,1.5-3.9,1.5-5.3,0l0,0
				c-1.5-1.5-1.5-3.9,0-5.3l8.8-9C1360.5,271.8,1362.9,271.8,1364.4,273.2z"/>
		</g>
		<g>
			<path class="st0" d="M1355.4,252.1L1355.4,252.1c0,2.1-1.7,3.8-3.7,3.8l-12.6,0.1c-2.1,0-3.8-1.7-3.8-3.7l0,0
				c0-2.1,1.7-3.8,3.7-3.8l12.6-0.1C1353.7,248.4,1355.4,250.1,1355.4,252.1z"/>
		</g>
		<g>
			<path class="st0" d="M1364,230.9L1364,230.9c-1.5,1.5-3.9,1.5-5.3,0l-9-8.8c-1.5-1.5-1.5-3.9,0-5.3v0c1.5-1.5,3.9-1.5,5.3,0
				l9,8.8C1365.5,227,1365.5,229.4,1364,230.9z"/>
		</g>
		<g>
			<path class="st0" d="M1385.1,221.9L1385.1,221.9c-2.1,0-3.8-1.7-3.8-3.7l-0.1-12.6c0-2.1,1.7-3.8,3.7-3.8l0,0
				c2.1,0,3.8,1.7,3.8,3.7l0.1,12.6C1388.9,220.2,1387.2,221.9,1385.1,221.9z"/>
		</g>
		<g>
			<path class="st0" d="M1406.4,230.5L1406.4,230.5c-1.5-1.5-1.5-3.9,0-5.3l8.8-9c1.5-1.5,3.9-1.5,5.3,0l0,0c1.5,1.5,1.5,3.9,0,5.3
				l-8.8,9C1410.3,232,1407.9,232,1406.4,230.5z"/>
		</g>
		<g>
			<path class="st0" d="M1415.3,251.6L1415.3,251.6c0-2.1,1.7-3.8,3.7-3.8l12.6-0.1c2.1,0,3.8,1.7,3.8,3.7l0,0
				c0,2.1-1.7,3.8-3.7,3.8l-12.6,0.1C1417.1,255.4,1415.3,253.7,1415.3,251.6z"/>
		</g>
		<g>
			<path class="st0" d="M1406.7,272.9L1406.7,272.9c1.5-1.5,3.9-1.5,5.3,0l9,8.8c1.5,1.5,1.5,3.9,0,5.3l0,0c-1.5,1.5-3.9,1.5-5.3,0
				l-9-8.8C1405.3,276.8,1405.3,274.4,1406.7,272.9z"/>
		</g>
	</g>
	<text transform="matrix(1 0 0 1 1334.9243 312.9409)"><tspan x="0" y="0" class="st0 st8 st9">Thursday, 27th July</tspan><tspan x="0" y="9.6" class="st0 st8 st9">29° Outside.</tspan></text>
</g>
<line class="st13" x1="1193.5" y1="145.8" x2="784.5" y2="854.2"/>
</svg>
