<?xml version="1.0" encoding="utf-8"?>
<!-- Generator: Adobe Illustrator 27.0.1, SVG Export Plug-In . SVG Version: 6.00 Build 0)  -->
<svg version="1.1" id="Layer_1" xmlns="http://www.w3.org/2000/svg" xmlns:xlink="http://www.w3.org/1999/xlink" x="0px" y="0px"
	 viewBox="0 0 1000 1000" style="enable-background:new 0 0 1000 1000;" xml:space="preserve">
<style type="text/css">
	.st0{fill:#E2B588;}
	.st1{fill:#E5A865;}
	.st2{fill:#F39C12;}
	.st3{fill:#E9E9E9;stroke:#F39C12;stroke-width:3;stroke-miterlimit:10;}
	.st4{fill:#FFFFFF;}
	.st5{font-family:'Poppins-Regular';}
	.st6{font-size:92px;}
	.st7{font-size:42px;}
</style>
<g>
	<circle class="st0" cx="489.2" cy="500" r="175"/>
	<circle class="st1" cx="489.2" cy="500" r="125"/>
	<circle class="st2" cx="489.2" cy="500" r="75"/>
</g>
<g>
	<path class="st0" d="M414.2,754.5c0,51.9-22.6,98.5-58.4,130.5v-25.3c0-5.3-0.4-11.4-0.4-16.5c0-13.7-0.3-25.9-2.5-36.6
		c-1.1-5.3-2.6-10.3-4.8-15c-3.3-7.1-9.6-14.2-18.1-20.8c-4.7-3.6-10.1-7.1-16-10.3c-4.7-2.5-9.7-4.9-14.9-7
		c-20.6-7.3-35.3-26.3-35.3-48.4V581.2c12.4,1.7,24.4,4.8,35.9,9c56.7,20.8,99.6,70.2,111.4,130.6
		C413.1,731.7,414.2,743,414.2,754.5z"/>
	<path class="st1" d="M364.2,754.5c0,18.6-4.1,36.2-11.3,52.1c-1.1-5.3-2.6-10.3-4.8-15c-3.3-7.1-9.6-14.2-18.1-20.8
		c-4.7-3.6-10.1-7.1-16-10.3c-4.7-2.5-9.7-4.9-14.9-7c-20.6-7.3-35.3-26.3-35.3-48.4v-73.2c12.8,2.5,24.8,7,35.9,13.1
		c29,16,50.9,43.2,60,75.8C362.7,731.5,364.2,742.8,364.2,754.5z"/>
	<path class="st2" d="M314.2,754.5c0,2-0.1,4-0.2,6c-4.7-2.5-9.7-4.9-14.9-7c-20.6-7.3-35.3-26.3-35.3-48.4v-21.5
		C293.2,693.8,314.2,721.7,314.2,754.5z"/>
</g>
<g>
	<path class="st0" d="M414.2,245.5c0,11.6-1.1,22.9-3.3,33.9c-11.8,60.4-54.7,109.6-111.3,130.4c-11.4,4.2-23.5,7.3-35.9,9V295.1
		c0-23.3,16.4-43.2,38.8-49.6c3.9-1.7,7.8-3.6,11.5-5.5c17-9,30.9-20.5,36-31.6c1.8-3.8,3.1-7.8,4.2-12.1
		c2.8-11.5,3.1-24.6,3.1-39.6c0-5.1,0.4-11.2,0.4-16.5v-23.5C392.5,148.7,414.2,194.6,414.2,245.5z"/>
	<path class="st1" d="M364.2,245.5c0,11.7-1.6,23.1-4.6,33.9c-9.1,32.5-31,59.6-59.9,75.6c-11,6.1-23.1,10.6-35.9,13.1v-73
		c0-23.3,16.4-43.2,38.8-49.6c3.9-1.7,7.8-3.6,11.5-5.5c17-9,30.9-20.5,36-31.6c1.8-3.8,3.1-7.8,4.2-12.1
		C360.7,211.4,364.2,228,364.2,245.5z"/>
	<path class="st2" d="M314.2,245.5c0,32.8-21.1,60.7-50.5,70.9v-21.3c0-23.3,16.4-43.2,38.8-49.6c3.9-1.7,7.8-3.6,11.5-5.5
		C314.2,241.8,314.2,243.7,314.2,245.5z"/>
</g>
<g>
	<path class="st0" d="M714.7,581.9v123.2c0,23.7-16.9,43.8-39.8,49.8c-2.1,0.9-4.1,1.9-6.1,2.8c-19,9.4-34.8,21.8-40.4,33.8
		c-0.8,1.8-1.6,3.7-2.3,5.6c-4.5,13-5,28.2-5,46.1c0,5.1-0.4,11.2-0.4,16.5V879c-32.1-31.7-52-75.8-52-124.5
		c0-11.5,1.1-22.8,3.2-33.6C583.4,662,624.4,613.7,678.8,592C690.2,587.4,702.2,584,714.7,581.9z"/>
	<path class="st1" d="M714.7,632.9v72.2c0,23.7-16.9,43.8-39.8,49.8c-2.1,0.9-4.1,1.9-6.1,2.8c-19,9.4-34.8,21.8-40.4,33.8
		c-0.8,1.8-1.6,3.7-2.3,5.6c-4.8-13.3-7.5-27.7-7.5-42.7c0-11.7,1.6-22.9,4.6-33.6c8.6-30.8,28.7-56.9,55.5-73.2
		C689.8,641,701.8,635.9,714.7,632.9z"/>
	<path class="st2" d="M714.7,685.3v19.8c0,23.7-16.9,43.8-39.8,49.8c-2.1,0.9-4.1,1.9-6.1,2.8c-0.1-1.1-0.1-2.2-0.1-3.3
		C668.8,723.4,687.7,696.7,714.7,685.3z"/>
</g>
<g>
	<path class="st0" d="M714.7,295.1v123c-12.5-2.1-24.5-5.5-35.9-10.1c-54.3-21.7-95.2-69.9-106.8-128.7c-2.2-11-3.3-22.3-3.3-33.9
		c0-49.7,20.7-94.5,54-126.4v21.2c0,5.3,0.4,11.4,0.4,16.5c0,16.6,0.5,30.9,4.1,43.2c0.9,2.9,1.9,5.7,3.2,8.4
		c5.5,12,19.9,23.9,38.4,33.1c3.5,1.7,7.1,3.4,10.9,4.9l0,0C700.7,253.5,714.7,272.7,714.7,295.1z"/>
	<path class="st1" d="M714.7,295.1v72c-12.9-3-25-8.1-35.9-14.8c-26.7-16.2-46.8-42.2-55.4-72.9c-3-10.8-4.6-22.1-4.6-33.9
		c0-16,3-31.4,8.5-45.5c0.9,2.9,1.9,5.7,3.2,8.4c5.5,12,19.9,23.9,38.4,33.1c3.5,1.7,7.1,3.4,10.9,4.9l0,0
		C700.7,253.5,714.7,272.7,714.7,295.1z"/>
	<path class="st2" d="M714.7,295.1v19.6c-27-11.3-46-38-46-69.2c0-1.3,0-2.7,0.1-4c3.5,1.7,7.1,3.4,10.9,4.9l0,0
		C700.7,253.5,714.7,272.7,714.7,295.1z"/>
</g>
<path class="st2" d="M714.7,456.4h13.1c4.6,0,8.4,3.8,8.4,8.4v70.4c0,4.6-3.8,8.4-8.4,8.4h-13.1V456.4L714.7,456.4L714.7,456.4z"/>
<path class="st3" d="M679.8,246.4L679.8,246.4c-3.8-1.5-7.4-3.2-10.9-4.9c-18.5-9.2-32.9-21.1-38.4-33.1c-1.3-2.7-2.3-5.5-3.2-8.4
	c-3.7-12.4-4.1-26.6-4.1-43.2c0-5.1-0.4-11.2-0.4-16.5V73.7c0-28.6-23.2-51.8-51.8-51.8H409.5c-28.6,0-51.8,23.2-51.8,51.8v66.6
	c0,5.3-0.4,11.4-0.4,16.5c0,15-0.4,28.1-3.1,39.6c-1,4.2-2.4,8.2-4.2,12.1c-5.1,11-19,22.5-36,31.6c-3.7,2-7.5,3.8-11.5,5.5
	c-22.4,6.4-38.8,26.2-38.8,49.6v410c0,22.2,14.7,41.1,35.3,48.4c5.2,2.1,10.2,4.5,14.9,7c5.9,3.2,11.3,6.6,16,10.3
	c8.5,6.5,14.8,13.7,18.1,20.8c2.2,4.7,3.7,9.7,4.8,15c2.2,10.8,2.5,22.9,2.5,36.6c0,5.1,0.4,11.2,0.4,16.5v66.6
	c0,28.6,23.2,51.8,51.8,51.8H569c28.6,0,51.8-23.2,51.8-51.8v-66.6c0-5.3,0.4-11.4,0.4-16.5c0-17.9,0.5-33.1,5-46.1
	c0.7-1.9,1.4-3.8,2.3-5.6c5.5-12,21.4-24.4,40.4-33.8c2-1,4-1.9,6.1-2.8c22.9-6,39.8-26.1,39.8-49.8v-410
	C714.7,272.7,700.7,253.5,679.8,246.4z M678.8,695c0,14.3-12.2,25.9-27.2,25.9H326.8c-15,0-27.2-11.6-27.2-25.9V305.2
	c0-14.3,12.2-25.9,27.2-25.9h324.8c15,0,27.2,11.6,27.2,25.9V695z"/>
<g>
	<text transform="matrix(1 0 0 1 378.8835 494.5415)" class="st4 st5 st6">20:30</text>
	<text transform="matrix(1 0 0 1 381.7168 559.5416)" class="st4 st5 st7">Friday, 27th</text>
</g>
</svg>
