<?xml version="1.0" encoding="UTF-8"?>
<svg id="Layer_1" data-name="Layer 1" xmlns="http://www.w3.org/2000/svg" viewBox="0 0 1000 1000">
  <defs>
    <style>
      .cls-1 {
        fill: #e9e9e9;
        stroke: #f39c12;
        stroke-miterlimit: 10;
        stroke-width: 3px;
      }

      .cls-2 {
        font-size: 41.4px;
      }

      .cls-2, .cls-3 {
        font-family: Poppins-Regular, Poppins;
      }

      .cls-2, .cls-3, .cls-4 {
        fill: #f39c12;
      }

      .cls-3 {
        font-size: 103.5px;
      }
    </style>
  </defs>
  <path class="cls-4" d="M714.72,456.42h13.1c4.62,0,8.37,3.75,8.37,8.37v70.41c0,4.62-3.75,8.37-8.37,8.37h-13.1v-87.16h0Z"/>
  <path class="cls-1" d="M679.76,246.41h0c-23.65-9.57-42.75-23.75-49.32-37.98-6.62-14.18-7.3-31.15-7.3-51.64,0-5.12-.41-11.18-.41-16.51V73.72c0-28.57-23.18-51.75-51.75-51.75h-161.46c-28.57,0-51.75,23.18-51.75,51.75v66.55c0,5.33-.41,11.38-.41,16.51,0,20.49-.67,37.47-7.3,51.64-6.21,13.45-25.41,27.53-47.5,37.1-22.41,6.42-38.76,26.24-38.76,49.58v410c0,22.15,14.7,41.09,35.29,48.44h0c23.65,9.57,42.43,23.8,49.01,38.04,6.62,14.18,7.3,31.15,7.3,51.64,0,5.12,.41,11.18,.41,16.51v66.55c0,28.56,23.18,51.75,51.75,51.75h161.46c28.57,0,51.75-23.18,51.75-51.75v-66.55c0-5.33,.41-11.38,.41-16.51,0-20.49,.67-37.47,7.3-51.64,6.11-13.25,24.79-27.06,46.42-36.64,22.92-6.05,39.8-26.13,39.8-49.83V295.1c0-22.41-13.97-41.55-34.93-48.7Zm-.98,448.56c0,14.28-12.16,25.87-27.17,25.87H326.84c-14.95,0-27.17-11.59-27.17-25.87V305.24c0-14.28,12.21-25.87,27.17-25.87h324.77c15.01,0,27.17,11.59,27.17,25.87v389.72Z"/>
  <text class="cls-3" transform="translate(353.6 430.14)"><tspan x="0" y="0">20:30</tspan></text>
  <text class="cls-2" transform="translate(372.63 491.87)"><tspan x="0" y="0">Friday, 27th</tspan></text>
</svg>