<?xml version="1.0" encoding="UTF-8"?>
<svg id="Layer_1" data-name="Layer 1" xmlns="http://www.w3.org/2000/svg" viewBox="0 0 2000 1000">
  <defs>
    <style>
      .cls-1 {
        fill: #e9e9e9;
      }

      .cls-2, .cls-3 {
        fill: #fff;
      }

      .cls-3 {
        stroke: #ff931e;
      }

      .cls-3, .cls-4 {
        stroke-miterlimit: 10;
        stroke-width: 3.15px;
      }

      .cls-4 {
        fill: none;
        stroke: #000;
      }

      .cls-5 {
        fill: #ff931e;
      }
    </style>
  </defs>
  <g>
    <path class="cls-2" d="M197.86,826.96c-9.73,0-17.64-5.68-17.64-12.67v-301.28c0-6.99,7.92-12.67,17.64-12.67H1802.14c9.73,0,17.64,5.68,17.64,12.67v301.28c0,6.99-7.92,12.67-17.64,12.67H197.86Z"/>
    <path class="cls-5" d="M1802.14,502.58c8.35,0,15.41,4.78,15.41,10.44v301.28c0,5.66-7.06,10.44-15.41,10.44H197.86c-8.35,0-15.41-4.78-15.41-10.44v-301.28c0-5.66,7.06-10.44,15.41-10.44H1802.14m0-4.47H197.86c-10.97,0-19.88,6.68-19.88,14.9v301.28c0,8.23,8.91,14.9,19.88,14.9H1802.14c10.97,0,19.88-6.68,19.88-14.9v-301.28c0-8.22-8.91-14.9-19.88-14.9h0Z"/>
  </g>
  <g>
    <path class="cls-1" d="M606.78,681.53c-9.86,0-17.88-8.02-17.88-17.88s8.02-17.88,17.88-17.88h67.71c9.86,0,17.88,8.02,17.88,17.88s-8.02,17.88-17.88,17.88h-67.71Z"/>
    <path class="cls-5" d="M674.49,648.36c8.43,0,15.3,6.86,15.3,15.3s-6.86,15.3-15.3,15.3h-67.7c-8.43,0-15.3-6.86-15.3-15.3s6.86-15.3,15.3-15.3h67.7m0-5.16h-67.7c-11.3,0-20.45,9.16-20.45,20.45s9.16,20.45,20.45,20.45h67.7c11.3,0,20.45-9.16,20.45-20.45s-9.16-20.45-20.45-20.45h0Z"/>
  </g>
  <g>
    <path class="cls-1" d="M376.48,728.56c-35.78,0-64.89-29.13-64.89-64.93,0-5.07,.59-10.13,1.76-15.02,5.58-23.48,24.33-42.33,47.76-48.03,5.06-1.22,10.24-1.84,15.37-1.84,35.8,0,64.93,29.11,64.93,64.89s-29.13,64.93-64.93,64.93Z"/>
    <path class="cls-5" d="M376.48,601.33c34.38,0,62.35,27.95,62.35,62.31s-27.97,62.35-62.35,62.35-62.31-27.97-62.31-62.35c0-4.87,.57-9.72,1.69-14.43,2.65-11.13,8.34-21.33,16.46-29.5,8.12-8.17,18.29-13.91,29.38-16.61,4.87-1.17,9.84-1.77,14.78-1.77m0-5.16c-5.53,0-10.85,.68-15.98,1.91-24.53,5.96-43.81,25.36-49.66,49.93-1.19,5.01-1.83,10.26-1.83,15.62,0,37.29,30.21,67.51,67.47,67.51s67.51-30.22,67.51-67.51-30.21-67.47-67.51-67.47h0Z"/>
  </g>
  <g>
    <path class="cls-1" d="M753.15,681.53c-9.54,0-17.3-7.76-17.3-17.3,0-10.17,8.28-18.45,18.45-18.45H1819.44v35.75H753.15Z"/>
    <path class="cls-5" d="M1816.86,648.36v30.59H753.15c-8.12,0-14.72-6.6-14.72-14.72,0-8.75,7.12-15.87,15.87-15.87H1816.86m5.16-5.16H754.3c-11.62,0-21.03,9.42-21.03,21.03,0,10.98,8.9,19.88,19.88,19.88H1822.02v-40.91h0Z"/>
  </g>
  <g>
    <g>
      <path class="cls-4" d="M506.69,342.28c0,21.72-17.61,39.35-39.35,39.35s-39.35-17.63-39.35-39.35,17.61-39.37,39.35-39.37,39.35,17.63,39.35,39.37Z"/>
      <circle class="cls-1" cx="467.34" cy="342.28" r="39.36"/>
      <circle class="cls-1" cx="617.17" cy="342.28" r="39.36"/>
      <circle class="cls-5" cx="467.34" cy="342.28" r="25.31"/>
      <line class="cls-4" x1="421.31" y1="380.55" x2="421.23" y2="380.83"/>
      <path class="cls-4" d="M656.53,342.28c0,21.72-17.63,39.35-39.37,39.35s-39.35-17.63-39.35-39.35,17.63-39.37,39.35-39.37,39.37,17.63,39.37,39.37Z"/>
      <circle class="cls-5" cx="617.17" cy="342.28" r="25.31"/>
      <line class="cls-4" x1="663.28" y1="380.83" x2="663.2" y2="380.55"/>
      <g>
        <path class="cls-1" d="M671.64,181.11c.74-4.87,4.41-8.62,8.72-8.62l35.45,.96c4.44,.12,8.04,4.07,8.59,9.09l-52.76-1.43Z"/>
        <path class="cls-5" d="M680.37,174.07h.17s35.24,.96,35.24,.96c3.11,.08,5.73,2.53,6.71,5.89l-48.86-1.32c1.1-3.23,3.73-5.52,6.74-5.52m0-3.15c-5.65,0-10.3,5.19-10.43,11.72l56.12,1.52c.14-6.63-4.43-12.13-10.19-12.28l-35.24-.95c-.08,0-.17,0-.25,0h0Z"/>
      </g>
      <g>
        <path class="cls-1" d="M360.1,182.43c.55-5.02,4.16-8.97,8.59-9.09l35.45-.96c4.32,0,7.98,3.74,8.72,8.62l-52.76,1.43Z"/>
        <path class="cls-5" d="M404.14,173.96c3.02,0,5.64,2.29,6.74,5.52l-48.86,1.32c.99-3.36,3.6-5.8,6.71-5.89l35.24-.95h.17m0-3.15c-.08,0-.17,0-.25,0l-35.24,.95c-5.76,.16-10.33,5.66-10.19,12.28l56.12-1.52c-.13-6.53-4.78-11.72-10.43-11.72h0Z"/>
      </g>
      <path class="cls-3" d="M793.32,394.07s-5.68-77.11-25.7-127.24l-34.96-78.91s-2.39-6.18-11.8-6.31l-46.9-.98s-9.68-.43-17.82,7.44c0,0-7.31,7.58-21.21,2.8,0,0-8.7-3.78-15.86-4.34h-153.63c-7.16,.56-15.86,4.34-15.86,4.34-13.91,4.78-21.21-2.8-21.21-2.8-8.14-7.86-17.82-7.44-17.82-7.44l-46.9,.98c-9.4,.13-11.79,6.31-11.79,6.31l-34.96,78.91c-20.02,50.13-25.7,127.24-25.7,127.24-.64,49.08,17.5,76.14,17.5,76.14,0,0,16.41,23.47,49.49,17.15,31.68-6.06,46.11-53.5,46.11-53.5l16.87-52.83,.06-.2c1.29-4.06,5.11-7,9.6-7,2.37,0,4.59,.82,6.31,2.23,.11,.08,.23,.18,.34,.29,7.98,7,18.43,11.24,29.86,11.24,13.84,0,26.24-6.21,34.55-16h80.73c8.31,9.8,20.71,16,34.55,16,11.43,0,21.89-4.24,29.86-11.24,.11-.11,.23-.21,.34-.29,1.72-1.41,3.93-2.23,6.31-2.23,4.49,0,8.31,2.93,9.6,7l.07,.2,16.87,52.83s14.43,47.44,46.11,53.5c33.07,6.32,49.51-17.15,49.51-17.15,0,0,18.12-27.06,17.48-76.14Zm-325.98-12.43c-21.74,0-39.35-17.63-39.35-39.35s17.61-39.37,39.35-39.37,39.35,17.63,39.35,39.37-17.61,39.35-39.35,39.35Zm149.83,0c-21.72,0-39.35-17.63-39.35-39.35s17.63-39.37,39.35-39.37,39.37,17.63,39.37,39.37-17.63,39.35-39.37,39.35Z"/>
      <g>
        <circle class="cls-1" cx="542.25" cy="221.65" r="18.85"/>
        <path class="cls-5" d="M542.25,204.37c9.53,0,17.27,7.75,17.27,17.27s-7.75,17.27-17.27,17.27-17.27-7.75-17.27-17.27,7.75-17.27,17.27-17.27m0-3.15c-11.28,0-20.42,9.14-20.42,20.42s9.14,20.42,20.42,20.42,20.42-9.14,20.42-20.42-9.14-20.42-20.42-20.42h0Z"/>
      </g>
      <g>
        <path class="cls-1" d="M386.4,299.55c-26.23,0-47.57-21.34-47.57-47.57s21.34-47.57,47.57-47.57,47.57,21.34,47.57,47.57-21.34,47.57-47.57,47.57Z"/>
        <path class="cls-5" d="M386.4,205.98c25.36,0,46,20.63,46,46s-20.63,46-46,46-46-20.63-46-46,20.63-46,46-46m0-3.15c-27.14,0-49.15,22-49.15,49.15s22,49.15,49.15,49.15,49.15-22,49.15-49.15-22-49.15-49.15-49.15h0Z"/>
      </g>
      <g>
        <path class="cls-1" d="M696.38,299.55c-26.23,0-47.57-21.34-47.57-47.57s21.34-47.57,47.57-47.57,47.57,21.34,47.57,47.57-21.34,47.57-47.57,47.57Z"/>
        <path class="cls-5" d="M696.38,205.98c25.36,0,46,20.63,46,46s-20.63,46-46,46-46-20.63-46-46,20.63-46,46-46m0-3.15c-27.14,0-49.15,22-49.15,49.15s22,49.15,49.15,49.15,49.15-22,49.15-49.15-22-49.15-49.15-49.15h0Z"/>
      </g>
      <circle class="cls-5" cx="696.38" cy="224.13" r="12.29"/>
      <circle class="cls-5" cx="696.38" cy="279.83" r="12.29"/>
      <circle class="cls-5" cx="668.53" cy="251.98" r="12.29"/>
      <circle class="cls-5" cx="724.23" cy="251.98" r="12.29"/>
      <g>
        <path class="cls-1" d="M490.82,265.49c-2.74,0-4.98-2.23-4.98-4.98s2.23-4.98,4.98-4.98h20.52c2.75,0,4.98,2.23,4.98,4.98s-2.23,4.98-4.98,4.98h-20.52Z"/>
        <path class="cls-5" d="M511.35,257.11c1.88,0,3.4,1.53,3.4,3.4s-1.53,3.4-3.4,3.4h-20.52c-.91,0-1.76-.35-2.41-1-.64-.64-1-1.5-1-2.41,0-1.88,1.53-3.4,3.4-3.4h20.52m0-3.15h-20.52c-3.62,0-6.55,2.93-6.55,6.55,0,3.62,2.93,6.55,6.55,6.55h20.52c3.62,0,6.55-2.93,6.55-6.55s-2.93-6.55-6.55-6.55h0Z"/>
      </g>
      <g>
        <path class="cls-1" d="M531.99,289.46c-2.75,0-4.98-2.23-4.98-4.98s2.23-4.98,4.98-4.98h20.53c2.75,0,4.98,2.23,4.98,4.98s-2.23,4.98-4.98,4.98h-20.53Z"/>
        <path class="cls-5" d="M552.51,281.08c1.88,0,3.4,1.53,3.4,3.4s-1.53,3.4-3.4,3.4h-20.52c-1.88,0-3.4-1.53-3.4-3.4s1.53-3.4,3.4-3.4h20.52m0-3.15h-20.52c-3.62,0-6.55,2.93-6.55,6.55s2.93,6.55,6.55,6.55h20.52c3.62,0,6.55-2.93,6.55-6.55s-2.93-6.55-6.55-6.55h0Z"/>
      </g>
      <g>
        <path class="cls-1" d="M573.15,265.49c-2.75,0-4.98-2.23-4.98-4.98s2.23-4.98,4.98-4.98h20.52c2.75,0,4.98,2.23,4.98,4.98s-2.23,4.98-4.98,4.98h-20.52Z"/>
        <path class="cls-5" d="M593.68,257.11c1.88,0,3.4,1.53,3.4,3.4s-1.53,3.4-3.4,3.4h-20.52c-1.88,0-3.4-1.53-3.4-3.4s1.53-3.4,3.4-3.4h20.52m0-3.15h-20.52c-3.62,0-6.55,2.93-6.55,6.55s2.93,6.55,6.55,6.55h20.52c3.62,0,6.55-2.93,6.55-6.55s-2.93-6.55-6.55-6.55h0Z"/>
      </g>
      <path class="cls-5" d="M394.59,211.03v28.04c0,1.48-1.25,2.43-2.34,1.8-1.78-1.03-3.76-1.6-5.85-1.6s-4.08,.57-5.86,1.6c-1.09,.63-2.34-.33-2.34-1.8v-28.03c0-.96,.55-1.82,1.33-1.99,2.22-.49,4.51-.74,6.86-.74s4.64,.25,6.86,.74c.77,.17,1.33,1.02,1.33,1.99Z"/>
      <path class="cls-5" d="M394.59,264.9v28.04c0,.97-.55,1.82-1.33,1.99-2.22,.49-4.51,.74-6.86,.74s-4.64-.25-6.86-.74c-.77-.17-1.33-1.02-1.33-1.99v-28.03c0-1.47,1.25-2.43,2.34-1.8,1.78,1.03,3.76,1.6,5.86,1.6s4.07-.57,5.85-1.6c1.09-.63,2.34,.32,2.34,1.8Z"/>
      <path class="cls-5" d="M430.08,251.98c0,2.35-.25,4.64-.74,6.86-.17,.77-1.02,1.33-1.99,1.33h-28.04c-1.48,0-2.43-1.25-1.8-2.34,1.03-1.78,1.6-3.76,1.6-5.85s-.57-4.08-1.6-5.86c-.63-1.09,.33-2.34,1.8-2.34h28.03c.97,0,1.82,.55,1.99,1.33,.49,2.22,.74,4.51,.74,6.86Z"/>
      <path class="cls-5" d="M373.26,260.18h-28.04c-.96,0-1.82-.55-1.99-1.33-.49-2.22-.74-4.51-.74-6.86s.25-4.64,.74-6.86c.17-.77,1.02-1.33,1.99-1.33h28.03c1.47,0,2.43,1.25,1.8,2.34-1.03,1.78-1.6,3.76-1.6,5.86s.57,4.07,1.6,5.85c.63,1.09-.32,2.34-1.8,2.34Z"/>
    </g>
    <g>
      <path class="cls-4" d="M1100.09,342.28c0,21.72-17.61,39.35-39.35,39.35s-39.35-17.63-39.35-39.35,17.61-39.37,39.35-39.37,39.35,17.63,39.35,39.37Z"/>
      <circle class="cls-1" cx="1060.75" cy="342.28" r="39.36"/>
      <circle class="cls-1" cx="1210.58" cy="342.28" r="39.36"/>
      <circle class="cls-5" cx="1060.75" cy="342.28" r="25.31"/>
      <line class="cls-4" x1="1014.71" y1="380.55" x2="1014.63" y2="380.83"/>
      <path class="cls-4" d="M1249.94,342.28c0,21.72-17.63,39.35-39.37,39.35s-39.35-17.63-39.35-39.35,17.63-39.37,39.35-39.37,39.37,17.63,39.37,39.37Z"/>
      <circle class="cls-5" cx="1210.58" cy="342.28" r="25.31"/>
      <line class="cls-4" x1="1256.69" y1="380.83" x2="1256.61" y2="380.55"/>
      <g>
        <path class="cls-1" d="M1265.05,181.11c.74-4.87,4.41-8.62,8.72-8.62l35.45,.96c4.43,.12,8.04,4.07,8.59,9.09l-52.76-1.43Z"/>
        <path class="cls-5" d="M1273.77,174.07h.17s35.24,.96,35.24,.96c3.11,.08,5.73,2.53,6.71,5.89l-48.86-1.32c1.1-3.23,3.73-5.52,6.74-5.52m0-3.15c-5.65,0-10.3,5.19-10.43,11.72l56.12,1.52c.14-6.63-4.43-12.13-10.19-12.28l-35.24-.95c-.08,0-.17,0-.25,0h0Z"/>
      </g>
      <g>
        <path class="cls-1" d="M953.51,182.43c.55-5.02,4.15-8.97,8.59-9.09l35.45-.96c4.32,0,7.98,3.74,8.72,8.62l-52.76,1.43Z"/>
        <path class="cls-5" d="M997.55,173.96c3.02,0,5.64,2.29,6.74,5.52l-48.86,1.32c.99-3.36,3.6-5.8,6.71-5.89l35.24-.95h.17m0-3.15c-.08,0-.17,0-.25,0l-35.24,.95c-5.76,.16-10.33,5.66-10.19,12.28l56.12-1.52c-.13-6.53-4.78-11.72-10.43-11.72h0Z"/>
      </g>
      <path class="cls-3" d="M1386.72,394.07s-5.68-77.11-25.7-127.24l-34.96-78.91s-2.39-6.18-11.8-6.31l-46.9-.98s-9.68-.43-17.82,7.44c0,0-7.31,7.58-21.21,2.8,0,0-8.7-3.78-15.86-4.34h-153.63c-7.16,.56-15.86,4.34-15.86,4.34-13.91,4.78-21.21-2.8-21.21-2.8-8.14-7.86-17.82-7.44-17.82-7.44l-46.9,.98c-9.4,.13-11.79,6.31-11.79,6.31l-34.96,78.91c-20.02,50.13-25.7,127.24-25.7,127.24-.64,49.08,17.5,76.14,17.5,76.14,0,0,16.41,23.47,49.49,17.15,31.68-6.06,46.11-53.5,46.11-53.5l16.87-52.83,.06-.2c1.29-4.06,5.11-7,9.6-7,2.37,0,4.59,.82,6.31,2.23,.11,.08,.23,.18,.34,.29,7.98,7,18.43,11.24,29.86,11.24,13.84,0,26.24-6.21,34.55-16h80.73c8.31,9.8,20.71,16,34.55,16,11.43,0,21.89-4.24,29.86-11.24,.11-.11,.23-.21,.34-.29,1.72-1.41,3.93-2.23,6.31-2.23,4.49,0,8.31,2.93,9.6,7l.07,.2,16.87,52.83s14.43,47.44,46.11,53.5c33.07,6.32,49.51-17.15,49.51-17.15,0,0,18.12-27.06,17.48-76.14Zm-325.98-12.43c-21.74,0-39.35-17.63-39.35-39.35s17.61-39.37,39.35-39.37,39.35,17.63,39.35,39.37-17.61,39.35-39.35,39.35Zm149.83,0c-21.72,0-39.35-17.63-39.35-39.35s17.63-39.37,39.35-39.37,39.37,17.63,39.37,39.37-17.63,39.35-39.37,39.35Z"/>
      <g>
        <path class="cls-1" d="M1135.66,240.5c-10.39,0-18.85-8.46-18.85-18.85s8.46-18.85,18.85-18.85,18.85,8.46,18.85,18.85-8.46,18.85-18.85,18.85Z"/>
        <path class="cls-5" d="M1135.66,204.37c9.53,0,17.27,7.75,17.27,17.27s-7.75,17.27-17.27,17.27-17.27-7.75-17.27-17.27,7.75-17.27,17.27-17.27m0-3.15c-11.28,0-20.42,9.14-20.42,20.42s9.14,20.42,20.42,20.42,20.42-9.14,20.42-20.42-9.14-20.42-20.42-20.42h0Z"/>
      </g>
      <g>
        <path class="cls-1" d="M979.8,299.55c-26.23,0-47.57-21.34-47.57-47.57s21.34-47.57,47.57-47.57,47.57,21.34,47.57,47.57-21.34,47.57-47.57,47.57Z"/>
        <path class="cls-5" d="M979.8,205.98c25.36,0,46,20.63,46,46s-20.63,46-46,46-46-20.63-46-46,20.63-46,46-46m0-3.15c-27.14,0-49.15,22-49.15,49.15s22,49.15,49.15,49.15,49.15-22,49.15-49.15-22-49.15-49.15-49.15h0Z"/>
      </g>
      <g>
        <path class="cls-1" d="M1289.79,299.55c-26.23,0-47.57-21.34-47.57-47.57s21.34-47.57,47.57-47.57,47.57,21.34,47.57,47.57-21.34,47.57-47.57,47.57Z"/>
        <path class="cls-5" d="M1289.79,205.98c25.36,0,46,20.63,46,46s-20.63,46-46,46-46-20.63-46-46,20.63-46,46-46m0-3.15c-27.14,0-49.15,22-49.15,49.15s22,49.15,49.15,49.15,49.15-22,49.15-49.15-22-49.15-49.15-49.15h0Z"/>
      </g>
      <circle class="cls-5" cx="1289.79" cy="224.13" r="12.29"/>
      <circle class="cls-5" cx="1289.79" cy="279.83" r="12.29"/>
      <circle class="cls-5" cx="1261.94" cy="251.98" r="12.29"/>
      <circle class="cls-5" cx="1317.64" cy="251.98" r="12.29"/>
      <g>
        <path class="cls-1" d="M1084.23,265.49c-2.75,0-4.98-2.23-4.98-4.98s2.23-4.98,4.98-4.98h20.52c2.75,0,4.98,2.23,4.98,4.98s-2.23,4.98-4.98,4.98h-20.52Z"/>
        <path class="cls-5" d="M1104.75,257.11c.91,0,1.76,.35,2.41,1s1,1.5,1,2.41c0,1.88-1.53,3.4-3.4,3.4h-20.52c-1.88,0-3.4-1.53-3.4-3.4s1.53-3.4,3.4-3.4h20.52m0-3.15h-20.52c-3.62,0-6.55,2.93-6.55,6.55s2.93,6.55,6.55,6.55h20.52c3.62,0,6.55-2.93,6.55-6.55,0-3.62-2.93-6.55-6.55-6.55h0Z"/>
      </g>
      <g>
        <path class="cls-1" d="M1125.39,289.46c-2.75,0-4.98-2.23-4.98-4.98s2.23-4.98,4.98-4.98h20.52c2.75,0,4.98,2.23,4.98,4.98s-2.23,4.98-4.98,4.98h-20.52Z"/>
        <path class="cls-5" d="M1145.92,281.08c1.88,0,3.4,1.53,3.4,3.4s-1.53,3.4-3.4,3.4h-20.52c-1.88,0-3.4-1.53-3.4-3.4s1.53-3.4,3.4-3.4h20.52m0-3.15h-20.52c-3.62,0-6.55,2.93-6.55,6.55s2.93,6.55,6.55,6.55h20.52c3.62,0,6.55-2.93,6.55-6.55s-2.93-6.55-6.55-6.55h0Z"/>
      </g>
      <g>
        <path class="cls-1" d="M1166.56,265.49c-2.75,0-4.98-2.23-4.98-4.98s2.23-4.98,4.98-4.98h20.52c2.75,0,4.98,2.23,4.98,4.98s-2.23,4.98-4.98,4.98h-20.52Z"/>
        <path class="cls-5" d="M1187.08,257.11c1.88,0,3.4,1.53,3.4,3.4s-1.53,3.4-3.4,3.4h-20.52c-1.88,0-3.4-1.53-3.4-3.4s1.53-3.4,3.4-3.4h20.52m0-3.15h-20.52c-3.62,0-6.55,2.93-6.55,6.55s2.93,6.55,6.55,6.55h20.52c3.62,0,6.55-2.93,6.55-6.55s-2.93-6.55-6.55-6.55h0Z"/>
      </g>
      <path class="cls-5" d="M988,211.03v28.04c0,1.48-1.25,2.43-2.34,1.8-1.78-1.03-3.76-1.6-5.85-1.6s-4.08,.57-5.86,1.6c-1.09,.63-2.34-.33-2.34-1.8v-28.03c0-.96,.55-1.82,1.33-1.99,2.22-.49,4.51-.74,6.86-.74s4.64,.25,6.86,.74c.77,.17,1.33,1.02,1.33,1.99Z"/>
      <path class="cls-5" d="M988,264.9v28.04c0,.97-.55,1.82-1.33,1.99-2.22,.49-4.51,.74-6.86,.74s-4.64-.25-6.86-.74c-.77-.17-1.33-1.02-1.33-1.99v-28.03c0-1.47,1.25-2.43,2.34-1.8,1.78,1.03,3.76,1.6,5.86,1.6s4.07-.57,5.85-1.6c1.09-.63,2.34,.32,2.34,1.8Z"/>
      <path class="cls-5" d="M1023.49,251.98c0,2.35-.25,4.64-.74,6.86-.17,.77-1.02,1.33-1.99,1.33h-28.04c-1.48,0-2.43-1.25-1.8-2.34,1.03-1.78,1.6-3.76,1.6-5.85s-.57-4.08-1.6-5.86c-.63-1.09,.33-2.34,1.8-2.34h28.03c.97,0,1.82,.55,1.99,1.33,.49,2.22,.74,4.51,.74,6.86Z"/>
      <path class="cls-5" d="M966.67,260.18h-28.04c-.96,0-1.82-.55-1.99-1.33-.49-2.22-.74-4.51-.74-6.86s.25-4.64,.74-6.86c.17-.77,1.02-1.33,1.99-1.33h28.03c1.47,0,2.43,1.25,1.8,2.34-1.03,1.78-1.6,3.76-1.6,5.86s.57,4.07,1.6,5.85c.63,1.09-.32,2.34-1.8,2.34Z"/>
    </g>
  </g>
</svg>