<?xml version="1.0" encoding="utf-8"?>
<!-- Generator: Adobe Illustrator 27.0.1, SVG Export Plug-In . SVG Version: 6.00 Build 0)  -->
<svg version="1.1" id="Layer_1" xmlns="http://www.w3.org/2000/svg" xmlns:xlink="http://www.w3.org/1999/xlink" x="0px" y="0px"
	 viewBox="0 0 2000 1000" style="enable-background:new 0 0 2000 1000;" xml:space="preserve">
<style type="text/css">
	.st0{fill:#FFFFFF;}
	.st1{fill:#FF931E;}
	.st2{fill:#E9E9E9;stroke:#FF931E;stroke-width:2;stroke-miterlimit:10;}
	.st3{fill:#E5A865;}
	.st4{fill:#E2B588;}
	.st5{fill:#FFFFFF;stroke:#FF931E;stroke-width:1.6978;stroke-miterlimit:10;}
	.st6{fill:#FFFFFF;stroke:#FF931E;stroke-width:3.15;stroke-miterlimit:10;}
	.st7{fill:#E9E9E9;stroke:#FF931E;stroke-width:3;stroke-miterlimit:10;}
</style>
<g>
	<g>
		<g>
			<circle class="st0" cx="635.3" cy="341.3" r="39.5"/>
			<circle class="st0" cx="785.2" cy="341.3" r="39.5"/>
			<circle class="st1" cx="635.3" cy="341.3" r="25.3"/>
			<circle class="st1" cx="785.2" cy="341.3" r="25.3"/>
			<path class="st0" d="M839.6,180.1c0.7-4.9,4.4-8.6,8.7-8.6l35.5,1c4.4,0.1,8,4.1,8.6,9.1L839.6,180.1L839.6,180.1z"/>
			<path class="st1" d="M894,181.5c-0.6-5.9-4.8-10.5-10.1-10.7l-35.2-0.9c-0.2,0-0.2,0-0.3,0c-5.2,0-9.5,4.4-10.3,10.1
				c-0.1,0.5-0.1,1-0.1,1.6l56.1,1.5C894.1,182.6,894,182,894,181.5z M848.5,173.1l35.2,1c3.1,0.1,5.7,2.5,6.7,5.9l-48.9-1.3
				c1.1-3.3,3.8-5.6,6.8-5.6H848.5z"/>
			<path class="st0" d="M528.1,181.4c0.5-5,4.2-9,8.6-9.1l35.5-1c4.3,0,8,3.7,8.7,8.6L528.1,181.4L528.1,181.4z"/>
			<path class="st1" d="M582.4,180c-0.7-5.8-5.1-10.2-10.4-10.2c-0.1,0-0.2,0-0.2,0l-35.2,0.9c-5.4,0.2-9.6,4.9-10.1,10.8
				c0,0.5-0.1,1-0.1,1.5l56.1-1.5C582.5,181,582.5,180.5,582.4,180z M536.5,173.9l35.4-0.9h0.1c3,0,5.6,2.3,6.7,5.5l-48.9,1.3
				C530.8,176.4,533.4,174,536.5,173.9z"/>
			<path class="st2" d="M961.2,393.1c0,0-0.2-2.1-0.5-5.8c-0.2-1.8-0.4-3.9-0.6-6.4c-0.2-1.9-0.4-4.1-0.7-6.4
				c-1.2-10.1-2.9-23.6-5.5-38.3c-0.3-2-0.7-4-1.1-6c-0.4-2-0.7-4-1.1-5.9c-0.3-1.6-0.6-3.1-0.9-4.7v0c-0.4-1.9-0.8-3.9-1.2-5.8
				c-0.4-1.9-0.8-3.9-1.3-5.8c-2.7-11.7-5.9-23.4-9.7-34.1c-0.6-1.8-1.2-3.5-1.9-5.2c-0.4-0.9-0.7-1.9-1.1-2.8l-1-2.2l-34-76.7
				c0,0-1.5-3.8-6.6-5.5c-0.5-0.2-1.1-0.3-1.7-0.5h0c-1-0.2-2.2-0.4-3.5-0.4l-46.9-1c0,0-0.8,0-2.2,0.1c-0.5,0-1,0.1-1.5,0.2
				c-3.6,0.6-9.1,2.3-14,7.1c0,0-7.3,7.6-21.2,2.8c0,0-8.7-3.8-15.9-4.3H633.3c-7.2,0.6-15.9,4.3-15.9,4.3
				c-13.9,4.8-21.2-2.8-21.2-2.8c-4.8-4.7-10.2-6.4-13.8-7.1c-0.6-0.1-1.1-0.2-1.6-0.2c-1.5-0.2-2.4-0.1-2.4-0.1l-46.9,1
				c-1.3,0-2.4,0.1-3.4,0.3c-0.6,0.1-1.1,0.2-1.6,0.4c-5.3,1.7-6.8,5.5-6.8,5.5l-35,78.9c-0.3,0.8-0.6,1.5-0.9,2.3
				c-0.6,1.7-1.3,3.4-1.9,5.2c-0.6,1.7-1.2,3.5-1.8,5.3c-3.6,11-6.7,22.9-9.3,34.6c-0.4,1.9-0.8,3.9-1.2,5.8c-0.4,2-0.8,3.9-1.2,5.9
				c-0.3,1.6-0.6,3.2-0.9,4.7c-0.4,2-0.7,4-1.1,6c-0.4,2-0.7,4.1-1,6c-2.6,15.5-4.2,29.3-5.2,38.6c-0.3,2.5-0.5,4.6-0.7,6.4
				c-0.4,4-0.5,6.3-0.5,6.3v0.2c-0.5,49,17.5,75.9,17.5,75.9s16.4,23.5,49.5,17.1c6.6-1.3,12.5-4.3,17.6-8.4c1.3-1,2.6-2.1,3.8-3.3
				c1.2-1.1,2.4-2.3,3.5-3.6c7.8-8.7,13.4-19.2,16.9-27c0.8-1.8,1.5-3.5,2.1-5c0.9-2.3,1.5-4.1,1.9-5.2c0.2-0.7,0.4-1.1,0.4-1.1
				l1-3.1l1.7-5.4l1.7-5.3l10.6-33.2l1.7-5.4l0.1-0.4l0.1-0.2c0.5-1.5,1.3-2.8,2.3-3.9c1.8-1.9,4.4-3.1,7.3-3.1
				c2.4,0,4.6,0.8,6.3,2.2c0.1,0.1,0.2,0.2,0.3,0.3c8,7,18.4,11.2,29.9,11.2c13.8,0,26.2-6.2,34.5-16h80.7c8.3,9.8,20.7,16,34.5,16
				c11.4,0,21.9-4.2,29.9-11.2l0.3-0.3c1.7-1.4,3.9-2.2,6.3-2.2c1.2,0,2.3,0.2,3.4,0.6c1.7,0.6,3.1,1.6,4.2,2.9c0.9,1,1.6,2.2,2,3.6
				l0.1,0.2l0.3,0.9l10.6,33.2v0l1.7,5.3l1.7,5.3v0l1.4,4.3l1.2,3.7c0,0,0.2,0.6,0.5,1.6c0.4,1.2,1,3,1.9,5.2c2.8,7,8,18.2,15.8,28
				c1,1.3,2.1,2.6,3.3,3.8c1.1,1.2,2.3,2.4,3.5,3.5c5.9,5.5,12.9,9.8,21,11.3c33.1,6.3,49.5-17.1,49.5-17.1S961.9,442.2,961.2,393.1
				z M778.6,302.3c0.2,0,0.3,0,0.5-0.1c0.2,0,0.4-0.1,0.6-0.1c0.3,0,0.6-0.1,0.9-0.1c0.2,0,0.4,0,0.6-0.1c0.3,0,0.5,0,0.8-0.1
				c0.3,0,0.6,0,0.9-0.1c0,0,0.1,0,0.1,0c0.7,0,1.4,0,2.1,0c0.2,0,0.5,0,0.7,0c0.6,0,1.2,0,1.9,0.1c0,0,0,0,0,0h0c0,0,0.1,0,0.1,0
				c0.1,0,0.2,0,0.3,0c0.3,0,0.5,0,0.8,0.1c0.2,0,0.5,0,0.7,0.1c0.2,0,0.4,0,0.6,0.1c0.4,0.1,0.9,0.1,1.3,0.2c0.2,0,0.3,0.1,0.5,0.1
				c0.1,0,0.2,0,0.3,0.1c0,0,0,0,0,0c0,0,0,0,0,0c0,0,0.1,0,0.1,0c0.5,0.1,1,0.2,1.5,0.3c0.1,0,0.2,0,0.2,0.1c0.2,0,0.5,0.1,0.7,0.2
				c0,0,0,0,0,0c0.1,0,0.3,0.1,0.4,0.1c0,0,0.1,0,0.1,0c0.1,0,0.1,0,0.2,0.1c0,0,0,0,0,0c0.5,0.1,0.9,0.3,1.4,0.4
				c0.2,0.1,0.3,0.1,0.5,0.2c0.4,0.1,0.8,0.3,1.2,0.4c0.9,0.4,1.8,0.7,2.8,1.2c13.5,6.3,22.8,19.9,22.8,35.8
				c0,21.8-17.7,39.4-39.4,39.4s-39.3-17.6-39.3-39.4c0-17.1,10.9-31.7,26.1-37.1c0.5-0.2,1-0.3,1.5-0.5c0,0,0.1,0,0.1,0
				c0.3-0.1,0.6-0.2,0.9-0.3c0,0,0.1,0,0.1,0c0.2,0,0.4-0.1,0.5-0.1c0.2,0,0.3-0.1,0.5-0.1c0,0,0.1,0,0.2,0c0.2-0.1,0.5-0.1,0.7-0.2
				c0.1,0,0.2,0,0.2,0c0.5-0.1,0.9-0.2,1.4-0.3C778.3,302.4,778.5,302.3,778.6,302.3z M605.4,315.4c0.4-0.5,0.8-0.9,1.2-1.4v0
				c0.1-0.2,0.3-0.3,0.4-0.5c0.2-0.2,0.3-0.3,0.5-0.5l0.4-0.4c0,0,0,0,0,0c0.2-0.2,0.3-0.3,0.5-0.5c0.2-0.2,0.3-0.3,0.5-0.5
				c0,0,0.1,0,0.1-0.1c0.1-0.1,0.2-0.2,0.3-0.3c0.2-0.1,0.3-0.3,0.5-0.4c0.2-0.2,0.4-0.4,0.6-0.5c0.1-0.1,0.2-0.2,0.3-0.3
				c0.1-0.1,0.2-0.2,0.3-0.2c0.1-0.1,0.3-0.2,0.4-0.3c0.1-0.1,0.2-0.1,0.3-0.2c0.1,0,0.1-0.1,0.2-0.2c0,0,0,0,0,0
				c0.1,0,0.1-0.1,0.2-0.1c0,0,0.1,0,0.1-0.1c0.3-0.2,0.5-0.4,0.8-0.6c0.2-0.1,0.4-0.3,0.6-0.4l0.6-0.4c0.4-0.2,0.8-0.5,1.2-0.7
				c0,0,0,0,0,0c0,0,0,0,0,0c0.3-0.2,0.5-0.3,0.8-0.4c0.2-0.1,0.5-0.3,0.7-0.4c0.2-0.1,0.4-0.2,0.6-0.3c0.4-0.2,0.8-0.4,1.2-0.6
				c0,0,0,0,0,0c0.2-0.1,0.3-0.1,0.5-0.2c0.1-0.1,0.3-0.1,0.4-0.2c0.1-0.1,0.3-0.1,0.4-0.2c0.2-0.1,0.3-0.1,0.4-0.2
				c0.3-0.1,0.5-0.2,0.8-0.3c0.3-0.1,0.7-0.2,1-0.3c0.3-0.1,0.6-0.2,1-0.3c0.2-0.1,0.5-0.2,0.7-0.2c0.2-0.1,0.5-0.1,0.8-0.2
				c0,0,0.1,0,0.1,0c0,0,0,0,0,0h0c0.4-0.1,0.8-0.2,1.2-0.3c0.1,0,0.1,0,0.2,0c0.2-0.1,0.4-0.1,0.5-0.1c0.2,0,0.3-0.1,0.5-0.1
				c0.3,0,0.5-0.1,0.8-0.1c0,0,0.1,0,0.1,0c0,0,0,0,0,0c0,0,0,0,0.1,0c0.1,0,0.2,0,0.3,0c0.2,0,0.3,0,0.5-0.1c0.2,0,0.3-0.1,0.5-0.1
				c0.7-0.1,1.4-0.2,2.1-0.2c0.3,0,0.6,0,0.9-0.1c0.1,0,0.2,0,0.3,0c0.3,0,0.6,0,1,0h0c0.2,0,0.4,0,0.7,0c0.2,0,0.3,0,0.5,0
				s0.3,0,0.5,0c0.2,0,0.4,0,0.6,0h0c0.3,0,0.6,0,1,0c0.1,0,0.2,0,0.3,0c0.3,0,0.6,0,0.9,0.1c0.7,0.1,1.4,0.1,2.2,0.2
				c0.2,0,0.3,0,0.5,0.1c0.2,0,0.3,0,0.5,0.1c0.2,0,0.3,0.1,0.5,0.1c0.3,0,0.5,0.1,0.8,0.1c0.2,0,0.4,0.1,0.6,0.1
				c0.7,0.2,1.4,0.3,2.2,0.5c0.1,0,0.3,0.1,0.4,0.1c0.3,0.1,0.5,0.1,0.8,0.2c0,0,0,0,0,0c0.3,0.1,0.6,0.2,0.9,0.3
				c0.1,0,0.3,0.1,0.4,0.1c0.1,0,0.1,0,0.1,0c0.1,0,0.2,0.1,0.4,0.1c0.2,0,0.3,0.1,0.5,0.2c0.6,0.2,1.2,0.5,1.8,0.7
				c0.2,0.1,0.5,0.2,0.8,0.3c0.2,0.1,0.5,0.2,0.7,0.3s0.5,0.2,0.7,0.3c0.3,0.1,0.5,0.3,0.8,0.4c0,0,0,0,0,0c0.4,0.2,0.9,0.5,1.3,0.8
				c0.1,0.1,0.2,0.1,0.4,0.2c0.1,0.1,0.2,0.1,0.3,0.2c0.4,0.3,0.9,0.5,1.3,0.8c0.3,0.2,0.5,0.4,0.8,0.6c0,0,0.1,0.1,0.1,0.1
				c0,0,0.1,0.1,0.1,0.1c0,0,0,0,0,0c0.1,0.1,0.1,0.1,0.2,0.2c0.1,0.1,0.2,0.1,0.3,0.2c0.1,0.1,0.3,0.2,0.4,0.3
				c0.1,0.1,0.2,0.2,0.3,0.2c0.1,0.1,0.2,0.2,0.3,0.3c0.2,0.2,0.4,0.3,0.6,0.5c0.2,0.1,0.3,0.3,0.5,0.4c0.1,0.1,0.2,0.2,0.3,0.3
				c0,0,0.1,0,0.1,0.1c0.2,0.2,0.3,0.3,0.5,0.5c0.2,0.2,0.3,0.3,0.5,0.5c0,0,0,0,0,0c0.2,0.1,0.3,0.3,0.4,0.4
				c0.2,0.2,0.3,0.3,0.5,0.5c0.2,0.2,0.3,0.3,0.4,0.5c0.4,0.4,0.8,0.9,1.2,1.4c0,0,0,0,0.1,0c0.4,0.4,0.7,0.9,1.1,1.3
				c0.3,0.5,0.7,0.9,1,1.4c4.7,6.5,7.4,14.5,7.4,23.1c0,21.8-17.6,39.4-39.4,39.4c-21.7,0-39.4-17.6-39.4-39.4
				c0-8.6,2.8-16.6,7.4-23.1c0.3-0.5,0.7-0.9,1-1.4C604.6,316.3,605,315.9,605.4,315.4L605.4,315.4z"/>
			<circle class="st0" cx="710.2" cy="220.6" r="18.8"/>
			<path class="st1" d="M710.1,200.2c-11.3,0-20.4,9.1-20.4,20.4c0,11.3,9.1,20.4,20.4,20.4s20.4-9.1,20.4-20.4
				C730.5,209.3,721.4,200.2,710.1,200.2z M710.1,238c-9.5,0-17.3-7.8-17.3-17.3s7.8-17.3,17.3-17.3s17.3,7.8,17.3,17.3
				S719.6,238,710.1,238z"/>
			<path class="st0" d="M554.4,298.5c-26.2,0-47.6-21.3-47.6-47.6s21.3-47.6,47.6-47.6c26.3,0,47.6,21.4,47.6,47.7
				C602,277.3,580.6,298.5,554.4,298.5z"/>
			<path class="st1" d="M554.3,201.8c-27.1,0-49.1,22-49.1,49.1c0,27.1,22,49.1,49.1,49.1c27.1,0,49.1-22,49.1-49.1
				C603.4,223.8,581.4,201.8,554.3,201.8z M554.3,297c-25.4,0-46-20.6-46-46s20.6-46,46-46c25.4,0,46,20.6,46,46
				S579.7,297,554.3,297z"/>
			<path class="st0" d="M864.4,298.5c-26.2,0-47.6-21.3-47.6-47.6s21.3-47.6,47.6-47.6S912,224.7,912,251
				C912,277.3,890.6,298.5,864.4,298.5z"/>
			<path class="st1" d="M864.3,201.8c-27.1,0-49.2,22-49.2,49.1c0,27.1,22,49.1,49.2,49.1s49.2-22,49.2-49.1
				C913.5,223.8,891.4,201.8,864.3,201.8z M864.3,297c-25.4,0-46-20.6-46-46s20.6-46,46-46c25.4,0,46,20.6,46,46
				S889.7,297,864.3,297z"/>
			<circle class="st1" cx="864.4" cy="223.1" r="12.3"/>
			<circle class="st1" cx="864.4" cy="278.8" r="12.3"/>
			<circle class="st1" cx="836.5" cy="251" r="12.3"/>
			<circle class="st1" cx="892.2" cy="251" r="12.3"/>
			<path class="st0" d="M658.8,264.5c-2.7,0-5-2.2-5-5s2.2-5,5-5h20.5c2.7,0,5,2.2,5,5s-2.2,5-5,5H658.8z"/>
			<path class="st1" d="M679.2,252.9h-20.5c-3.6,0-6.5,2.9-6.5,6.5c0,3.6,2.9,6.5,6.5,6.5h20.5c3.6,0,6.6-2.9,6.6-6.5
				C685.8,255.8,682.9,252.9,679.2,252.9z M655.4,259.5c0-1.9,1.5-3.4,3.4-3.4h20.5c1.9,0,3.4,1.5,3.4,3.4s-1.5,3.4-3.4,3.4h-20.5
				c-0.9,0-1.8-0.4-2.4-1C655.8,261.3,655.4,260.4,655.4,259.5z"/>
			<path class="st0" d="M700,288.5c-2.8,0-5-2.2-5-5s2.2-5,5-5h20.5c2.8,0,5,2.2,5,5s-2.2,5-5,5H700z"/>
			<path class="st1" d="M720.4,276.9h-20.5c-3.6,0-6.5,2.9-6.5,6.5c0,3.6,2.9,6.5,6.5,6.5h20.5c3.6,0,6.5-2.9,6.5-6.5
				C726.9,279.8,724,276.9,720.4,276.9z M720.4,286.9h-20.5c-1.9,0-3.4-1.5-3.4-3.4s1.5-3.4,3.4-3.4h20.5c1.9,0,3.4,1.5,3.4,3.4
				S722.3,286.9,720.4,286.9z"/>
			<path class="st0" d="M741.2,264.5c-2.8,0-5-2.2-5-5s2.2-5,5-5h20.5c2.8,0,5,2.2,5,5s-2.2,5-5,5H741.2z"/>
			<path class="st1" d="M761.6,253h-20.5c-3.6,0-6.5,2.9-6.5,6.5s2.9,6.5,6.5,6.5h20.5c3.6,0,6.5-2.9,6.5-6.5S765.2,253,761.6,253z
				 M761.6,262.9h-20.5c-1.9,0-3.4-1.5-3.4-3.4s1.5-3.4,3.4-3.4h20.5c1.9,0,3.4,1.5,3.4,3.4S763.5,262.9,761.6,262.9z"/>
			<path class="st1" d="M562.6,210v28c0,1.5-1.2,2.4-2.3,1.8c-1.8-1-3.8-1.6-5.9-1.6c-2.1,0-4.1,0.6-5.9,1.6
				c-1.1,0.6-2.3-0.3-2.3-1.8v-28c0-1,0.5-1.8,1.3-2c2.2-0.5,4.5-0.7,6.9-0.7c2.4,0,4.6,0.2,6.9,0.7
				C562,208.2,562.6,209.1,562.6,210L562.6,210z"/>
			<path class="st1" d="M562.6,263.9v28c0,1-0.5,1.8-1.3,2c-2.2,0.5-4.5,0.7-6.9,0.7c-2.4,0-4.6-0.2-6.9-0.7c-0.8-0.2-1.3-1-1.3-2
				v-28c0-1.5,1.2-2.4,2.3-1.8c1.8,1,3.8,1.6,5.9,1.6c2.1,0,4.1-0.6,5.9-1.6C561.4,261.5,562.6,262.4,562.6,263.9L562.6,263.9z"/>
			<path class="st1" d="M598.1,251c0,2.4-0.2,4.6-0.7,6.9c-0.2,0.8-1,1.3-2,1.3h-28c-1.5,0-2.4-1.2-1.8-2.3c1-1.8,1.6-3.8,1.6-5.9
				s-0.6-4.1-1.6-5.9c-0.6-1.1,0.3-2.3,1.8-2.3h28c1,0,1.8,0.6,2,1.3C597.8,246.3,598.1,248.6,598.1,251L598.1,251z"/>
			<path class="st1" d="M541.3,259.2h-28c-1,0-1.8-0.5-2-1.3c-0.5-2.2-0.7-4.5-0.7-6.9s0.2-4.6,0.7-6.9c0.2-0.8,1-1.3,2-1.3h28
				c1.5,0,2.4,1.2,1.8,2.3c-1,1.8-1.6,3.8-1.6,5.9s0.6,4.1,1.6,5.9C543.7,257.9,542.7,259.2,541.3,259.2L541.3,259.2z"/>
		</g>
		<path class="st3" d="M571.8,433.9c-0.3,1.1-1,2.9-1.9,5.2c-0.6,1.5-1.3,3.1-2.1,5c-3.4,7.8-9,18.3-16.9,27
			c-1.1,1.2-2.3,2.4-3.5,3.6c-1.2,1.2-2.5,2.3-3.8,3.3L459,393.3v-0.2c0,0,0.2-2.3,0.5-6.3c0.2-1.8,0.4-4,0.7-6.4
			c1-9.4,2.7-23.1,5.2-38.6c0.3-2,0.7-4,1-6c0.3-2,0.7-4,1.1-6L571.8,433.9z"/>
		<path class="st4" d="M569.9,439.1c-0.6,1.5-1.3,3.1-2.1,5c-3.4,7.8-9,18.3-16.9,27c-1.1,1.2-2.3,2.4-3.5,3.6l-87.9-87.8
			c0.2-1.8,0.4-4,0.7-6.4c1-9.4,2.7-23.1,5.2-38.6c0.3-2,0.7-4,1-6L569.9,439.1z"/>
		<path class="st5" d="M567.8,444c-3.4,7.8-9,18.3-16.9,27l-90.7-90.7c1-9.4,2.7-23.1,5.2-38.6L567.8,444z"/>
		<path class="st3" d="M591.5,375.8c-1,1.1-1.9,2.4-2.3,3.9L589,380l-0.1,0.4l-1.7,5.4l-10.6,33.2l-1.7,5.3l-1.7,5.4L468.4,324.9
			c0.4-2,0.8-3.9,1.2-5.9c0.4-1.9,0.8-3.9,1.2-5.8c2.6-11.7,5.6-23.5,9.3-34.6c0.6-1.8,1.2-3.5,1.8-5.3c0.6-1.8,1.3-3.5,1.9-5.2
			L591.5,375.8z"/>
		<path class="st4" d="M588.9,380.4l-1.7,5.4l-10.6,33.2l-1.7,5.3L469.6,319c0.4-1.9,0.8-3.9,1.2-5.8c2.6-11.7,5.6-23.5,9.3-34.6
			c0.6-1.8,1.2-3.5,1.8-5.3L588.9,380.4z"/>
		<path class="st5" d="M587.2,385.7l-10.6,33.2L470.9,313.2c2.6-11.7,5.6-23.5,9.3-34.6L587.2,385.7z"/>
		<path class="st3" d="M960.7,387.3l-87.6,87.6c-1.2-1.1-2.4-2.3-3.5-3.5c-1.1-1.2-2.2-2.5-3.3-3.8c-7.8-9.8-13.1-21-15.8-28
			c-0.9-2.2-1.5-4-1.9-5.2c-0.4-1-0.5-1.6-0.5-1.6l-1.2-3.7l104.9-104.8c0.4,2,0.8,4,1.1,5.9c0.4,2,0.7,4,1.1,6
			c2.6,14.7,4.3,28.2,5.5,38.3c0.3,2.3,0.5,4.4,0.7,6.4C960.4,383.4,960.6,385.5,960.7,387.3z"/>
		<path class="st4" d="M960.1,380.9l-90.5,90.5c-1.1-1.2-2.2-2.5-3.3-3.8c-7.8-9.8-13.1-21-15.8-28c-0.9-2.2-1.5-4-1.9-5.2
			l104.2-104.2c0.4,2,0.7,4,1.1,6c2.6,14.7,4.3,28.2,5.5,38.3C959.7,376.8,959.9,379,960.1,380.9z"/>
		<path class="st5" d="M959.4,374.5l-93.1,93.1c-7.8-9.8-13.1-21-15.8-28l103.4-103.4C956.5,350.9,958.2,364.4,959.4,374.5z"/>
		<path class="st3" d="M950.8,319.5L950.8,319.5L845.5,424.8l-1.7-5.3l-1.7-5.3v0l-10.6-33.2l-0.3-0.9l-0.1-0.2
			c-0.4-1.3-1.1-2.5-2-3.6c-1.1-1.3-2.6-2.3-4.2-2.9l109.7-109.7l1,2.2c0.4,0.9,0.7,1.8,1.1,2.8c0.7,1.7,1.3,3.4,1.9,5.2
			c3.8,10.8,7,22.4,9.7,34.1c0.5,1.9,0.9,3.8,1.3,5.8C950,315.7,950.4,317.6,950.8,319.5z"/>
		<path class="st4" d="M949.5,313.7L843.8,419.5l-1.7-5.3v0l-10.6-33.2l-0.3-0.9l-0.1-0.2c-0.4-1.3-1.1-2.5-2-3.6l107.6-107.6
			c0.7,1.7,1.3,3.4,1.9,5.2c3.8,10.8,7,22.4,9.7,34.1C948.7,309.9,949.1,311.8,949.5,313.7z"/>
		<path class="st5" d="M948.2,307.9L842.1,414.1l-10.6-33.2l107.1-107.1C942.3,284.6,945.5,296.3,948.2,307.9z"/>
	</g>
	<g>
		<g>
			<circle class="st0" cx="1214.9" cy="341.3" r="39.5"/>
			<circle class="st0" cx="1364.8" cy="341.3" r="39.5"/>
			<circle class="st1" cx="1214.9" cy="341.3" r="25.3"/>
			<circle class="st1" cx="1364.8" cy="341.3" r="25.3"/>
			<path class="st0" d="M1419.2,180.1c0.7-4.9,4.4-8.6,8.7-8.6l35.5,1c4.4,0.1,8,4.1,8.6,9.1L1419.2,180.1L1419.2,180.1z"/>
			<path class="st1" d="M1473.7,181.5c-0.6-5.9-4.8-10.5-10.1-10.7l-35.2-0.9c-0.2,0-0.2,0-0.3,0c-5.2,0-9.5,4.4-10.3,10.1
				c-0.1,0.5-0.1,1-0.1,1.6l56.1,1.5C1473.8,182.6,1473.7,182,1473.7,181.5z M1428.2,173.1l35.2,1c3.1,0.1,5.7,2.5,6.7,5.9
				l-48.9-1.3c1.1-3.3,3.8-5.6,6.8-5.6H1428.2z"/>
			<path class="st0" d="M1107.7,181.4c0.5-5,4.2-9,8.6-9.1l35.5-1c4.3,0,8,3.7,8.7,8.6L1107.7,181.4L1107.7,181.4z"/>
			<path class="st1" d="M1162.1,180c-0.7-5.8-5.1-10.2-10.4-10.2c-0.1,0-0.2,0-0.2,0l-35.2,0.9c-5.4,0.2-9.6,4.9-10.1,10.8
				c0,0.5-0.1,1-0.1,1.5l56.1-1.5C1162.2,181,1162.2,180.5,1162.1,180z M1116.2,173.9l35.4-0.9h0.1c3,0,5.6,2.3,6.7,5.5l-48.9,1.3
				C1110.5,176.4,1113.1,174,1116.2,173.9z"/>
			<path class="st2" d="M1540.9,393.1c0,0-0.2-2.1-0.5-5.8c-0.2-1.8-0.4-3.9-0.6-6.4c-0.2-1.9-0.4-4.1-0.7-6.4
				c-1.2-10.1-2.9-23.6-5.5-38.3c-0.3-2-0.7-4-1.1-6c-0.4-2-0.7-4-1.1-5.9c-0.3-1.6-0.6-3.1-0.9-4.7v0c-0.4-1.9-0.8-3.9-1.2-5.8
				c-0.4-1.9-0.8-3.9-1.3-5.8c-2.7-11.7-5.9-23.4-9.7-34.1c-0.6-1.8-1.2-3.5-1.9-5.2c-0.4-0.9-0.7-1.9-1.1-2.8l-1-2.2l-34-76.7
				c0,0-1.5-3.8-6.6-5.5c-0.5-0.2-1.1-0.3-1.7-0.5h0c-1-0.2-2.2-0.4-3.5-0.4l-46.9-1c0,0-0.8,0-2.2,0.1c-0.5,0-1,0.1-1.5,0.2
				c-3.6,0.6-9.1,2.3-14,7.1c0,0-7.3,7.6-21.2,2.8c0,0-8.7-3.8-15.9-4.3H1213c-7.2,0.6-15.9,4.3-15.9,4.3
				c-13.9,4.8-21.2-2.8-21.2-2.8c-4.8-4.7-10.2-6.4-13.8-7.1c-0.6-0.1-1.1-0.2-1.6-0.2c-1.5-0.2-2.4-0.1-2.4-0.1l-46.9,1
				c-1.3,0-2.4,0.1-3.4,0.3c-0.6,0.1-1.1,0.2-1.6,0.4c-5.3,1.7-6.8,5.5-6.8,5.5l-35,78.9c-0.3,0.8-0.6,1.5-0.9,2.3
				c-0.6,1.7-1.3,3.4-1.9,5.2c-0.6,1.7-1.2,3.5-1.8,5.3c-3.6,11-6.7,22.9-9.3,34.6c-0.4,1.9-0.8,3.9-1.2,5.8c-0.4,2-0.8,3.9-1.2,5.9
				c-0.3,1.6-0.6,3.2-0.9,4.7c-0.4,2-0.7,4-1.1,6c-0.4,2-0.7,4.1-1,6c-2.6,15.5-4.2,29.3-5.2,38.6c-0.3,2.5-0.5,4.6-0.7,6.4
				c-0.4,4-0.5,6.3-0.5,6.3v0.2c-0.5,49,17.5,75.9,17.5,75.9s16.4,23.5,49.5,17.1c6.6-1.3,12.5-4.3,17.6-8.4c1.3-1,2.6-2.1,3.8-3.3
				c1.2-1.1,2.4-2.3,3.5-3.6c7.8-8.7,13.4-19.2,16.9-27c0.8-1.8,1.5-3.5,2.1-5c0.9-2.3,1.5-4.1,1.9-5.2c0.2-0.7,0.4-1.1,0.4-1.1
				l1-3.1l1.7-5.4l1.7-5.3l10.6-33.2l1.7-5.4l0.1-0.4l0.1-0.2c0.5-1.5,1.3-2.8,2.3-3.9c1.8-1.9,4.4-3.1,7.3-3.1
				c2.4,0,4.6,0.8,6.3,2.2c0.1,0.1,0.2,0.2,0.3,0.3c8,7,18.4,11.2,29.9,11.2c13.8,0,26.2-6.2,34.5-16h80.7c8.3,9.8,20.7,16,34.5,16
				c11.4,0,21.9-4.2,29.9-11.2l0.3-0.3c1.7-1.4,3.9-2.2,6.3-2.2c1.2,0,2.3,0.2,3.4,0.6c1.7,0.6,3.1,1.6,4.2,2.9c0.9,1,1.6,2.2,2,3.6
				l0.1,0.2l0.3,0.9l10.6,33.2v0l1.7,5.3l1.7,5.3v0l1.4,4.3l1.2,3.7c0,0,0.2,0.6,0.5,1.6c0.4,1.2,1,3,1.9,5.2c2.8,7,8,18.2,15.8,28
				c1,1.3,2.1,2.6,3.3,3.8c1.1,1.2,2.3,2.4,3.5,3.5c5.9,5.5,12.9,9.8,21,11.3c33.1,6.3,49.5-17.1,49.5-17.1
				S1541.6,442.2,1540.9,393.1z M1358.3,302.3c0.2,0,0.3,0,0.5-0.1c0.2,0,0.4-0.1,0.6-0.1c0.3,0,0.6-0.1,0.9-0.1
				c0.2,0,0.4,0,0.6-0.1c0.3,0,0.5,0,0.8-0.1c0.3,0,0.6,0,0.9-0.1c0,0,0.1,0,0.1,0c0.7,0,1.4,0,2.1,0c0.2,0,0.5,0,0.7,0
				c0.6,0,1.2,0,1.9,0.1c0,0,0,0,0,0h0c0,0,0.1,0,0.1,0c0.1,0,0.2,0,0.3,0c0.3,0,0.5,0,0.8,0.1c0.2,0,0.5,0,0.7,0.1
				c0.2,0,0.4,0,0.6,0.1c0.4,0.1,0.9,0.1,1.3,0.2c0.2,0,0.3,0.1,0.5,0.1c0.1,0,0.2,0,0.3,0.1c0,0,0,0,0,0c0,0,0,0,0,0
				c0,0,0.1,0,0.1,0c0.5,0.1,1,0.2,1.5,0.3c0.1,0,0.2,0,0.2,0.1c0.2,0,0.5,0.1,0.7,0.2c0,0,0,0,0,0c0.1,0,0.3,0.1,0.4,0.1
				c0,0,0.1,0,0.1,0c0.1,0,0.1,0,0.2,0.1c0,0,0,0,0,0c0.5,0.1,0.9,0.3,1.4,0.4c0.2,0.1,0.3,0.1,0.5,0.2c0.4,0.1,0.8,0.3,1.2,0.4
				c0.9,0.4,1.8,0.7,2.8,1.2c13.5,6.3,22.8,19.9,22.8,35.8c0,21.8-17.7,39.4-39.4,39.4s-39.3-17.6-39.3-39.4
				c0-17.1,10.9-31.7,26.1-37.1c0.5-0.2,1-0.3,1.5-0.5c0,0,0.1,0,0.1,0c0.3-0.1,0.6-0.2,0.9-0.3c0,0,0.1,0,0.1,0
				c0.2,0,0.4-0.1,0.5-0.1c0.2,0,0.3-0.1,0.5-0.1c0,0,0.1,0,0.2,0c0.2-0.1,0.5-0.1,0.7-0.2c0.1,0,0.2,0,0.2,0
				c0.5-0.1,0.9-0.2,1.4-0.3C1358,302.4,1358.2,302.3,1358.3,302.3z M1185.1,315.4c0.4-0.5,0.8-0.9,1.2-1.4v0
				c0.1-0.2,0.3-0.3,0.4-0.5c0.2-0.2,0.3-0.3,0.5-0.5l0.4-0.4c0,0,0,0,0,0c0.2-0.2,0.3-0.3,0.5-0.5c0.2-0.2,0.3-0.3,0.5-0.5
				c0,0,0.1,0,0.1-0.1c0.1-0.1,0.2-0.2,0.3-0.3c0.2-0.1,0.3-0.3,0.5-0.4c0.2-0.2,0.4-0.4,0.6-0.5c0.1-0.1,0.2-0.2,0.3-0.3
				c0.1-0.1,0.2-0.2,0.3-0.2c0.1-0.1,0.3-0.2,0.4-0.3c0.1-0.1,0.2-0.1,0.3-0.2c0.1,0,0.1-0.1,0.2-0.2c0,0,0,0,0,0
				c0.1,0,0.1-0.1,0.2-0.1c0,0,0.1,0,0.1-0.1c0.3-0.2,0.5-0.4,0.8-0.6c0.2-0.1,0.4-0.3,0.6-0.4l0.6-0.4c0.4-0.2,0.8-0.5,1.2-0.7
				c0,0,0,0,0,0c0,0,0,0,0,0c0.3-0.2,0.5-0.3,0.8-0.4c0.2-0.1,0.5-0.3,0.7-0.4c0.2-0.1,0.4-0.2,0.6-0.3c0.4-0.2,0.8-0.4,1.2-0.6
				c0,0,0,0,0,0c0.2-0.1,0.3-0.1,0.5-0.2c0.1-0.1,0.3-0.1,0.4-0.2c0.1-0.1,0.3-0.1,0.4-0.2c0.2-0.1,0.3-0.1,0.4-0.2
				c0.3-0.1,0.5-0.2,0.8-0.3c0.3-0.1,0.7-0.2,1-0.3c0.3-0.1,0.6-0.2,1-0.3c0.2-0.1,0.5-0.2,0.7-0.2c0.2-0.1,0.5-0.1,0.8-0.2
				c0,0,0.1,0,0.1,0c0,0,0,0,0,0h0c0.4-0.1,0.8-0.2,1.2-0.3c0.1,0,0.1,0,0.2,0c0.2-0.1,0.4-0.1,0.5-0.1c0.2,0,0.3-0.1,0.5-0.1
				c0.3,0,0.5-0.1,0.8-0.1c0,0,0.1,0,0.1,0c0,0,0,0,0,0c0,0,0,0,0.1,0c0.1,0,0.2,0,0.3,0c0.2,0,0.3,0,0.5-0.1c0.2,0,0.3-0.1,0.5-0.1
				c0.7-0.1,1.4-0.2,2.1-0.2c0.3,0,0.6,0,0.9-0.1c0.1,0,0.2,0,0.3,0c0.3,0,0.6,0,1,0h0c0.2,0,0.4,0,0.7,0c0.2,0,0.3,0,0.5,0
				s0.3,0,0.5,0c0.2,0,0.4,0,0.6,0h0c0.3,0,0.6,0,1,0c0.1,0,0.2,0,0.3,0c0.3,0,0.6,0,0.9,0.1c0.7,0.1,1.4,0.1,2.2,0.2
				c0.2,0,0.3,0,0.5,0.1c0.2,0,0.3,0,0.5,0.1c0.2,0,0.3,0.1,0.5,0.1c0.3,0,0.5,0.1,0.8,0.1c0.2,0,0.4,0.1,0.6,0.1
				c0.7,0.2,1.4,0.3,2.2,0.5c0.1,0,0.3,0.1,0.4,0.1c0.3,0.1,0.5,0.1,0.8,0.2c0,0,0,0,0,0c0.3,0.1,0.6,0.2,0.9,0.3
				c0.1,0,0.3,0.1,0.4,0.1c0.1,0,0.1,0,0.1,0c0.1,0,0.2,0.1,0.4,0.1c0.2,0,0.3,0.1,0.5,0.2c0.6,0.2,1.2,0.5,1.8,0.7
				c0.2,0.1,0.5,0.2,0.8,0.3c0.2,0.1,0.5,0.2,0.7,0.3s0.5,0.2,0.7,0.3c0.3,0.1,0.5,0.3,0.8,0.4c0,0,0,0,0,0c0.4,0.2,0.9,0.5,1.3,0.8
				c0.1,0.1,0.2,0.1,0.4,0.2c0.1,0.1,0.2,0.1,0.3,0.2c0.4,0.3,0.9,0.5,1.3,0.8c0.3,0.2,0.5,0.4,0.8,0.6c0,0,0.1,0.1,0.1,0.1
				c0,0,0.1,0.1,0.1,0.1c0,0,0,0,0,0c0.1,0.1,0.1,0.1,0.2,0.2c0.1,0.1,0.2,0.1,0.3,0.2c0.1,0.1,0.3,0.2,0.4,0.3
				c0.1,0.1,0.2,0.2,0.3,0.2c0.1,0.1,0.2,0.2,0.3,0.3c0.2,0.2,0.4,0.3,0.6,0.5c0.2,0.1,0.3,0.3,0.5,0.4c0.1,0.1,0.2,0.2,0.3,0.3
				c0,0,0.1,0,0.1,0.1c0.2,0.2,0.3,0.3,0.5,0.5c0.2,0.2,0.3,0.3,0.5,0.5c0,0,0,0,0,0c0.2,0.1,0.3,0.3,0.4,0.4
				c0.2,0.2,0.3,0.3,0.5,0.5c0.2,0.2,0.3,0.3,0.4,0.5c0.4,0.4,0.8,0.9,1.2,1.4c0,0,0,0,0.1,0c0.4,0.4,0.7,0.9,1.1,1.3
				c0.3,0.5,0.7,0.9,1,1.4c4.7,6.5,7.4,14.5,7.4,23.1c0,21.8-17.6,39.4-39.4,39.4c-21.7,0-39.4-17.6-39.4-39.4
				c0-8.6,2.8-16.6,7.4-23.1c0.3-0.5,0.7-0.9,1-1.4C1184.3,316.3,1184.7,315.9,1185.1,315.4L1185.1,315.4z"/>
			<circle class="st0" cx="1289.8" cy="220.6" r="18.8"/>
			<path class="st1" d="M1289.8,200.2c-11.3,0-20.4,9.1-20.4,20.4c0,11.3,9.1,20.4,20.4,20.4s20.4-9.1,20.4-20.4
				C1310.2,209.3,1301.1,200.2,1289.8,200.2z M1289.8,238c-9.5,0-17.3-7.8-17.3-17.3s7.8-17.3,17.3-17.3s17.3,7.8,17.3,17.3
				S1299.3,238,1289.8,238z"/>
			<path class="st0" d="M1134,298.5c-26.2,0-47.6-21.3-47.6-47.6s21.3-47.6,47.6-47.6c26.3,0,47.6,21.4,47.6,47.7
				C1181.6,277.3,1160.2,298.5,1134,298.5z"/>
			<path class="st1" d="M1134,201.8c-27.1,0-49.1,22-49.1,49.1c0,27.1,22,49.1,49.1,49.1c27.1,0,49.1-22,49.1-49.1
				C1183.1,223.8,1161.1,201.8,1134,201.8z M1134,297c-25.4,0-46-20.6-46-46s20.6-46,46-46c25.4,0,46,20.6,46,46
				S1159.4,297,1134,297z"/>
			<path class="st0" d="M1444,298.5c-26.2,0-47.6-21.3-47.6-47.6s21.3-47.6,47.6-47.6c26.3,0,47.6,21.4,47.6,47.7
				C1491.6,277.3,1470.2,298.5,1444,298.5z"/>
			<path class="st1" d="M1444,201.8c-27.1,0-49.2,22-49.2,49.1c0,27.1,22,49.1,49.2,49.1s49.2-22,49.2-49.1
				C1493.2,223.8,1471.1,201.8,1444,201.8z M1444,297c-25.4,0-46-20.6-46-46s20.6-46,46-46c25.4,0,46,20.6,46,46
				S1469.4,297,1444,297z"/>
			<circle class="st1" cx="1444" cy="223.1" r="12.3"/>
			<circle class="st1" cx="1444" cy="278.8" r="12.3"/>
			<circle class="st1" cx="1416.1" cy="251" r="12.3"/>
			<circle class="st1" cx="1471.8" cy="251" r="12.3"/>
			<path class="st0" d="M1238.4,264.5c-2.7,0-5-2.2-5-5s2.2-5,5-5h20.5c2.7,0,5,2.2,5,5s-2.2,5-5,5H1238.4z"/>
			<path class="st1" d="M1258.9,252.9h-20.5c-3.6,0-6.5,2.9-6.5,6.5c0,3.6,2.9,6.5,6.5,6.5h20.5c3.6,0,6.6-2.9,6.6-6.5
				C1265.5,255.8,1262.6,252.9,1258.9,252.9z M1235.1,259.5c0-1.9,1.5-3.4,3.4-3.4h20.5c1.9,0,3.4,1.5,3.4,3.4s-1.5,3.4-3.4,3.4
				h-20.5c-0.9,0-1.8-0.4-2.4-1C1235.5,261.3,1235.1,260.4,1235.1,259.5z"/>
			<path class="st0" d="M1279.6,288.5c-2.8,0-5-2.2-5-5s2.2-5,5-5h20.5c2.8,0,5,2.2,5,5s-2.2,5-5,5H1279.6z"/>
			<path class="st1" d="M1300.1,276.9h-20.5c-3.6,0-6.5,2.9-6.5,6.5c0,3.6,2.9,6.5,6.5,6.5h20.5c3.6,0,6.5-2.9,6.5-6.5
				C1306.6,279.8,1303.7,276.9,1300.1,276.9z M1300.1,286.9h-20.5c-1.9,0-3.4-1.5-3.4-3.4s1.5-3.4,3.4-3.4h20.5
				c1.9,0,3.4,1.5,3.4,3.4S1302,286.9,1300.1,286.9z"/>
			<path class="st0" d="M1320.8,264.5c-2.8,0-5-2.2-5-5s2.2-5,5-5h20.5c2.8,0,5,2.2,5,5s-2.2,5-5,5H1320.8z"/>
			<path class="st1" d="M1341.3,253h-20.5c-3.6,0-6.5,2.9-6.5,6.5s2.9,6.5,6.5,6.5h20.5c3.6,0,6.5-2.9,6.5-6.5
				S1344.9,253,1341.3,253z M1341.3,262.9h-20.5c-1.9,0-3.4-1.5-3.4-3.4s1.5-3.4,3.4-3.4h20.5c1.9,0,3.4,1.5,3.4,3.4
				S1343.2,262.9,1341.3,262.9z"/>
			<path class="st1" d="M1142.2,210v28c0,1.5-1.2,2.4-2.3,1.8c-1.8-1-3.8-1.6-5.9-1.6c-2.1,0-4.1,0.6-5.9,1.6
				c-1.1,0.6-2.3-0.3-2.3-1.8v-28c0-1,0.5-1.8,1.3-2c2.2-0.5,4.5-0.7,6.9-0.7c2.4,0,4.6,0.2,6.9,0.7
				C1141.6,208.2,1142.2,209.1,1142.2,210L1142.2,210z"/>
			<path class="st1" d="M1142.2,263.9v28c0,1-0.5,1.8-1.3,2c-2.2,0.5-4.5,0.7-6.9,0.7c-2.4,0-4.6-0.2-6.9-0.7c-0.8-0.2-1.3-1-1.3-2
				v-28c0-1.5,1.2-2.4,2.3-1.8c1.8,1,3.8,1.6,5.9,1.6c2.1,0,4.1-0.6,5.9-1.6C1141,261.5,1142.2,262.4,1142.2,263.9L1142.2,263.9z"/>
			<path class="st1" d="M1177.7,251c0,2.4-0.2,4.6-0.7,6.9c-0.2,0.8-1,1.3-2,1.3h-28c-1.5,0-2.4-1.2-1.8-2.3c1-1.8,1.6-3.8,1.6-5.9
				s-0.6-4.1-1.6-5.9c-0.6-1.1,0.3-2.3,1.8-2.3h28c1,0,1.8,0.6,2,1.3C1177.4,246.3,1177.7,248.6,1177.7,251L1177.7,251z"/>
			<path class="st1" d="M1120.9,259.2h-28c-1,0-1.8-0.5-2-1.3c-0.5-2.2-0.7-4.5-0.7-6.9s0.2-4.6,0.7-6.9c0.2-0.8,1-1.3,2-1.3h28
				c1.5,0,2.4,1.2,1.8,2.3c-1,1.8-1.6,3.8-1.6,5.9s0.6,4.1,1.6,5.9C1123.3,257.9,1122.3,259.2,1120.9,259.2L1120.9,259.2z"/>
		</g>
		<path class="st3" d="M1151.5,433.9c-0.3,1.1-1,2.9-1.9,5.2c-0.6,1.5-1.3,3.1-2.1,5c-3.4,7.8-9,18.3-16.9,27
			c-1.1,1.2-2.3,2.4-3.5,3.6c-1.2,1.2-2.5,2.3-3.8,3.3l-84.6-84.6v-0.2c0,0,0.2-2.3,0.5-6.3c0.2-1.8,0.4-4,0.7-6.4
			c1-9.4,2.7-23.1,5.2-38.6c0.3-2,0.7-4,1-6c0.3-2,0.7-4,1.1-6L1151.5,433.9z"/>
		<path class="st4" d="M1149.6,439.1c-0.6,1.5-1.3,3.1-2.1,5c-3.4,7.8-9,18.3-16.9,27c-1.1,1.2-2.3,2.4-3.5,3.6l-87.9-87.8
			c0.2-1.8,0.4-4,0.7-6.4c1-9.4,2.7-23.1,5.2-38.6c0.3-2,0.7-4,1-6L1149.6,439.1z"/>
		<path class="st5" d="M1147.5,444c-3.4,7.8-9,18.3-16.9,27l-90.7-90.7c1-9.4,2.7-23.1,5.2-38.6L1147.5,444z"/>
		<path class="st3" d="M1171.2,375.8c-1,1.1-1.9,2.4-2.3,3.9l-0.1,0.2l-0.1,0.4l-1.7,5.4l-10.6,33.2l-1.7,5.3l-1.7,5.4l-104.7-104.7
			c0.4-2,0.8-3.9,1.2-5.9c0.4-1.9,0.8-3.9,1.2-5.8c2.6-11.7,5.6-23.5,9.3-34.6c0.6-1.8,1.2-3.5,1.8-5.3c0.6-1.8,1.3-3.5,1.9-5.2
			L1171.2,375.8z"/>
		<path class="st4" d="M1168.6,380.4l-1.7,5.4l-10.6,33.2l-1.7,5.3L1049.3,319c0.4-1.9,0.8-3.9,1.2-5.8c2.6-11.7,5.6-23.5,9.3-34.6
			c0.6-1.8,1.2-3.5,1.8-5.3L1168.6,380.4z"/>
		<path class="st5" d="M1166.9,385.7l-10.6,33.2l-105.7-105.7c2.6-11.7,5.6-23.5,9.3-34.6L1166.9,385.7z"/>
		<path class="st3" d="M1540.4,387.3l-87.6,87.6c-1.2-1.1-2.4-2.3-3.5-3.5c-1.1-1.2-2.2-2.5-3.3-3.8c-7.8-9.8-13.1-21-15.8-28
			c-0.9-2.2-1.5-4-1.9-5.2c-0.4-1-0.5-1.6-0.5-1.6l-1.2-3.7l104.9-104.8c0.4,2,0.8,4,1.1,5.9c0.4,2,0.7,4,1.1,6
			c2.6,14.7,4.3,28.2,5.5,38.3c0.3,2.3,0.5,4.4,0.7,6.4C1540.1,383.4,1540.3,385.5,1540.4,387.3z"/>
		<path class="st4" d="M1539.8,380.9l-90.5,90.5c-1.1-1.2-2.2-2.5-3.3-3.8c-7.8-9.8-13.1-21-15.8-28c-0.9-2.2-1.5-4-1.9-5.2
			l104.2-104.2c0.4,2,0.7,4,1.1,6c2.6,14.7,4.3,28.2,5.5,38.3C1539.4,376.8,1539.6,379,1539.8,380.9z"/>
		<path class="st5" d="M1539.1,374.5l-93.1,93.1c-7.8-9.8-13.1-21-15.8-28l103.4-103.4C1536.2,350.9,1537.9,364.4,1539.1,374.5z"/>
		<path class="st3" d="M1530.5,319.5L1530.5,319.5l-105.3,105.3l-1.7-5.3l-1.7-5.3v0l-10.6-33.2l-0.3-0.9l-0.1-0.2
			c-0.4-1.3-1.1-2.5-2-3.6c-1.1-1.3-2.6-2.3-4.2-2.9l109.7-109.7l1,2.2c0.4,0.9,0.7,1.8,1.1,2.8c0.7,1.7,1.3,3.4,1.9,5.2
			c3.8,10.8,7,22.4,9.7,34.1c0.5,1.9,0.9,3.8,1.3,5.8C1529.7,315.7,1530.1,317.6,1530.5,319.5z"/>
		<path class="st4" d="M1529.2,313.7l-105.8,105.8l-1.7-5.3v0l-10.6-33.2l-0.3-0.9l-0.1-0.2c-0.4-1.3-1.1-2.5-2-3.6l107.6-107.6
			c0.7,1.7,1.3,3.4,1.9,5.2c3.8,10.8,7,22.4,9.7,34.1C1528.4,309.9,1528.8,311.8,1529.2,313.7z"/>
		<path class="st5" d="M1527.9,307.9l-106.2,106.2l-10.6-33.2l107.1-107.1C1522,284.6,1525.2,296.3,1527.9,307.9z"/>
	</g>
</g>
<g>
	<path class="st6" d="M1818.7,541.7v284.4c0,11-9,20-20,20H201.3c-11,0-20-9-20-20V541.7c0-11,9-20,20-20h1597.3
		C1809.7,521.7,1818.7,530.7,1818.7,541.7z"/>
	<path class="st4" d="M586.3,846.1H359.7L181.3,667.8V541.7c0-11,9-20,20-20h60.5L586.3,846.1z"/>
	<path class="st3" d="M558,846.1h-170L181.3,639.5v-97.8c0-11,9-20,20-20h32.2l193.1,193.1l99.7,99.7l14.2,14.1l14.1,14.1L558,846.1
		z"/>
	<path class="st7" d="M529.7,846.1H416.2L181.3,611.2v-69.5c0-11,9-20,20-20h3.9L529.7,846.1z"/>
	<polygon class="st4" points="1045.8,521.7 1028.3,539.2 1014.2,553.3 1000,567.5 721.4,846.1 494.8,846.1 512.2,828.6 526.4,814.5 
		540.5,800.4 635.2,705.6 819.2,521.7 	"/>
	<polygon class="st3" points="1017.5,521.7 1014.1,525 1000,539.2 985.9,553.3 874.6,664.6 693.1,846.1 523,846.1 526.4,842.8 
		540.5,828.6 554.7,814.5 663.5,705.6 692.2,677 847.4,521.7 	"/>
	<polygon class="st7" points="989.2,521.7 985.9,525 971.7,539.2 846.3,664.6 664.8,846.1 551.3,846.1 554.7,842.8 568.8,828.6 
		875.7,521.7 	"/>
	<polygon class="st4" points="1505.2,846.1 1278.6,846.1 954.2,521.7 1180.8,521.7 1473.6,814.5 1487.8,828.6 	"/>
	<polygon class="st3" points="1477,846.1 1306.9,846.1 1125.4,664.6 1014.2,553.3 1000,539.2 985.9,525 982.5,521.7 1152.6,521.7 
		1295.5,664.6 1445.3,814.5 1459.5,828.6 	"/>
	<polygon class="st7" points="1448.7,846.1 1335.2,846.1 1010.8,521.7 1124.3,521.7 1267.2,664.6 1308.2,705.6 1431.2,828.6 
		1445.4,842.8 	"/>
	<path class="st4" d="M1818.7,541.7v126.1l-178.3,178.3h-226.6l31.6-31.6l14.2-14.1l94.7-94.7l183.9-183.9h60.5
		C1809.7,521.7,1818.7,530.7,1818.7,541.7z"/>
	<path class="st3" d="M1818.7,541.7v97.8l-206.6,206.6h-170l3.3-3.3l14.1-14.1l14.1-14.1l149.9-149.9l142.9-142.9h32.2
		C1809.7,521.7,1818.7,530.7,1818.7,541.7z"/>
	<path class="st7" d="M1818.7,541.7v69.5l-234.9,234.9h-113.5l3.3-3.3l14.1-14.2l306.9-306.9h3.9
		C1809.7,521.7,1818.7,530.7,1818.7,541.7z"/>
	<path class="st6" d="M673.3,705.6h-67.7c-11.3,0-20.5-9.2-20.5-20.5l0,0c0-11.3,9.2-20.5,20.5-20.5h67.7c11.3,0,20.5,9.2,20.5,20.5
		l0,0C693.8,696.4,684.7,705.6,673.3,705.6z"/>
	<path class="st6" d="M1724.7,705.6H786.2c-11.3,0-20.5-9.2-20.5-20.5l0,0c0-11.3,9.2-20.5,20.5-20.5h938.4
		c11.3,0,20.5,9.2,20.5,20.5l0,0C1745.2,696.4,1736,705.6,1724.7,705.6z"/>
	<circle class="st6" cx="377" cy="685.1" r="57.8"/>
</g>
</svg>
