<?xml version="1.0" encoding="utf-8"?>
<!-- Generator: Adobe Illustrator 27.0.1, SVG Export Plug-In . SVG Version: 6.00 Build 0)  -->
<svg version="1.1" id="Layer_1" xmlns="http://www.w3.org/2000/svg" xmlns:xlink="http://www.w3.org/1999/xlink" x="0px" y="0px"
	 viewBox="0 0 2000 1000" style="enable-background:new 0 0 2000 1000;" xml:space="preserve">
<style type="text/css">
	.st0{fill:none;stroke:#000000;stroke-width:3.15;stroke-miterlimit:10;}
	.st1{fill:#E9E9E9;}
	.st2{fill:#FF931E;}
	.st3{fill:#FFFFFF;stroke:#FF931E;stroke-width:3.15;stroke-miterlimit:10;}
	.st4{fill:#E9E9E9;stroke:#FF931E;stroke-width:3.5088;stroke-miterlimit:10;}
	.st5{fill:#E9E9E9;stroke:#FF931E;stroke-width:4;stroke-miterlimit:10;}
	.st6{fill:none;}
</style>
<g>
	<g>
		<path class="st0" d="M506.7,342.3c0,21.7-17.6,39.4-39.4,39.4S428,364,428,342.3s17.6-39.4,39.4-39.4S506.7,320.5,506.7,342.3z"/>
		<circle class="st1" cx="467.3" cy="342.3" r="39.4"/>
		<circle class="st1" cx="617.2" cy="342.3" r="39.4"/>
		<circle class="st2" cx="467.3" cy="342.3" r="25.3"/>
		<line class="st0" x1="421.3" y1="380.5" x2="421.2" y2="380.8"/>
		<path class="st0" d="M656.5,342.3c0,21.7-17.6,39.4-39.4,39.4s-39.3-17.6-39.3-39.4s17.6-39.4,39.3-39.4S656.5,320.5,656.5,342.3z
			"/>
		<circle class="st2" cx="617.2" cy="342.3" r="25.3"/>
		<line class="st0" x1="663.3" y1="380.8" x2="663.2" y2="380.5"/>
		<g>
			<path class="st1" d="M671.6,181.1c0.7-4.9,4.4-8.6,8.7-8.6l35.5,1c4.4,0.1,8,4.1,8.6,9.1L671.6,181.1L671.6,181.1z"/>
			<path class="st2" d="M680.4,174.1h0.2l35.2,1c3.1,0.1,5.7,2.5,6.7,5.9l-48.9-1.3C674.7,176.4,677.4,174.1,680.4,174.1
				 M680.4,170.9c-5.7,0-10.3,5.2-10.4,11.7l56.1,1.5c0.1-6.6-4.4-12.1-10.2-12.3l-35.2-0.9C680.5,170.9,680.5,170.9,680.4,170.9
				L680.4,170.9L680.4,170.9z"/>
		</g>
		<g>
			<path class="st1" d="M360.1,182.4c0.5-5,4.2-9,8.6-9.1l35.5-1c4.3,0,8,3.7,8.7,8.6L360.1,182.4L360.1,182.4z"/>
			<path class="st2" d="M404.1,174c3,0,5.6,2.3,6.7,5.5l-48.9,1.3c1-3.4,3.6-5.8,6.7-5.9L404,174L404.1,174 M404.1,170.8
				c-0.1,0-0.2,0-0.2,0l-35.2,0.9c-5.8,0.2-10.3,5.7-10.2,12.3l56.1-1.5C414.5,176,409.8,170.8,404.1,170.8L404.1,170.8L404.1,170.8
				z"/>
		</g>
		<path class="st3" d="M793.3,394.1c0,0-5.7-77.1-25.7-127.2l-35-78.9c0,0-2.4-6.2-11.8-6.3l-46.9-1c0,0-9.7-0.4-17.8,7.4
			c0,0-7.3,7.6-21.2,2.8c0,0-8.7-3.8-15.9-4.3H465.4c-7.2,0.6-15.9,4.3-15.9,4.3c-13.9,4.8-21.2-2.8-21.2-2.8
			c-8.1-7.9-17.8-7.4-17.8-7.4l-46.9,1c-9.4,0.1-11.8,6.3-11.8,6.3l-35,78.9c-20,50.1-25.7,127.2-25.7,127.2
			c-0.6,49.1,17.5,76.1,17.5,76.1s16.4,23.5,49.5,17.1c31.7-6.1,46.1-53.5,46.1-53.5l16.9-52.8l0.1-0.2c1.3-4.1,5.1-7,9.6-7
			c2.4,0,4.6,0.8,6.3,2.2c0.1,0.1,0.2,0.2,0.3,0.3c8,7,18.4,11.2,29.9,11.2c13.8,0,26.2-6.2,34.5-16h80.7c8.3,9.8,20.7,16,34.5,16
			c11.4,0,21.9-4.2,29.9-11.2c0.1-0.1,0.2-0.2,0.3-0.3c1.7-1.4,3.9-2.2,6.3-2.2c4.5,0,8.3,2.9,9.6,7l0.1,0.2l16.9,52.8
			c0,0,14.4,47.4,46.1,53.5c33.1,6.3,49.5-17.1,49.5-17.1S794,443.2,793.3,394.1L793.3,394.1z M467.3,381.6
			c-21.7,0-39.4-17.6-39.4-39.4s17.6-39.4,39.4-39.4s39.4,17.6,39.4,39.4S489.1,381.6,467.3,381.6z M617.2,381.6
			c-21.7,0-39.3-17.6-39.3-39.4s17.6-39.4,39.3-39.4s39.4,17.6,39.4,39.4S638.9,381.6,617.2,381.6z"/>
		<g>
			<circle class="st1" cx="542.2" cy="221.6" r="18.8"/>
			<path class="st2" d="M542.2,204.4c9.5,0,17.3,7.8,17.3,17.3s-7.8,17.3-17.3,17.3s-17.3-7.8-17.3-17.3S532.7,204.4,542.2,204.4
				 M542.2,201.2c-11.3,0-20.4,9.1-20.4,20.4s9.1,20.4,20.4,20.4s20.4-9.1,20.4-20.4S553.5,201.2,542.2,201.2L542.2,201.2z"/>
		</g>
		<g>
			<path class="st1" d="M386.4,299.5c-26.2,0-47.6-21.3-47.6-47.6s21.3-47.6,47.6-47.6S434,225.7,434,252S412.6,299.5,386.4,299.5z"
				/>
			<path class="st2" d="M386.4,206c25.4,0,46,20.6,46,46s-20.6,46-46,46s-46-20.6-46-46S361,206,386.4,206 M386.4,202.8
				c-27.1,0-49.1,22-49.1,49.1s22,49.1,49.1,49.1s49.1-22,49.1-49.1S413.5,202.8,386.4,202.8L386.4,202.8z"/>
		</g>
		<g>
			<path class="st1" d="M696.4,299.5c-26.2,0-47.6-21.3-47.6-47.6s21.3-47.6,47.6-47.6S744,225.7,744,252S722.6,299.5,696.4,299.5z"
				/>
			<path class="st2" d="M696.4,206c25.4,0,46,20.6,46,46s-20.6,46-46,46s-46-20.6-46-46S671,206,696.4,206 M696.4,202.8
				c-27.1,0-49.2,22-49.2,49.1s22,49.1,49.2,49.1s49.2-22,49.2-49.1S723.5,202.8,696.4,202.8L696.4,202.8z"/>
		</g>
		<circle class="st2" cx="696.4" cy="224.1" r="12.3"/>
		<circle class="st2" cx="696.4" cy="279.8" r="12.3"/>
		<circle class="st2" cx="668.5" cy="252" r="12.3"/>
		<circle class="st2" cx="724.2" cy="252" r="12.3"/>
		<g>
			<path class="st1" d="M490.8,265.5c-2.7,0-5-2.2-5-5s2.2-5,5-5h20.5c2.7,0,5,2.2,5,5s-2.2,5-5,5H490.8z"/>
			<path class="st2" d="M511.4,257.1c1.9,0,3.4,1.5,3.4,3.4s-1.5,3.4-3.4,3.4h-20.5c-0.9,0-1.8-0.4-2.4-1c-0.6-0.6-1-1.5-1-2.4
				c0-1.9,1.5-3.4,3.4-3.4L511.4,257.1 M511.3,253.9h-20.5c-3.6,0-6.5,2.9-6.5,6.5s2.9,6.5,6.5,6.5h20.5c3.6,0,6.6-2.9,6.6-6.5
				S515,253.9,511.3,253.9L511.3,253.9L511.3,253.9z"/>
		</g>
		<g>
			<path class="st1" d="M532,289.5c-2.8,0-5-2.2-5-5s2.2-5,5-5h20.5c2.8,0,5,2.2,5,5s-2.2,5-5,5H532z"/>
			<path class="st2" d="M552.5,281.1c1.9,0,3.4,1.5,3.4,3.4s-1.5,3.4-3.4,3.4H532c-1.9,0-3.4-1.5-3.4-3.4s1.5-3.4,3.4-3.4H552.5
				 M552.5,277.9H532c-3.6,0-6.5,2.9-6.5,6.5s2.9,6.5,6.5,6.5h20.5c3.6,0,6.5-2.9,6.5-6.5S556.1,277.9,552.5,277.9L552.5,277.9z"/>
		</g>
		<g>
			<path class="st1" d="M573.2,265.5c-2.8,0-5-2.2-5-5s2.2-5,5-5h20.5c2.8,0,5,2.2,5,5s-2.2,5-5,5H573.2z"/>
			<path class="st2" d="M593.7,257.1c1.9,0,3.4,1.5,3.4,3.4s-1.5,3.4-3.4,3.4h-20.5c-1.9,0-3.4-1.5-3.4-3.4s1.5-3.4,3.4-3.4H593.7
				 M593.7,254h-20.5c-3.6,0-6.5,2.9-6.5,6.5s2.9,6.5,6.5,6.5h20.5c3.6,0,6.5-2.9,6.5-6.5S597.3,254,593.7,254L593.7,254L593.7,254z
				"/>
		</g>
		<path class="st2" d="M394.6,211v28c0,1.5-1.2,2.4-2.3,1.8c-1.8-1-3.8-1.6-5.9-1.6s-4.1,0.6-5.9,1.6c-1.1,0.6-2.3-0.3-2.3-1.8v-28
			c0-1,0.5-1.8,1.3-2c2.2-0.5,4.5-0.7,6.9-0.7s4.6,0.2,6.9,0.7C394,209.2,394.6,210.1,394.6,211L394.6,211z"/>
		<path class="st2" d="M394.6,264.9v28c0,1-0.5,1.8-1.3,2c-2.2,0.5-4.5,0.7-6.9,0.7s-4.6-0.2-6.9-0.7c-0.8-0.2-1.3-1-1.3-2v-28
			c0-1.5,1.2-2.4,2.3-1.8c1.8,1,3.8,1.6,5.9,1.6s4.1-0.6,5.9-1.6C393.4,262.5,394.6,263.4,394.6,264.9L394.6,264.9z"/>
		<path class="st2" d="M430.1,252c0,2.4-0.2,4.6-0.7,6.9c-0.2,0.8-1,1.3-2,1.3h-28c-1.5,0-2.4-1.2-1.8-2.3c1-1.8,1.6-3.8,1.6-5.9
			s-0.6-4.1-1.6-5.9c-0.6-1.1,0.3-2.3,1.8-2.3h28c1,0,1.8,0.6,2,1.3C429.8,247.3,430.1,249.6,430.1,252L430.1,252z"/>
		<path class="st2" d="M373.3,260.2h-28c-1,0-1.8-0.5-2-1.3c-0.5-2.2-0.7-4.5-0.7-6.9s0.2-4.6,0.7-6.9c0.2-0.8,1-1.3,2-1.3h28
			c1.5,0,2.4,1.2,1.8,2.3c-1,1.8-1.6,3.8-1.6,5.9s0.6,4.1,1.6,5.9C375.7,258.9,374.7,260.2,373.3,260.2L373.3,260.2z"/>
	</g>
	<g>
		<path class="st0" d="M1100.1,342.3c0,21.7-17.6,39.4-39.3,39.4s-39.3-17.6-39.3-39.4s17.6-39.4,39.3-39.4
			S1100.1,320.5,1100.1,342.3z"/>
		<circle class="st1" cx="1060.8" cy="342.3" r="39.4"/>
		<circle class="st1" cx="1210.6" cy="342.3" r="39.4"/>
		<circle class="st2" cx="1060.8" cy="342.3" r="25.3"/>
		<line class="st0" x1="1014.7" y1="380.5" x2="1014.6" y2="380.8"/>
		<path class="st0" d="M1249.9,342.3c0,21.7-17.6,39.4-39.4,39.4s-39.3-17.6-39.3-39.4s17.6-39.4,39.3-39.4
			S1249.9,320.5,1249.9,342.3z"/>
		<circle class="st2" cx="1210.6" cy="342.3" r="25.3"/>
		<line class="st0" x1="1256.7" y1="380.8" x2="1256.6" y2="380.5"/>
		<g>
			<path class="st1" d="M1265.1,181.1c0.7-4.9,4.4-8.6,8.7-8.6l35.4,1c4.4,0.1,8,4.1,8.6,9.1L1265.1,181.1L1265.1,181.1z"/>
			<path class="st2" d="M1273.8,174.1h0.2l35.2,1c3.1,0.1,5.7,2.5,6.7,5.9l-48.9-1.3C1268.1,176.4,1270.8,174.1,1273.8,174.1
				 M1273.8,170.9c-5.7,0-10.3,5.2-10.4,11.7l56.1,1.5c0.1-6.6-4.4-12.1-10.2-12.3l-35.2-0.9C1274,170.9,1273.9,170.9,1273.8,170.9
				L1273.8,170.9L1273.8,170.9z"/>
		</g>
		<g>
			<path class="st1" d="M953.5,182.4c0.5-5,4.2-9,8.6-9.1l35.5-1c4.3,0,8,3.7,8.7,8.6L953.5,182.4L953.5,182.4z"/>
			<path class="st2" d="M997.5,174c3,0,5.6,2.3,6.7,5.5l-48.9,1.3c1-3.4,3.6-5.8,6.7-5.9l35.2-0.9L997.5,174 M997.5,170.8
				c-0.1,0-0.2,0-0.2,0l-35.2,0.9c-5.8,0.2-10.3,5.7-10.2,12.3l56.1-1.5C1007.9,176,1003.2,170.8,997.5,170.8L997.5,170.8
				L997.5,170.8z"/>
		</g>
		<path class="st3" d="M1386.7,394.1c0,0-5.7-77.1-25.7-127.2l-35-78.9c0,0-2.4-6.2-11.8-6.3l-46.9-1c0,0-9.7-0.4-17.8,7.4
			c0,0-7.3,7.6-21.2,2.8c0,0-8.7-3.8-15.9-4.3h-153.6c-7.2,0.6-15.9,4.3-15.9,4.3c-13.9,4.8-21.2-2.8-21.2-2.8
			c-8.1-7.9-17.8-7.4-17.8-7.4l-46.9,1c-9.4,0.1-11.8,6.3-11.8,6.3l-35,78.9c-20,50.1-25.7,127.2-25.7,127.2
			c-0.6,49.1,17.5,76.1,17.5,76.1s16.4,23.5,49.5,17.1c31.7-6.1,46.1-53.5,46.1-53.5l16.9-52.8l0.1-0.2c1.3-4.1,5.1-7,9.6-7
			c2.4,0,4.6,0.8,6.3,2.2c0.1,0.1,0.2,0.2,0.3,0.3c8,7,18.4,11.2,29.9,11.2c13.8,0,26.2-6.2,34.6-16h80.7c8.3,9.8,20.7,16,34.6,16
			c11.4,0,21.9-4.2,29.9-11.2c0.1-0.1,0.2-0.2,0.3-0.3c1.7-1.4,3.9-2.2,6.3-2.2c4.5,0,8.3,2.9,9.6,7l0.1,0.2l16.9,52.8
			c0,0,14.4,47.4,46.1,53.5c33.1,6.3,49.5-17.1,49.5-17.1S1387.4,443.2,1386.7,394.1L1386.7,394.1z M1060.7,381.6
			c-21.7,0-39.3-17.6-39.3-39.4s17.6-39.4,39.3-39.4s39.3,17.6,39.3,39.4S1082.5,381.6,1060.7,381.6z M1210.6,381.6
			c-21.7,0-39.3-17.6-39.3-39.4s17.6-39.4,39.3-39.4s39.4,17.6,39.4,39.4S1232.3,381.6,1210.6,381.6z"/>
		<g>
			<path class="st1" d="M1135.7,240.5c-10.4,0-18.8-8.5-18.8-18.9s8.5-18.9,18.8-18.9s18.8,8.5,18.8,18.9S1146.1,240.5,1135.7,240.5
				z"/>
			<path class="st2" d="M1135.7,204.4c9.5,0,17.3,7.8,17.3,17.3s-7.8,17.3-17.3,17.3s-17.3-7.8-17.3-17.3S1126.1,204.4,1135.7,204.4
				 M1135.7,201.2c-11.3,0-20.4,9.1-20.4,20.4s9.1,20.4,20.4,20.4s20.4-9.1,20.4-20.4S1146.9,201.2,1135.7,201.2L1135.7,201.2z"/>
		</g>
		<g>
			<path class="st1" d="M979.8,299.5c-26.2,0-47.6-21.3-47.6-47.6s21.3-47.6,47.6-47.6s47.6,21.3,47.6,47.6S1006,299.5,979.8,299.5z
				"/>
			<path class="st2" d="M979.8,206c25.4,0,46,20.6,46,46s-20.6,46-46,46s-46-20.6-46-46S954.4,206,979.8,206 M979.8,202.8
				c-27.1,0-49.2,22-49.2,49.1s22,49.1,49.2,49.1s49.2-22,49.2-49.1S1007,202.8,979.8,202.8L979.8,202.8z"/>
		</g>
		<g>
			<path class="st1" d="M1289.8,299.5c-26.2,0-47.6-21.3-47.6-47.6s21.3-47.6,47.6-47.6s47.6,21.3,47.6,47.6
				S1316,299.5,1289.8,299.5z"/>
			<path class="st2" d="M1289.8,206c25.4,0,46,20.6,46,46s-20.6,46-46,46s-46-20.6-46-46S1264.4,206,1289.8,206 M1289.8,202.8
				c-27.1,0-49.2,22-49.2,49.1s22,49.1,49.2,49.1s49.2-22,49.2-49.1S1316.9,202.8,1289.8,202.8L1289.8,202.8z"/>
		</g>
		<circle class="st2" cx="1289.8" cy="224.1" r="12.3"/>
		<circle class="st2" cx="1289.8" cy="279.8" r="12.3"/>
		<circle class="st2" cx="1261.9" cy="252" r="12.3"/>
		<circle class="st2" cx="1317.6" cy="252" r="12.3"/>
		<g>
			<path class="st1" d="M1084.2,265.5c-2.8,0-5-2.2-5-5s2.2-5,5-5h20.5c2.8,0,5,2.2,5,5s-2.2,5-5,5H1084.2z"/>
			<path class="st2" d="M1104.8,257.1c0.9,0,1.8,0.4,2.4,1s1,1.5,1,2.4c0,1.9-1.5,3.4-3.4,3.4h-20.5c-1.9,0-3.4-1.5-3.4-3.4
				s1.5-3.4,3.4-3.4L1104.8,257.1 M1104.8,254h-20.5c-3.6,0-6.6,2.9-6.6,6.5s2.9,6.5,6.6,6.5h20.5c3.6,0,6.6-2.9,6.6-6.5
				S1108.4,254,1104.8,254L1104.8,254L1104.8,254z"/>
		</g>
		<g>
			<path class="st1" d="M1125.4,289.5c-2.8,0-5-2.2-5-5s2.2-5,5-5h20.5c2.8,0,5,2.2,5,5s-2.2,5-5,5H1125.4z"/>
			<path class="st2" d="M1145.9,281.1c1.9,0,3.4,1.5,3.4,3.4s-1.5,3.4-3.4,3.4h-20.5c-1.9,0-3.4-1.5-3.4-3.4s1.5-3.4,3.4-3.4H1145.9
				 M1145.9,277.9h-20.5c-3.6,0-6.6,2.9-6.6,6.5s2.9,6.5,6.6,6.5h20.5c3.6,0,6.6-2.9,6.6-6.5S1149.5,277.9,1145.9,277.9
				L1145.9,277.9z"/>
		</g>
		<g>
			<path class="st1" d="M1166.6,265.5c-2.8,0-5-2.2-5-5s2.2-5,5-5h20.5c2.8,0,5,2.2,5,5s-2.2,5-5,5H1166.6z"/>
			<path class="st2" d="M1187.1,257.1c1.9,0,3.4,1.5,3.4,3.4s-1.5,3.4-3.4,3.4h-20.5c-1.9,0-3.4-1.5-3.4-3.4s1.5-3.4,3.4-3.4H1187.1
				 M1187.1,254h-20.5c-3.6,0-6.6,2.9-6.6,6.5s2.9,6.5,6.6,6.5h20.5c3.6,0,6.6-2.9,6.6-6.5S1190.7,254,1187.1,254L1187.1,254
				L1187.1,254z"/>
		</g>
		<path class="st2" d="M988,211v28c0,1.5-1.2,2.4-2.3,1.8c-1.8-1-3.8-1.6-5.8-1.6s-4.1,0.6-5.9,1.6c-1.1,0.6-2.3-0.3-2.3-1.8v-28
			c0-1,0.5-1.8,1.3-2c2.2-0.5,4.5-0.7,6.9-0.7s4.6,0.2,6.9,0.7C987.4,209.2,988,210.1,988,211L988,211z"/>
		<path class="st2" d="M988,264.9v28c0,1-0.5,1.8-1.3,2c-2.2,0.5-4.5,0.7-6.9,0.7s-4.6-0.2-6.9-0.7c-0.8-0.2-1.3-1-1.3-2v-28
			c0-1.5,1.2-2.4,2.3-1.8c1.8,1,3.8,1.6,5.9,1.6s4.1-0.6,5.8-1.6C986.8,262.5,988,263.4,988,264.9L988,264.9z"/>
		<path class="st2" d="M1023.5,252c0,2.4-0.2,4.6-0.7,6.9c-0.2,0.8-1,1.3-2,1.3h-28c-1.5,0-2.4-1.2-1.8-2.3c1-1.8,1.6-3.8,1.6-5.9
			s-0.6-4.1-1.6-5.9c-0.6-1.1,0.3-2.3,1.8-2.3h28c1,0,1.8,0.6,2,1.3C1023.2,247.3,1023.5,249.6,1023.5,252L1023.5,252z"/>
		<path class="st2" d="M966.7,260.2h-28c-1,0-1.8-0.5-2-1.3c-0.5-2.2-0.7-4.5-0.7-6.9s0.2-4.6,0.7-6.9c0.2-0.8,1-1.3,2-1.3h28
			c1.5,0,2.4,1.2,1.8,2.3c-1,1.8-1.6,3.8-1.6,5.9s0.6,4.1,1.6,5.9C969.1,258.9,968.1,260.2,966.7,260.2L966.7,260.2z"/>
	</g>
</g>
<circle class="st4" cx="378.2" cy="663.7" r="50"/>
<g>
	<path class="st1" d="M606.8,681.5c-9.9,0-17.9-8-17.9-17.9s8-17.9,17.9-17.9h67.7c9.9,0,17.9,8,17.9,17.9s-8,17.9-17.9,17.9H606.8z
		"/>
	<path class="st2" d="M674.5,648.4c8.4,0,15.3,6.9,15.3,15.3s-6.9,15.3-15.3,15.3h-67.7c-8.4,0-15.3-6.9-15.3-15.3
		s6.9-15.3,15.3-15.3H674.5 M674.5,643.2h-67.7c-11.3,0-20.5,9.2-20.5,20.5s9.2,20.5,20.5,20.5h67.7c11.3,0,20.5-9.2,20.5-20.5
		S685.8,643.2,674.5,643.2L674.5,643.2z"/>
</g>
<g>
	<path class="st1" d="M753.2,681.5c-9.5,0-17.3-7.8-17.3-17.3c0-10.2,8.3-18.5,18.5-18.5h1065.1v35.8H753.2z"/>
	<path class="st2" d="M1816.9,648.4V679H753.2c-8.1,0-14.7-6.6-14.7-14.7c0-8.8,7.1-15.9,15.9-15.9L1816.9,648.4 M1822,643.2H754.3
		c-11.6,0-21,9.4-21,21c0,11,8.9,19.9,19.9,19.9H1822V643.2L1822,643.2L1822,643.2z"/>
</g>
<circle class="st5" cx="378.2" cy="663.7" r="50"/>
<g>
	<path class="st6" d="M197.9,827c-9.7,0-17.6-5.7-17.6-12.7V513c0-7,7.9-12.7,17.6-12.7h1604.3c9.7,0,17.6,5.7,17.6,12.7v301.3
		c0,7-7.9,12.7-17.6,12.7H197.9z"/>
	<path class="st2" d="M1802.1,502.6c8.3,0,15.4,4.8,15.4,10.4v301.3c0,5.7-7.1,10.4-15.4,10.4H197.9c-8.4,0-15.4-4.8-15.4-10.4V513
		c0-5.7,7.1-10.4,15.4-10.4L1802.1,502.6 M1802.1,498.1H197.9c-11,0-19.9,6.7-19.9,14.9v301.3c0,8.2,8.9,14.9,19.9,14.9h1604.3
		c11,0,19.9-6.7,19.9-14.9V513C1822,504.8,1813.1,498.1,1802.1,498.1L1802.1,498.1z"/>
</g>
</svg>
