<?xml version="1.0" encoding="UTF-8"?>
<svg id="Layer_1" data-name="Layer 1" xmlns="http://www.w3.org/2000/svg" viewBox="0 0 1000 1000">
  <defs>
    <style>
      .cls-1 {
        fill: #e9e9e9;
      }

      .cls-2 {
        fill: #fff;
      }

      .cls-3 {
        fill: #ff931e;
      }
    </style>
  </defs>
  <g>
    <path class="cls-1" d="M237.45,966.73v-381.42h37.42c9.68,0,17.56,7.88,17.56,17.56v346.3c0,9.68-7.88,17.56-17.56,17.56h-37.42Z"/>
    <path class="cls-3" d="M274.88,587.26c8.61,0,15.61,7,15.61,15.61v346.3c0,8.61-7,15.61-15.61,15.61h-35.47v-377.52h35.47m0-3.9h-39.37v385.33h39.37c10.77,0,19.51-8.74,19.51-19.51v-346.3c0-10.77-8.74-19.51-19.51-19.51h0Z"/>
  </g>
  <path class="cls-3" d="M955.34,466.89c.47,11.04-8.47,20.18-19.51,20.18h-12.53c-10.5,0-19-8.27-19.47-18.73v-.27c-.2-3.75-.39-7.49-.7-11.2v-.16c-.04-.9-.12-1.83-.23-2.73-.16-2.38-.39-4.8-.62-7.18-.51-5.35-1.17-10.65-1.91-15.96-.35-2.61-.74-5.23-1.17-7.84-30.67-192.82-197.74-340.17-399.18-340.17S131.49,230.17,100.82,422.99c-.43,2.61-.82,5.23-1.17,7.84-.74,5.31-1.41,10.61-1.91,15.96-.23,2.38-.47,4.8-.62,7.18-.12,.94-.19,1.8-.23,2.73v.16c-.31,3.71-.51,7.45-.7,11.2v.27c-.47,10.46-9.01,18.73-19.47,18.73h-12.53c-11.04,0-19.98-9.13-19.51-20.18C55.24,224.55,255.04,31.3,500,31.3s444.76,193.25,455.34,435.59Z"/>
  <g>
    <path class="cls-1" d="M725.14,966.73c-9.68,0-17.56-7.88-17.56-17.56v-346.3c0-9.68,7.88-17.56,17.56-17.56h37.42v381.42h-37.42Z"/>
    <path class="cls-3" d="M760.61,587.26v377.52h-35.47c-8.61,0-15.61-7-15.61-15.61v-346.3c0-8.61,7-15.61,15.61-15.61h35.47m3.9-3.9h-39.37c-10.77,0-19.51,8.74-19.51,19.51v346.3c0,10.77,8.74,19.51,19.51,19.51h39.37v-385.33h0Z"/>
  </g>
  <g>
    <path class="cls-2" d="M778.48,966.75v-381.42h7.41c15.82,0,31.24,4.29,44.61,12.4,18.9,11.41,32.57,29.32,38.51,50.46l.07,.3c2.1,7.51,3.17,15.32,3.17,23.2h3.9v-154.5h-7.96c-4.8,0-9.28-1.9-12.61-5.36-3.34-3.46-5.08-8-4.91-12.8,.13-4.45,.2-8.36,.2-11.97,0-193.47-157.4-350.87-350.87-350.87S149.13,293.59,149.13,487.06c0,3.61,.06,7.52,.2,11.96,.17,4.81-1.57,9.35-4.91,12.81-3.33,3.45-7.81,5.36-12.61,5.36h-7.96v154.5h3.9c0-7.88,1.07-15.69,3.17-23.2l.07-.26v-.04c5.95-21.14,19.62-39.05,38.51-50.46,13.37-8.12,28.79-12.4,44.61-12.4h7.42v381.42h-7.42c-47.62,0-86.36-38.74-86.36-86.36h-3.9v6.71c0,14.42-11.73,26.15-26.15,26.15s-26.15-11.73-26.15-26.15V489.01h5.15c11.5,0,20.91-9.05,21.42-20.6v-.3c.2-3.73,.43-7.46,.7-11.11v-.3c.04-.75,.11-1.54,.22-2.49v-.11c.16-2.28,.38-4.57,.63-7.12,.46-4.82,1.06-9.87,1.9-15.88,.35-2.62,.74-5.24,1.16-7.8,14.87-93.47,62.78-179.13,134.9-241.23,35.73-30.76,76.11-54.79,120-71.4,45.44-17.19,93.33-25.91,142.35-25.91s96.92,8.72,142.35,25.91c43.9,16.61,84.27,40.63,120,71.4,72.12,62.1,120.03,147.76,134.9,241.22,.43,2.61,.82,5.23,1.16,7.8,.84,6.05,1.45,11.09,1.9,15.89,.25,2.55,.47,4.84,.62,7.12v.13c.12,.8,.19,1.69,.23,2.56v.15s0,.08,0,.08c.31,3.67,.51,7.46,.7,11.12v.19c.52,11.64,9.93,20.68,21.42,20.68h5.15v398.09c0,14.42-11.73,26.15-26.15,26.15s-26.15-11.73-26.15-26.15v-6.71h-3.9c0,47.62-38.74,86.36-86.36,86.36h-7.41Z"/>
    <path class="cls-3" d="M500,86.71c48.78,0,96.45,8.68,141.66,25.78,43.68,16.53,83.86,40.43,119.42,71.05,71.77,61.8,119.45,147.05,134.25,240.07,.42,2.57,.81,5.17,1.16,7.75,.84,6.01,1.44,11.03,1.89,15.8,.25,2.53,.47,4.8,.61,7.05v.13s.03,.13,.03,.13c.1,.72,.16,1.52,.2,2.31v.4c.32,3.61,.51,7.35,.7,10.97v.35c.57,12.59,10.83,22.46,23.37,22.46h3.2v396.14c0,13.34-10.85,24.19-24.19,24.19s-24.19-10.85-24.19-24.19v-6.71h-7.8c0,46.54-37.87,84.41-84.41,84.41h-5.46v-377.52h5.46c15.46,0,30.54,4.19,43.6,12.12,18.39,11.1,31.72,28.51,37.57,49.06v.04l.14,.52c2.05,7.34,3.09,14.97,3.09,22.68h7.8v-156.45h-9.91c-4.27,0-8.25-1.69-11.21-4.76-2.97-3.07-4.52-7.11-4.36-11.4,.13-4.46,.2-8.39,.2-12.02,0-194.54-158.27-352.82-352.82-352.82S147.18,292.52,147.18,487.06c0,3.63,.06,7.56,.2,12.04,.15,4.26-1.4,8.3-4.36,11.37-2.96,3.07-6.94,4.76-11.21,4.76h-9.91v156.45h7.8c0-7.71,1.04-15.34,3.09-22.68l.14-.52c5.85-20.56,19.18-37.98,37.58-49.1,13.06-7.93,28.13-12.12,43.59-12.12h5.46v377.52h-5.46c-46.54,0-84.41-37.87-84.41-84.41h-7.8v6.71c0,13.34-10.85,24.19-24.19,24.19s-24.19-10.85-24.19-24.19V490.97h3.2c12.54,0,22.81-9.87,23.37-22.46v-.09s0-.09,0-.09v-.17c.19-3.7,.43-7.4,.69-11.01v-.14s.01-.14,.01-.14v-.07c.03-.75,.1-1.47,.2-2.33v-.11s.02-.11,.02-.11c.15-2.25,.37-4.53,.62-7.07,.45-4.78,1.05-9.8,1.89-15.81,.35-2.59,.74-5.19,1.16-7.75,14.79-93,62.47-178.25,134.24-240.05,35.56-30.62,75.74-54.52,119.42-71.05,45.21-17.11,92.88-25.78,141.66-25.78m0-3.9c-201.44,0-368.51,147.36-399.18,340.17-.43,2.61-.82,5.23-1.17,7.84-.74,5.31-1.41,10.61-1.91,15.96-.23,2.38-.47,4.8-.62,7.18-.12,.94-.19,1.8-.23,2.73v.16c-.27,3.71-.51,7.45-.7,11.2v.27c-.47,10.46-9.01,18.73-19.47,18.73h-7.1v400.04c0,15.49,12.57,28.1,28.1,28.1s28.1-12.6,28.1-28.1v-6.71c0,48.78,39.53,88.31,88.31,88.31h9.37v-385.33h-9.37c-16.7,0-32.31,4.6-45.62,12.68-19,11.47-33.37,29.97-39.45,51.86v.04c-2.11,7.53-3.24,15.49-3.24,23.73v-152.55h6.01c11.04,0,19.86-9.17,19.47-20.18-.12-3.94-.2-7.92-.2-11.9,0-192.7,156.21-348.92,348.92-348.92s348.92,156.21,348.92,348.92c0,3.98-.08,7.96-.2,11.9-.39,11,8.43,20.18,19.47,20.18h6.01v152.55c0-8.23-1.13-16.2-3.24-23.73v-.04c-6.09-21.89-20.45-40.39-39.45-51.86-13.31-8.08-28.92-12.68-45.62-12.68h-9.37v385.33h9.37c48.78,0,88.31-39.53,88.31-88.31v6.71c0,15.49,12.57,28.1,28.1,28.1s28.1-12.6,28.1-28.1V487.06h-7.1c-10.5,0-19-8.27-19.47-18.73v-.27c-.2-3.75-.39-7.49-.7-11.2v-.16c-.04-.9-.12-1.83-.23-2.73-.16-2.38-.39-4.8-.62-7.18-.51-5.35-1.17-10.65-1.91-15.96-.35-2.61-.74-5.23-1.17-7.84-30.67-192.82-197.74-340.17-399.18-340.17h0Z"/>
  </g>
</svg>