<?xml version="1.0" encoding="UTF-8"?>
<svg id="Layer_1" data-name="Layer 1" xmlns="http://www.w3.org/2000/svg" viewBox="0 0 1000 1000">
  <defs>
    <style>
      .cls-1 {
        fill: #fff;
      }

      .cls-1, .cls-2, .cls-3 {
        stroke: #f39c12;
        stroke-miterlimit: 10;
        stroke-width: 7.08px;
      }

      .cls-2 {
        fill: none;
      }

      .cls-3 {
        fill: #f39c12;
      }
    </style>
  </defs>
  <path class="cls-2" d="M787.18,318.15v174.63c-1.51-.19-3.02-.28-4.53-.28h-19.91l-10.38-170.29c0-139.72-113.21-252.93-252.93-252.93s-252.93,113.21-252.93,252.93l-12.17,170.29h-19.91c-.94,0-1.89,0-2.83,.19v-174.53c0-158.87,128.87-287.65,287.75-287.65s287.65,128.78,287.65,287.65h.19Z"/>
  <line class="cls-2" x1="211.78" y1="497.41" x2="211.78" y2="492.69"/>
  <line class="cls-2" x1="787.18" y1="496.08" x2="787.18" y2="492.78"/>
  <line class="cls-2" x1="246.59" y1="493.54" x2="246.59" y2="492.5"/>
  <line class="cls-2" x1="752.46" y1="492.78" x2="752.46" y2="492.5"/>
  <circle class="cls-3" cx="806.05" cy="657.03" r="52.27"/>
  <path class="cls-3" d="M246.31,657.03c0,28.87-23.4,52.27-52.27,52.27-7.64,0-14.91-1.7-21.32-4.43h0c-9.81-4.43-17.93-11.7-23.4-20.76-4.81-7.92-7.64-17.17-7.64-27.08,0-21.23,12.74-39.53,31.04-47.64,6.51-2.92,13.77-4.53,21.32-4.53,28.87,0,52.27,23.4,52.27,52.27v-.09Z"/>
  <path class="cls-1" d="M829.82,539.67v234.82c0,26.04-21.13,47.17-47.17,47.17h-39.72c-26.04,0-47.17-21.13-47.17-47.17v-234.82c0-26.04,21.13-47.17,47.17-47.17h39.72c1.51,0,3.02,.09,4.53,.28,23.96,2.26,42.64,22.36,42.64,46.89Z"/>
  <path class="cls-1" d="M301.5,539.67v234.82c0,26.04-21.13,47.17-47.17,47.17h-39.72c-4.62,0-9.06-.66-13.3-1.89-19.53-5.75-33.87-23.87-33.87-45.28v-234.82c0-25.1,19.62-45.57,44.34-46.98,.94-.19,1.89-.19,2.83-.19h39.72c26.04,0,47.17,21.13,47.17,47.17Z"/>
  <path class="cls-1" d="M384.71,922.04c0,4.72,.66,9.15,1.89,13.49-251.71-79.44-244.07-257.18-244.07-257.18,5.47,9.06,13.59,16.23,23.4,20.57h0s9.62,58.78,63.4,116.8h.09c32.93,35.85,82.64,71.32,157.27,92.83-1.42,4.34-2.08,8.77-2.08,13.49h.09Z"/>
  <path class="cls-1" d="M470.47,923.46c0,25.47-20.57,46.04-46.04,46.04-20.76,0-38.3-13.77-43.96-32.55h-.09c-1.23-4.34-1.89-8.77-1.89-13.49s.66-9.15,2.08-13.49c5.75-18.77,23.3-32.55,43.96-32.55,25.47,0,46.04,20.57,46.04,46.04h-.09Z"/>
</svg>