<?xml version="1.0" encoding="UTF-8"?>
<svg id="Layer_1" data-name="Layer 1" xmlns="http://www.w3.org/2000/svg" viewBox="0 0 1000 1000">
  <defs>
    <style>
      .cls-1 {
        stroke-miterlimit: 10;
        stroke-width: 6.97px;
      }

      .cls-1, .cls-2, .cls-3, .cls-4 {
        fill: #fff;
      }

      .cls-1, .cls-2, .cls-3, .cls-4, .cls-5 {
        stroke: #f39c12;
      }

      .cls-2, .cls-5 {
        stroke-miterlimit: 10;
        stroke-width: 6.97px;
      }

      .cls-3 {
        stroke-miterlimit: 10;
        stroke-width: 6.97px;
      }

      .cls-4 {
        stroke-miterlimit: 10;
        stroke-width: 6.97px;
      }

      .cls-5 {
        fill: none;
      }
    </style>
  </defs>
  <g>
    <g>
      <rect class="cls-3" x="134.68" y="309.22" width="677.32" height="265.65" transform="translate(-174.31 441.34) rotate(-42.98)"/>
      <path class="cls-2" d="M766.49,326.84l-428.85,399.5c-10.5-11.24-28.14-11.89-39.38-1.39l-119.45-128.28c11.24-10.5,11.89-28.14,1.39-39.38L609.05,157.88c10.5,11.24,28.14,11.89,39.38,1.39l119.45,128.28c-11.24,10.5-11.89,28.14-1.39,39.38v-.09Z"/>
      <circle class="cls-2" cx="296.3" cy="607.07" r="21.27"/>
      <circle class="cls-2" cx="650.38" cy="277.24" r="21.27"/>
      <circle class="cls-5" cx="473.34" cy="442.11" r="115.46"/>
      <g>
        <path class="cls-2" d="M626.51,418.24l-14.58-15.7c-9.1,8.17-20.99,14.12-30.09,15.23l-5.94-13.84c9.01-1.49,19.88-6.04,28.52-14.12,10.96-10.22,12.54-23.5,4.27-32.32-8.27-8.82-18.86-8.17-34.65-2.14-21.55,8.55-37.99,10.5-50.53-2.97-11.98-12.82-11.89-31.12,.19-46.72l-14.58-15.6,9.57-8.92,14.03,15.05c9.57-8.36,18.3-11.8,25.17-13.38l5.67,13.84c-5.02,1.21-14.49,3.72-24.43,12.91-11.89,11.15-9.75,22.39-3.99,28.61,7.52,8.08,17,6.78,35.67-.28,22.01-8.36,37.62-7.8,50.44,5.94,11.42,12.26,13.56,31.67,0,49.14l15.05,16.16s-9.75,9.1-9.75,9.1Z"/>
        <path class="cls-2" d="M527.31,510.66l-14.58-15.7c-9.1,8.17-20.99,14.12-30.09,15.23l-5.94-13.84c9.01-1.49,19.88-6.04,28.52-14.12,10.96-10.22,12.54-23.5,4.27-32.32-8.27-8.82-18.86-8.17-34.65-2.14-21.55,8.55-37.99,10.5-50.53-2.97-11.98-12.82-11.89-31.12,.19-46.72l-14.58-15.6,9.57-8.92,14.03,15.05c9.57-8.36,18.3-11.8,25.17-13.38l5.67,13.84c-5.02,1.21-14.49,3.72-24.43,12.91-11.89,11.15-9.75,22.39-3.99,28.61,7.52,8.08,17,6.78,35.67-.28,22.01-8.36,37.62-7.8,50.44,5.94,11.42,12.26,13.56,31.67,0,49.14l15.05,16.16s-9.75,9.1-9.75,9.1Z"/>
        <path class="cls-2" d="M428.2,602.99l-14.58-15.7c-9.1,8.17-20.99,14.12-30.09,15.23l-5.94-13.84c9.01-1.49,19.88-6.04,28.52-14.12,10.96-10.22,12.54-23.5,4.27-32.32-7.9-8.55-18.86-8.17-34.65-2.14-21.55,8.55-37.99,10.5-50.53-2.97-12.54-13.47-11.89-31.12,.19-46.72l-14.58-15.6,9.57-8.92,14.03,15.05c9.57-8.36,18.3-11.8,25.17-13.38l5.67,13.84c-5.02,1.21-14.49,3.72-24.43,12.91-11.89,11.15-9.75,22.39-3.99,28.61,7.52,8.08,17,6.78,35.67-.28,22.01-8.36,37.62-7.8,50.44,5.94,11.42,12.26,13.56,31.67,0,49.14l15.05,16.16s-9.75,9.1-9.75,9.1Z"/>
      </g>
    </g>
    <g>
      <rect class="cls-1" x="134.67" y="309.3" width="677.32" height="265.65" transform="translate(-166.63 342.28) rotate(-34.18)"/>
      <path class="cls-2" d="M780.7,373l-484.86,329.28c-8.64-12.73-26.01-16.07-38.73-7.43l-98.46-144.99c12.73-8.64,16.07-26.01,7.43-38.73L650.85,181.94c8.64,12.73,26.01,16.07,38.73,7.43l98.46,144.99c-12.73,8.64-16.07,26.01-7.43,38.73l.09-.09Z"/>
      <circle class="cls-2" cx="273.17" cy="578" r="21.27"/>
      <circle class="cls-2" cx="673.51" cy="306.22" r="21.27"/>
      <circle class="cls-5" cx="473.34" cy="442.11" r="115.46"/>
      <g>
        <path class="cls-2" d="M628.28,441.92l-11.98-17.74c-10.31,6.69-22.94,10.68-32.05,10.5l-3.81-14.58c9.2,0,20.53-2.97,30.37-9.57,12.45-8.45,15.98-21.36,9.2-31.3-6.5-9.66-17.46-10.96-34-7.43-22.66,5.11-39.1,4.55-49.51-10.68-10.4-15.23-7.06-32.6,7.34-46.16l-11.98-17.65,10.87-7.34,11.52,17c10.77-6.78,19.88-8.82,26.94-9.38l3.44,14.58c-5.11,.37-14.86,1.39-26.1,9.01-13.47,9.2-13.1,20.62-8.36,27.68,6.22,9.1,15.79,9.29,35.3,5.2,23.04-4.92,38.36-1.95,48.95,13.65,9.38,13.84,8.55,33.35-7.43,48.58l12.35,18.21-11.05,7.52v-.09Z"/>
        <path class="cls-2" d="M516.25,518.09l-11.98-17.74c-10.31,6.69-22.94,10.68-32.05,10.5l-3.81-14.58c9.2,0,20.53-2.97,30.37-9.57,12.45-8.45,15.98-21.36,9.2-31.3-6.5-9.66-17.46-10.96-34-7.43-22.66,5.11-39.1,4.55-49.51-10.68s-7.06-32.6,7.34-46.16l-11.98-17.65,10.87-7.34,11.52,17c10.77-6.78,19.88-8.82,26.94-9.38l3.44,14.58c-5.11,.37-14.86,1.39-26.1,9.01-13.47,9.2-13.1,20.62-8.36,27.68,6.22,9.1,15.79,9.29,35.3,5.2,23.04-4.92,38.36-1.95,48.95,13.65,9.38,13.84,8.55,33.35-7.43,48.58l12.35,18.21-11.05,7.52v-.09Z"/>
        <path class="cls-2" d="M404.14,594.16l-11.98-17.74c-10.31,6.69-22.94,10.68-32.05,10.5l-3.81-14.58c9.2,0,20.53-2.97,30.37-9.57,12.45-8.45,15.98-21.36,9.2-31.3-6.5-9.66-17.46-10.96-34-7.43-22.66,5.11-39.1,4.55-49.51-10.68-9.85-14.58-7.06-32.6,7.34-46.16l-11.98-17.65,10.87-7.34,11.52,17c10.77-6.78,19.88-8.82,26.94-9.38l3.44,14.58c-5.11,.37-14.86,1.39-26.1,9.01-13.47,9.2-13.1,20.62-8.36,27.68,6.22,9.1,15.79,9.29,35.3,5.2,23.04-4.92,38.36-1.95,48.95,13.65,9.38,13.84,8.55,33.35-7.43,48.58l12.35,18.21-11.05,7.52v-.09Z"/>
      </g>
    </g>
    <g>
      <rect class="cls-4" x="134.71" y="309.31" width="677.32" height="265.65" transform="translate(-141.69 239.01) rotate(-24.77)"/>
      <path class="cls-2" d="M787.85,424.18L255.71,669.77c-6.41-13.93-23.04-20.06-36.97-13.65l-73.47-159.11c13.93-6.41,20.06-23.04,13.65-36.97L691.07,214.45c6.41,13.93,23.04,20.06,36.97,13.65l73.47,159.11c-13.93,6.41-20.06,23.04-13.65,36.97Z"/>
      <circle class="cls-2" cx="253.67" cy="543.45" r="21.27"/>
      <circle class="cls-2" cx="693.02" cy="340.77" r="21.27"/>
      <circle class="cls-5" cx="473.34" cy="442.11" r="115.46"/>
      <g>
        <path class="cls-2" d="M626.23,467.28l-8.92-19.41c-11.24,4.92-24.34,6.78-33.35,5.11l-1.3-15.05c9.01,1.39,20.71,.46,31.49-4.55,13.65-6.32,19.23-18.48,14.21-29.44s-15.42-13.65-32.32-12.82c-23.13,1.39-39.38-1.86-47.09-18.67-7.34-15.98-1.58-33.35,14.77-44.4l-8.92-19.41,11.89-5.48,8.64,18.67c11.7-4.92,20.99-5.48,28.14-4.83l1.02,14.95c-5.11-.46-14.95-1.02-27.22,4.64-14.77,6.87-16.26,18.21-12.73,25.92,4.64,10.03,14.03,11.7,34,10.96,23.5-1.02,38.18,4.37,46.07,21.46,6.97,15.23,2.97,34.27-15.33,46.72l9.2,19.97-12.08,5.57-.19,.09Z"/>
        <path class="cls-2" d="M503.25,524.03l-8.92-19.41c-11.24,4.92-24.34,6.78-33.35,5.11l-1.3-15.05c9.01,1.39,20.71,.46,31.49-4.55,13.65-6.32,19.23-18.48,14.21-29.44s-15.42-13.65-32.32-12.82c-23.13,1.39-39.38-1.86-47.09-18.67-7.34-15.98-1.58-33.35,14.77-44.4l-8.92-19.41,11.89-5.48,8.64,18.67c11.7-4.92,20.99-5.48,28.14-4.83l1.02,14.95c-5.11-.46-14.95-1.02-27.22,4.64-14.77,6.87-16.25,18.21-12.73,25.92,4.64,10.03,14.03,11.7,34,10.96,23.5-1.02,38.18,4.37,46.07,21.46,6.97,15.23,2.97,34.27-15.33,46.72l9.2,19.97-12.08,5.57-.19,.09Z"/>
        <path class="cls-2" d="M380.18,580.88l-8.92-19.41c-11.24,4.92-24.34,6.78-33.35,5.11l-1.3-15.05c9.01,1.39,20.71,.46,31.49-4.55,13.65-6.32,19.23-18.48,14.21-29.44s-15.42-13.65-32.32-12.82c-23.13,1.39-39.38-1.86-47.09-18.67-7.34-15.98-1.58-33.35,14.77-44.4l-8.92-19.41,11.89-5.48,8.64,18.67c11.7-4.92,20.99-5.48,28.14-4.83l1.02,14.95c-5.11-.46-14.95-1.02-27.22,4.64-14.77,6.87-16.25,18.21-12.73,25.92,4.64,10.03,14.03,11.7,34,10.96,23.5-1.02,38.18,4.37,46.07,21.46,6.97,15.23,2.97,34.27-15.33,46.72l9.2,19.97-12.08,5.57-.19,.09Z"/>
      </g>
    </g>
  </g>
  <rect class="cls-2" x="35.57" y="302.13" width="875.54" height="583.88" rx="46.44" ry="46.44"/>
  <g>
    <rect class="cls-2" x="619.45" y="526.36" width="344.98" height="135.43" rx="41.43" ry="41.43"/>
    <circle class="cls-2" cx="892.91" cy="594.07" r="27.77"/>
  </g>
</svg>