<?xml version="1.0" encoding="UTF-8"?>
<svg id="Layer_1" data-name="Layer 1" xmlns="http://www.w3.org/2000/svg" viewBox="0 0 1000 1000">
  <defs>
    <style>
      .cls-1 {
        stroke-miterlimit: 10;
        stroke-width: 6.97px;
      }

      .cls-1, .cls-2, .cls-3, .cls-4, .cls-5 {
        stroke: #f39c12;
      }

      .cls-1, .cls-3, .cls-4, .cls-5 {
        fill: #fff;
      }

      .cls-2 {
        fill: none;
      }

      .cls-2, .cls-5 {
        stroke-miterlimit: 10;
        stroke-width: 6.97px;
      }

      .cls-3 {
        stroke-miterlimit: 10;
        stroke-width: 6.97px;
      }

      .cls-4 {
        stroke-miterlimit: 10;
        stroke-width: 6.97px;
      }
    </style>
  </defs>
  <g>
    <rect class="cls-3" x="67.6" y="330.39" width="864.87" height="339.22" transform="translate(-186.9 332.19) rotate(-31.27)"/>
    <path class="cls-5" d="M903.12,427.79L250.22,824.23c-7.99-13.19-25.17-17.37-38.27-9.38l-124.19-204.44c13.19-7.99,17.37-25.17,9.38-38.27L749.95,175.7c7.99,13.19,25.17,17.37,38.27,9.38l124.19,204.44c-13.19,7.99-17.37,25.17-9.38,38.27h.09Z"/>
    <circle class="cls-5" cx="236.01" cy="660.29" r="27.12"/>
    <circle class="cls-5" cx="764.16" cy="339.64" r="27.12"/>
    <circle class="cls-2" cx="500.09" cy="499.96" r="147.5"/>
    <g>
      <path class="cls-5" d="M697.75,509.81l-14.21-23.31c-13.56,7.9-29.91,12.17-41.52,11.33l-3.9-18.86c11.7,.46,26.38-2.42,39.29-10.31,16.44-9.94,21.74-26.19,13.75-39.38-7.71-12.73-21.55-15.05-42.82-11.61-29.17,5.11-50.25,3.25-62.42-16.81-12.17-20.06-6.87-42.08,12.35-58.43l-14.21-23.31,14.3-8.73,13.65,22.39c14.12-7.99,25.92-10.03,35.02-10.12l3.44,18.76c-6.5,.19-19.13,.84-33.9,9.85-17.83,10.77-18.02,25.54-12.45,34.74,7.34,11.98,19.51,12.82,44.68,8.92,29.72-4.74,49.04,0,61.49,20.53,11.05,18.3,8.73,43.1-12.63,61.49l14.58,24.06-14.58,8.82h.09Z"/>
      <path class="cls-5" d="M549.87,599.63l-14.21-23.31c-13.56,7.9-29.91,12.17-41.52,11.33l-3.9-18.86c11.7,.46,26.38-2.42,39.29-10.31,16.44-9.94,21.74-26.19,13.75-39.38-7.99-13.19-21.55-15.05-42.82-11.61-29.17,5.11-50.25,3.25-62.42-16.81-11.61-19.23-6.87-42.08,12.35-58.43l-14.21-23.31,14.3-8.73,13.65,22.39c14.12-7.99,25.92-10.03,35.02-10.12l3.44,18.76c-6.5,.19-19.13,.84-33.9,9.85-17.83,10.77-18.02,25.54-12.45,34.74,7.34,11.98,19.51,12.82,44.68,8.92,29.72-4.74,49.04,0,61.49,20.53,11.05,18.3,8.73,43.1-12.63,61.49l14.58,24.06-14.58,8.82h.09Z"/>
      <path class="cls-5" d="M402,689.45l-14.21-23.31c-13.56,7.9-29.91,12.17-41.52,11.33l-3.9-18.86c11.7,.46,26.38-2.42,39.29-10.31,16.44-9.94,21.74-26.19,13.75-39.38s-21.55-15.05-42.82-11.61c-29.17,5.11-50.25,3.25-62.42-16.81-12.17-20.06-6.87-42.08,12.35-58.43l-14.21-23.31,14.3-8.73,13.65,22.39c14.12-7.99,25.92-10.03,35.02-10.12l3.44,18.76c-6.5,.19-19.13,.84-33.9,9.85-17.83,10.77-18.02,25.54-12.45,34.74,7.34,11.98,19.51,12.82,44.68,8.92,29.72-4.74,49.04,0,61.49,20.53,11.05,18.3,8.73,43.1-12.63,61.49l14.58,24.06-14.58,8.82h.09Z"/>
    </g>
  </g>
  <g>
    <rect class="cls-1" x="67.57" y="330.4" width="864.87" height="339.22" transform="translate(-153.14 229.06) rotate(-22.47)"/>
    <path class="cls-5" d="M909.34,490.3L203.5,782.25c-5.85-14.21-22.2-20.99-36.41-15.14l-91.4-221.07c14.21-5.85,20.99-22.2,15.14-36.41L796.67,217.68c5.85,14.21,22.2,20.99,36.41,15.14l91.4,221.07c-14.21,5.85-20.99,22.2-15.14,36.41Z"/>
    <circle class="cls-5" cx="214.65" cy="618.02" r="27.12"/>
    <circle class="cls-5" cx="785.53" cy="381.91" r="27.12"/>
    <circle class="cls-2" cx="500.09" cy="499.96" r="147.5"/>
    <g>
      <path class="cls-5" d="M693.94,539.91l-10.4-25.27c-14.58,5.76-31.49,7.43-42.82,4.83l-.93-19.23c11.52,2.32,26.47,1.67,40.41-4.18,17.74-7.34,25.45-22.57,19.6-36.78-5.67-13.75-18.95-18.21-40.5-18.02-29.63,.56-50.16-4.46-59.08-26.19-8.55-20.71-.37-42.63,21.09-55.82l-10.4-25.27,15.51-6.41,10.03,24.24c15.23-5.67,27.12-5.94,36.13-4.74l.56,19.04c-6.5-.84-19.04-2.04-35.02,4.55-19.23,7.99-21.74,22.48-17.56,32.42,5.39,13,17.28,15.7,42.73,15.7,30.1-.19,48.49,7.43,57.68,29.72,8.17,19.78,2.04,43.94-21.92,58.8l10.77,26.01-15.7,6.5-.19,.09Z"/>
      <path class="cls-5" d="M533.99,606.04l-10.4-25.27c-14.58,5.76-31.49,7.43-42.82,4.83l-.93-19.23c11.52,2.32,26.47,1.67,40.41-4.18,17.74-7.34,25.45-22.57,19.6-36.78-5.85-14.21-18.95-18.21-40.5-18.02-29.63,.56-50.16-4.46-59.08-26.19-8.55-20.71-.37-42.63,21.09-55.82l-10.4-25.27,15.51-6.41,10.03,24.24c15.23-5.67,27.12-5.94,36.13-4.74l.56,19.04c-6.5-.84-19.04-2.04-35.02,4.55-19.23,7.99-21.74,22.48-17.56,32.42,5.39,13,17.28,15.7,42.73,15.7,30.1-.19,48.49,7.43,57.68,29.72,8.17,19.78,2.04,43.94-21.92,58.8l10.77,26.01-15.7,6.5-.19,.09Z"/>
      <path class="cls-5" d="M374.13,672.18l-10.4-25.27c-14.58,5.76-31.49,7.43-42.82,4.83l-.93-19.23c11.52,2.32,26.47,1.67,40.41-4.18,17.74-7.34,25.45-22.57,19.6-36.78-5.85-14.21-18.95-18.21-40.5-18.02-29.63,.56-50.16-4.46-59.08-26.19s-.37-42.63,21.09-55.82l-10.4-25.27,15.51-6.41,10.03,24.24c15.23-5.67,27.12-5.94,36.13-4.74l.56,19.04c-6.5-.84-19.04-2.04-35.02,4.55-19.23,7.99-21.74,22.48-17.56,32.42,5.39,13,17.28,15.7,42.73,15.7,30.1-.19,48.49,7.43,57.68,29.72,8.17,19.78,2.04,43.94-21.92,58.8l10.77,26.01-15.7,6.5-.19,.09Z"/>
    </g>
  </g>
  <g>
    <rect class="cls-4" x="67.57" y="330.35" width="864.87" height="339.22" transform="translate(-100.04 125.92) rotate(-13.06)"/>
    <path class="cls-5" d="M905.44,557.28L161.33,729.95c-3.44-14.95-18.48-24.34-33.44-20.81l-54.06-233.05c14.95-3.44,24.34-18.48,20.81-33.44l744.21-172.68c3.44,14.95,18.48,24.34,33.44,20.81l54.06,233.05c-14.95,3.44-24.34,18.48-20.81,33.44h-.09Z"/>
    <circle class="cls-5" cx="199.13" cy="569.82" r="27.12"/>
    <circle class="cls-5" cx="801.04" cy="430.11" r="27.12"/>
    <circle class="cls-2" cx="500.09" cy="499.96" r="147.5"/>
    <g>
      <path class="cls-5" d="M684.74,571.12l-6.13-26.57c-15.33,3.25-32.23,2.23-43.01-2.23l2.23-19.13c10.96,4.09,25.82,5.94,40.59,2.51,18.67-4.37,28.79-18.11,25.36-33.07-3.44-14.95-15.7-21.09-37.06-24.43-29.35-4.27-48.77-12.54-54.06-35.48-5.11-21.83,6.59-42.08,29.91-51.64l-6.13-26.57,16.35-3.81,5.94,25.54c15.88-3.16,27.68-1.39,36.41,1.3l-2.6,18.95c-6.22-1.86-18.39-5.2-35.3-1.3-20.25,4.74-25.08,18.58-22.66,29.17,3.16,13.75,14.49,18.3,39.66,22.48,29.72,4.74,46.54,15.33,52.02,38.73,4.83,20.81-5.11,43.66-31.21,54.43l6.32,27.4-16.63,3.81v-.09Z"/>
      <path class="cls-5" d="M516.25,610.22l-6.13-26.57c-15.33,3.25-32.23,2.23-43.01-2.23l2.23-19.13c10.96,4.09,25.82,5.94,40.59,2.51,18.67-4.37,28.79-18.11,25.36-33.07-3.34-14.49-15.7-21.09-37.06-24.43-29.35-4.27-48.77-12.54-54.06-35.48-5.29-22.94,6.59-42.08,29.91-51.64l-6.13-26.57,16.35-3.81,5.94,25.54c15.88-3.16,27.68-1.39,36.41,1.3l-2.6,18.95c-6.22-1.86-18.39-5.2-35.3-1.3-20.25,4.74-25.08,18.58-22.66,29.17,3.16,13.75,14.49,18.3,39.66,22.48,29.72,4.74,46.54,15.33,52.02,38.73,4.83,20.81-5.11,43.66-31.21,54.43l6.32,27.4-16.63,3.81v-.09Z"/>
      <path class="cls-5" d="M347.66,649.33l-6.13-26.57c-15.33,3.25-32.23,2.23-43.01-2.23l2.23-19.13c10.96,4.09,25.82,5.94,40.59,2.51,18.67-4.37,28.79-18.11,25.36-33.07-3.44-14.95-15.7-21.09-37.06-24.43-29.35-4.27-48.77-12.54-54.06-35.48-5.11-21.83,6.59-42.08,29.91-51.64l-6.13-26.57,16.35-3.81,5.94,25.54c15.88-3.16,27.68-1.39,36.41,1.3l-2.6,18.95c-6.22-1.86-18.39-5.2-35.3-1.3-20.25,4.74-25.08,18.58-22.66,29.17,3.16,13.75,14.49,18.3,39.66,22.48,29.72,4.74,46.54,15.33,52.02,38.73,4.83,20.81-5.11,43.66-31.21,54.43l6.32,27.4-16.63,3.81v-.09Z"/>
    </g>
  </g>
</svg>