<?xml version="1.0" encoding="UTF-8"?>
<svg id="Layer_1" data-name="Layer 1" xmlns="http://www.w3.org/2000/svg" viewBox="0 0 1000 1000">
  <defs>
    <style>
      .cls-1 {
        fill: #e9e9e9;
      }

      .cls-1, .cls-2 {
        stroke: #ff931e;
        stroke-miterlimit: 10;
        stroke-width: 3px;
      }

      .cls-3 {
        fill: #ff931e;
      }

      .cls-2 {
        fill: #fff;
      }
    </style>
  </defs>
  <g>
    <rect class="cls-1" x="559.85" y="437.58" width="404.58" height="426.96" rx="19.59" ry="19.59"/>
    <rect class="cls-3" x="585.89" y="864.54" width="352.49" height="48.18"/>
    <circle class="cls-3" cx="602.29" cy="480.02" r="8.68"/>
    <circle class="cls-3" cx="921.98" cy="480.02" r="8.68"/>
    <circle class="cls-3" cx="921.98" cy="822.09" r="8.68"/>
    <circle class="cls-3" cx="602.29" cy="822.09" r="8.68"/>
    <circle class="cls-2" cx="762.14" cy="651.77" r="126.76"/>
    <circle class="cls-3" cx="762.14" cy="651.77" r="56.37"/>
  </g>
  <g>
    <rect class="cls-1" x="35.57" y="87.28" width="469.38" height="769.54" rx="19.59" ry="19.59"/>
    <circle class="cls-2" cx="270.26" cy="609.98" r="147.06"/>
    <rect class="cls-3" x="65.79" y="856.82" width="408.95" height="55.9"/>
    <circle class="cls-3" cx="84.82" cy="136.52" r="10.07"/>
    <circle class="cls-3" cx="455.71" cy="136.52" r="10.07"/>
    <circle class="cls-3" cx="455.71" cy="807.58" r="10.07"/>
    <circle class="cls-3" cx="84.82" cy="807.58" r="10.07"/>
    <circle class="cls-2" cx="270.26" cy="312.39" r="87.14"/>
    <circle class="cls-3" cx="270.26" cy="312.39" r="37.27"/>
    <circle class="cls-3" cx="270.26" cy="609.98" r="65.4"/>
  </g>
</svg>