<?xml version="1.0" encoding="utf-8"?>
<!-- Generator: Adobe Illustrator 27.0.1, SVG Export Plug-In . SVG Version: 6.00 Build 0)  -->
<svg version="1.1" id="Layer_1" xmlns="http://www.w3.org/2000/svg" xmlns:xlink="http://www.w3.org/1999/xlink" x="0px" y="0px"
	 viewBox="0 0 1000 1000" style="enable-background:new 0 0 1000 1000;" xml:space="preserve">
<style type="text/css">
	.st0{fill:#E9E9E9;}
	.st1{fill:#F39C12;}
	.st2{fill:#FFFFFF;stroke:#F39C12;stroke-width:3.0252;stroke-miterlimit:10;}
	.st3{fill:#E9E9E9;stroke:#F39C12;stroke-width:3;stroke-miterlimit:10;}
</style>
<g>
	<path class="st0" d="M61.4,207.7h877.2c13.5,0,24.5,11,24.5,24.5v535.6c0,13.5-11,24.5-24.5,24.5H61.4c-13.5,0-24.5-11-24.5-24.5
		V232.2C36.9,218.7,47.9,207.7,61.4,207.7L61.4,207.7z"/>
	<path class="st1" d="M938.6,209c12.8,0,23.2,10.4,23.2,23.2v535.6c0,12.8-10.4,23.2-23.2,23.2H61.4c-12.8,0-23.2-10.4-23.2-23.2
		V232.2c0-12.8,10.4-23.2,23.2-23.2H938.6 M938.6,206.4H61.4c-14.3,0-25.8,11.6-25.8,25.8v535.6c0,14.3,11.6,25.8,25.8,25.8h877.2
		c14.3,0,25.8-11.6,25.8-25.8V232.2C964.4,217.9,952.9,206.4,938.6,206.4L938.6,206.4L938.6,206.4z"/>
</g>
<path class="st2" d="M79.5,238.4h827c5.6,0,10.2,4.5,10.2,10v503.1c0,5.5-4.6,10-10.2,10h-827c-5.6,0-10.2-4.5-10.2-10V248.4
	C69.3,242.9,73.9,238.4,79.5,238.4z"/>
<path class="st3" d="M927.1,518.9v-37.9c0-7,5.7-12.6,12.6-12.6l0,0c7,0,12.6,5.7,12.6,12.6v37.9c0,7-5.7,12.6-12.6,12.6l0,0
	C932.8,531.6,927.1,525.9,927.1,518.9z"/>
</svg>
