<?xml version="1.0" encoding="utf-8"?>
<!-- Generator: Adobe Illustrator 27.0.1, SVG Export Plug-In . SVG Version: 6.00 Build 0)  -->
<svg version="1.1" id="Layer_1" xmlns="http://www.w3.org/2000/svg" xmlns:xlink="http://www.w3.org/1999/xlink" x="0px" y="0px"
	 viewBox="0 0 1000 1000" style="enable-background:new 0 0 1000 1000;" xml:space="preserve">
<style type="text/css">
	.st0{fill:#E9E9E9;}
	.st1{fill:#F39C12;}
	.st2{fill:#FFFFFF;stroke:#F39C12;stroke-width:3.0252;stroke-miterlimit:10;}
	.st3{fill:#E9E9E9;stroke:#F39C12;stroke-width:3;stroke-miterlimit:10;}
	.st4{fill:#E2B588;}
	.st5{fill:#E5A865;}
	.st6{fill:#F2A02A;}
	.st7{fill:#EDA23E;}
	.st8{fill:#F39C12;stroke:#E9E9E9;stroke-width:2;stroke-miterlimit:10;}
	.st9{opacity:0.3;fill:#FFFFFF;stroke:#F39C12;stroke-width:2;stroke-miterlimit:10;}
	.st10{fill:#E9E9E9;stroke:#F39C12;stroke-miterlimit:10;}
</style>
<g>
	<g>
		<path class="st0" d="M792.3,61.4v877.2c0,13.5-11,24.5-24.5,24.5H232.2c-13.5,0-24.5-11-24.5-24.5V61.4c0-13.5,11-24.5,24.5-24.5
			h535.6C781.3,36.9,792.3,47.9,792.3,61.4L792.3,61.4z"/>
		<path class="st1" d="M791,938.6c0,12.8-10.4,23.2-23.2,23.2H232.2c-12.8,0-23.2-10.4-23.2-23.2V61.4c0-12.8,10.4-23.2,23.2-23.2
			h535.6c12.8,0,23.2,10.4,23.2,23.2V938.6 M793.6,938.6V61.4c0-14.3-11.6-25.8-25.8-25.8H232.2c-14.3,0-25.8,11.6-25.8,25.8v877.2
			c0,14.3,11.6,25.8,25.8,25.8h535.6C782.1,964.4,793.6,952.9,793.6,938.6L793.6,938.6L793.6,938.6z"/>
	</g>
	<path class="st2" d="M761.6,79.5v827c0,5.6-4.5,10.2-10,10.2H248.5c-5.5,0-10-4.6-10-10.2v-827c0-5.6,4.5-10.2,10-10.2h503.1
		C757.1,69.3,761.6,73.9,761.6,79.5z"/>
	<path class="st3" d="M481.1,927.1H519c7,0,12.6,5.7,12.6,12.6l0,0c0,7-5.7,12.6-12.6,12.6h-37.9c-7,0-12.6-5.7-12.6-12.6l0,0
		C468.4,932.8,474.1,927.1,481.1,927.1z"/>
</g>
<g>
	<path class="st4" d="M251.8,69.3h73.7c-8.8,59.9-4,122.1,8.2,181.7c22.4,110,67.7,216,91.3,325.8c8.9,41.4,14.7,83.2,19.5,125.1
		c0.9,7.8,1.7,15.6,2.5,23.4l0,0c-7.6,26.5-14.4,53.1-19.9,80c-7.4,36.5-12.1,74-12.6,111.3H251.8c-7.4,0-13.3-5.1-13.3-11.7V81
		C238.5,74.6,244.3,69.3,251.8,69.3z"/>
	<path class="st5" d="M325.5,69.3h165c0.8,35.9,5.4,72,12.5,107.1c9.8,48,23.9,95.2,38.7,142.3l0,0c-1.1,11.9-2.4,23.8-3.8,35.7
		c-4.8,41.9-10.6,83.7-19.5,125.1c-17.9,83-48.1,163.8-71.5,245.9c-0.8-7.8-1.7-15.6-2.5-23.4c-4.8-41.9-10.6-83.7-19.5-125.1
		C401.3,467.1,356,361,333.6,251C321.5,191.4,316.7,129.2,325.5,69.3z"/>
	<path class="st6" d="M490.2,69.3h212.2c-1,41.1-4.7,82.2-9.3,123.2c-4.8,41.9-10.6,83.7-19.5,125.1
		c-17.4,80.6-46.4,159.2-69.5,238.9c-2.9-18.1-6.2-36.2-10-54.2c-7.7-35.9-17.8-71.3-28.6-106.7c-7.8-25.7-16.1-51.2-24.1-76.9l0,0
		c-14.8-47.1-28.9-94.3-38.7-142.3C495.6,141.3,491,105.2,490.2,69.3z"/>
	<path class="st1" d="M701.5,69.3h46.8c7.4,0,13.3,5.3,13.3,11.7v824c0,1-0.1,2-0.4,3c-0.1,0.2-0.1,0.4-0.2,0.6
		c-0.2,0.6-0.5,1.2-0.8,1.8c-0.2,0.3-0.3,0.5-0.5,0.7c-0.2,0.3-0.5,0.6-0.7,0.9c-2.4,2.8-6.3,4.6-10.7,4.6H599.1
		c-31.6-71.8-35.6-151.6-25.2-229.1c2-14.8,4.5-29.6,7.5-44.1c6-29.2,13.5-58.2,21.9-87c23.1-79.6,52.1-158.2,69.5-238.9
		c8.9-41.4,14.7-83.2,19.5-125.1C696.8,151.5,700.5,110.4,701.5,69.3z"/>
	<g>
		<path class="st7" d="M541.7,318.7c8,25.6,16.3,51.2,24.1,76.9c10.8,35.3,20.8,70.8,28.6,106.7c3.9,18,7.2,36.1,10,54.2
			c-8.3,28.8-15.9,57.7-21.9,87c-3,14.6-5.5,29.3-7.5,44.1c-10.5,77.5-6.4,157.3,25.2,229.1H414.5c0.5-37.3,5.2-74.8,12.6-111.3
			c5.5-26.9,12.3-53.5,19.9-80l0,0c23.4-82,53.6-162.9,71.5-245.9c8.9-41.4,14.7-83.2,19.5-125.1
			C539.3,342.5,540.6,330.6,541.7,318.7z"/>
	</g>
</g>
<g>
	<path class="st8" d="M327.7,171h-50.6c-5.3,0-9.7-4.3-9.7-9.7v-50.7c0-5.3,4.3-9.7,9.7-9.7h50.6c5.3,0,9.7,4.3,9.7,9.7v50.6
		C337.4,166.6,333.1,171,327.7,171z"/>
	<path class="st8" d="M459.5,171h-50.6c-5.3,0-9.7-4.3-9.7-9.7v-50.7c0-5.3,4.3-9.7,9.7-9.7h50.6c5.3,0,9.7,4.3,9.7,9.7v50.6
		C469.1,166.6,464.8,171,459.5,171z"/>
	<path class="st8" d="M591.2,171h-50.6c-5.3,0-9.7-4.3-9.7-9.7v-50.7c0-5.3,4.3-9.7,9.7-9.7h50.6c5.3,0,9.7,4.3,9.7,9.7v50.6
		C600.9,166.6,596.5,171,591.2,171z"/>
	<path class="st8" d="M722.9,171h-50.6c-5.3,0-9.7-4.3-9.7-9.7v-50.7c0-5.3,4.3-9.7,9.7-9.7h50.6c5.3,0,9.7,4.3,9.7,9.7v50.6
		C732.6,166.6,728.3,171,722.9,171z"/>
</g>
<g>
	<path class="st8" d="M327.7,280.6h-50.6c-5.3,0-9.7-4.3-9.7-9.7v-50.6c0-5.3,4.3-9.7,9.7-9.7h50.6c5.3,0,9.7,4.3,9.7,9.7v50.6
		C337.4,276.3,333.1,280.6,327.7,280.6z"/>
	<path class="st8" d="M459.5,280.6h-50.6c-5.3,0-9.7-4.3-9.7-9.7v-50.6c0-5.3,4.3-9.7,9.7-9.7h50.6c5.3,0,9.7,4.3,9.7,9.7v50.6
		C469.1,276.3,464.8,280.6,459.5,280.6z"/>
	<path class="st8" d="M591.2,280.6h-50.6c-5.3,0-9.7-4.3-9.7-9.7v-50.6c0-5.3,4.3-9.7,9.7-9.7h50.6c5.3,0,9.7,4.3,9.7,9.7v50.6
		C600.9,276.3,596.5,280.6,591.2,280.6z"/>
	<path class="st8" d="M722.9,280.6h-50.6c-5.3,0-9.7-4.3-9.7-9.7v-50.6c0-5.3,4.3-9.7,9.7-9.7h50.6c5.3,0,9.7,4.3,9.7,9.7v50.6
		C732.6,276.3,728.3,280.6,722.9,280.6z"/>
</g>
<g>
	<path class="st8" d="M327.7,390.3h-50.6c-5.3,0-9.7-4.3-9.7-9.7V330c0-5.3,4.3-9.7,9.7-9.7h50.6c5.3,0,9.7,4.3,9.7,9.7v50.6
		C337.4,386,333.1,390.3,327.7,390.3z"/>
	<path class="st8" d="M459.5,390.3h-50.6c-5.3,0-9.7-4.3-9.7-9.7V330c0-5.3,4.3-9.7,9.7-9.7h50.6c5.3,0,9.7,4.3,9.7,9.7v50.6
		C469.1,386,464.8,390.3,459.5,390.3z"/>
	<path class="st8" d="M591.2,390.3h-50.6c-5.3,0-9.7-4.3-9.7-9.7V330c0-5.3,4.3-9.7,9.7-9.7h50.6c5.3,0,9.7,4.3,9.7,9.7v50.6
		C600.9,386,596.5,390.3,591.2,390.3z"/>
	<path class="st8" d="M722.9,390.3h-50.6c-5.3,0-9.7-4.3-9.7-9.7V330c0-5.3,4.3-9.7,9.7-9.7h50.6c5.3,0,9.7,4.3,9.7,9.7v50.6
		C732.6,386,728.3,390.3,722.9,390.3z"/>
</g>
<g>
	<path class="st8" d="M327.7,500h-50.6c-5.3,0-9.7-4.3-9.7-9.7v-50.6c0-5.3,4.3-9.7,9.7-9.7h50.6c5.3,0,9.7,4.3,9.7,9.7v50.6
		C337.4,495.6,333.1,500,327.7,500z"/>
	<path class="st8" d="M459.5,500h-50.6c-5.3,0-9.7-4.3-9.7-9.7v-50.6c0-5.3,4.3-9.7,9.7-9.7h50.6c5.3,0,9.7,4.3,9.7,9.7v50.6
		C469.1,495.6,464.8,500,459.5,500z"/>
	<path class="st8" d="M591.2,500h-50.6c-5.3,0-9.7-4.3-9.7-9.7v-50.6c0-5.3,4.3-9.7,9.7-9.7h50.6c5.3,0,9.7,4.3,9.7,9.7v50.6
		C600.9,495.6,596.5,500,591.2,500z"/>
	<path class="st8" d="M722.9,500h-50.6c-5.3,0-9.7-4.3-9.7-9.7v-50.6c0-5.3,4.3-9.7,9.7-9.7h50.6c5.3,0,9.7,4.3,9.7,9.7v50.6
		C732.6,495.6,728.3,500,722.9,500z"/>
</g>
<path class="st9" d="M740.2,905.5H261.6c-5.5,0-10-4.5-10-10v-35c0-5.5,4.5-10,10-10h478.6c5.5,0,10,4.5,10,10v35
	C750.2,901,745.7,905.5,740.2,905.5z"/>
<path class="st8" d="M317,896.8h-27.6c-2.8,0-5-2.2-5-5v-27.6c0-2.8,2.2-5,5-5H317c2.8,0,5,2.2,5,5v27.6
	C322,894.5,319.8,896.8,317,896.8z"/>
<path class="st8" d="M415.8,896.8h-27.6c-2.8,0-5-2.2-5-5v-27.6c0-2.8,2.2-5,5-5h27.6c2.8,0,5,2.2,5,5v27.6
	C420.8,894.5,418.6,896.8,415.8,896.8z"/>
<path class="st8" d="M514.7,896.8h-27.6c-2.8,0-5-2.2-5-5v-27.6c0-2.8,2.2-5,5-5h27.6c2.8,0,5,2.2,5,5v27.6
	C519.7,894.5,517.4,896.8,514.7,896.8z"/>
<path class="st8" d="M613.5,896.8h-27.6c-2.8,0-5-2.2-5-5v-27.6c0-2.8,2.2-5,5-5h27.6c2.8,0,5,2.2,5,5v27.6
	C618.5,894.5,616.3,896.8,613.5,896.8z"/>
<path class="st8" d="M712.3,896.8h-27.6c-2.8,0-5-2.2-5-5v-27.6c0-2.8,2.2-5,5-5h27.6c2.8,0,5,2.2,5,5v27.6
	C717.3,894.5,715.1,896.8,712.3,896.8z"/>
<g>
	<circle class="st10" cx="473.9" cy="827.6" r="6.6"/>
	<circle class="st10" cx="500" cy="827.6" r="6.6"/>
	<circle class="st10" cx="526.1" cy="827.6" r="6.6"/>
</g>
</svg>
