<?xml version="1.0" encoding="utf-8"?>
<!-- Generator: Adobe Illustrator 27.0.1, SVG Export Plug-In . SVG Version: 6.00 Build 0)  -->
<svg version="1.1" id="Layer_1" xmlns="http://www.w3.org/2000/svg" xmlns:xlink="http://www.w3.org/1999/xlink" x="0px" y="0px"
	 viewBox="0 0 1000 1000" style="enable-background:new 0 0 1000 1000;" xml:space="preserve">
<style type="text/css">
	.st0{fill:#E9E9E9;}
	.st1{fill:#F39C12;}
	.st2{fill:#FFFFFF;stroke:#F39C12;stroke-width:3.0252;stroke-miterlimit:10;}
	.st3{fill:#E9E9E9;stroke:#F39C12;stroke-width:3;stroke-miterlimit:10;}
	.st4{fill:#E2B588;}
	.st5{fill:#E5A865;}
	.st6{fill:#EDA23E;}
	.st7{fill:#F2A02A;}
	.st8{fill:#F39C12;stroke:#E9E9E9;stroke-width:2;stroke-miterlimit:10;}
	.st9{opacity:0.3;fill:#FFFFFF;stroke:#F39C12;stroke-width:2;stroke-miterlimit:10;enable-background:new    ;}
	.st10{fill:#E9E9E9;stroke:#F39C12;stroke-miterlimit:10;}
</style>
<g>
	<g>
		<path class="st0" d="M792.3,61.4v877.2c0,13.5-11,24.5-24.5,24.5H232.2c-13.5,0-24.5-11-24.5-24.5V61.4c0-13.5,11-24.5,24.5-24.5
			h535.6C781.3,36.9,792.3,47.9,792.3,61.4L792.3,61.4z"/>
		<path class="st1" d="M791,938.6c0,12.8-10.4,23.2-23.2,23.2H232.2c-12.8,0-23.2-10.4-23.2-23.2V61.4c0-12.8,10.4-23.2,23.2-23.2
			h535.6c12.8,0,23.2,10.4,23.2,23.2V938.6 M793.6,938.6V61.4c0-14.3-11.6-25.8-25.8-25.8H232.2c-14.3,0-25.8,11.6-25.8,25.8v877.2
			c0,14.3,11.6,25.8,25.8,25.8h535.6C782.1,964.4,793.6,952.9,793.6,938.6L793.6,938.6L793.6,938.6z"/>
	</g>
	<path class="st2" d="M761.6,79.5v827c0,5.6-4.5,10.2-10,10.2H248.5c-5.5,0-10-4.6-10-10.2v-827c0-5.6,4.5-10.2,10-10.2h503.1
		C757.1,69.3,761.6,73.9,761.6,79.5z"/>
	<path class="st3" d="M481.1,927.1H519c7,0,12.6,5.7,12.6,12.6l0,0c0,7-5.7,12.6-12.6,12.6h-37.9c-7,0-12.6-5.7-12.6-12.6l0,0
		C468.4,932.8,474.1,927.1,481.1,927.1z"/>
</g>
<g>
	<path class="st4" d="M248.5,69.3h503.1c5.5,0,10,4.5,10,10v827.4c0,5.5-4.5,10-10,10H248.5c-5.5,0-10-4.5-10-10V79.3
		C238.5,73.8,243,69.3,248.5,69.3z"/>
	<g>
		<circle class="st5" cx="500" cy="695.1" r="163"/>
		<circle class="st6" cx="500" cy="560.4" r="163"/>
		<circle class="st7" cx="500" cy="425.6" r="163"/>
		<circle class="st1" cx="500" cy="290.9" r="163"/>
	</g>
</g>
<g>
	<path class="st8" d="M327.7,171h-50.6c-5.3,0-9.7-4.3-9.7-9.7v-50.7c0-5.3,4.3-9.7,9.7-9.7h50.6c5.3,0,9.7,4.3,9.7,9.7v50.6
		C337.4,166.6,333.1,171,327.7,171z"/>
	<path class="st8" d="M459.5,171h-50.6c-5.3,0-9.7-4.3-9.7-9.7v-50.7c0-5.3,4.3-9.7,9.7-9.7h50.6c5.3,0,9.7,4.3,9.7,9.7v50.6
		C469.1,166.6,464.8,171,459.5,171z"/>
	<path class="st8" d="M591.2,171h-50.6c-5.3,0-9.7-4.3-9.7-9.7v-50.7c0-5.3,4.3-9.7,9.7-9.7h50.6c5.3,0,9.7,4.3,9.7,9.7v50.6
		C600.9,166.6,596.5,171,591.2,171z"/>
	<path class="st8" d="M722.9,171h-50.6c-5.3,0-9.7-4.3-9.7-9.7v-50.7c0-5.3,4.3-9.7,9.7-9.7h50.6c5.3,0,9.7,4.3,9.7,9.7v50.6
		C732.6,166.6,728.3,171,722.9,171z"/>
</g>
<g>
	<path class="st8" d="M327.7,280.6h-50.6c-5.3,0-9.7-4.3-9.7-9.7v-50.6c0-5.3,4.3-9.7,9.7-9.7h50.6c5.3,0,9.7,4.3,9.7,9.7v50.6
		C337.4,276.3,333.1,280.6,327.7,280.6z"/>
	<path class="st8" d="M459.5,280.6h-50.6c-5.3,0-9.7-4.3-9.7-9.7v-50.6c0-5.3,4.3-9.7,9.7-9.7h50.6c5.3,0,9.7,4.3,9.7,9.7v50.6
		C469.1,276.3,464.8,280.6,459.5,280.6z"/>
	<path class="st8" d="M591.2,280.6h-50.6c-5.3,0-9.7-4.3-9.7-9.7v-50.6c0-5.3,4.3-9.7,9.7-9.7h50.6c5.3,0,9.7,4.3,9.7,9.7v50.6
		C600.9,276.3,596.5,280.6,591.2,280.6z"/>
	<path class="st8" d="M722.9,280.6h-50.6c-5.3,0-9.7-4.3-9.7-9.7v-50.6c0-5.3,4.3-9.7,9.7-9.7h50.6c5.3,0,9.7,4.3,9.7,9.7v50.6
		C732.6,276.3,728.3,280.6,722.9,280.6z"/>
</g>
<g>
	<path class="st8" d="M327.7,390.3h-50.6c-5.3,0-9.7-4.3-9.7-9.7V330c0-5.3,4.3-9.7,9.7-9.7h50.6c5.3,0,9.7,4.3,9.7,9.7v50.6
		C337.4,386,333.1,390.3,327.7,390.3z"/>
	<path class="st8" d="M459.5,390.3h-50.6c-5.3,0-9.7-4.3-9.7-9.7V330c0-5.3,4.3-9.7,9.7-9.7h50.6c5.3,0,9.7,4.3,9.7,9.7v50.6
		C469.1,386,464.8,390.3,459.5,390.3z"/>
	<path class="st8" d="M591.2,390.3h-50.6c-5.3,0-9.7-4.3-9.7-9.7V330c0-5.3,4.3-9.7,9.7-9.7h50.6c5.3,0,9.7,4.3,9.7,9.7v50.6
		C600.9,386,596.5,390.3,591.2,390.3z"/>
	<path class="st8" d="M722.9,390.3h-50.6c-5.3,0-9.7-4.3-9.7-9.7V330c0-5.3,4.3-9.7,9.7-9.7h50.6c5.3,0,9.7,4.3,9.7,9.7v50.6
		C732.6,386,728.3,390.3,722.9,390.3z"/>
</g>
<g>
	<path class="st8" d="M327.7,500h-50.6c-5.3,0-9.7-4.3-9.7-9.7v-50.6c0-5.3,4.3-9.7,9.7-9.7h50.6c5.3,0,9.7,4.3,9.7,9.7v50.6
		C337.4,495.6,333.1,500,327.7,500z"/>
	<path class="st8" d="M459.5,500h-50.6c-5.3,0-9.7-4.3-9.7-9.7v-50.6c0-5.3,4.3-9.7,9.7-9.7h50.6c5.3,0,9.7,4.3,9.7,9.7v50.6
		C469.1,495.6,464.8,500,459.5,500z"/>
	<path class="st8" d="M591.2,500h-50.6c-5.3,0-9.7-4.3-9.7-9.7v-50.6c0-5.3,4.3-9.7,9.7-9.7h50.6c5.3,0,9.7,4.3,9.7,9.7v50.6
		C600.9,495.6,596.5,500,591.2,500z"/>
	<path class="st8" d="M722.9,500h-50.6c-5.3,0-9.7-4.3-9.7-9.7v-50.6c0-5.3,4.3-9.7,9.7-9.7h50.6c5.3,0,9.7,4.3,9.7,9.7v50.6
		C732.6,495.6,728.3,500,722.9,500z"/>
</g>
<path class="st9" d="M740.2,905.5H261.6c-5.5,0-10-4.5-10-10v-35c0-5.5,4.5-10,10-10h478.6c5.5,0,10,4.5,10,10v35
	C750.2,901,745.7,905.5,740.2,905.5z"/>
<path class="st8" d="M317,896.8h-27.6c-2.8,0-5-2.2-5-5v-27.6c0-2.8,2.2-5,5-5H317c2.8,0,5,2.2,5,5v27.6
	C322,894.5,319.8,896.8,317,896.8z"/>
<path class="st8" d="M415.8,896.8h-27.6c-2.8,0-5-2.2-5-5v-27.6c0-2.8,2.2-5,5-5h27.6c2.8,0,5,2.2,5,5v27.6
	C420.8,894.5,418.6,896.8,415.8,896.8z"/>
<path class="st8" d="M514.7,896.8h-27.6c-2.8,0-5-2.2-5-5v-27.6c0-2.8,2.2-5,5-5h27.6c2.8,0,5,2.2,5,5v27.6
	C519.7,894.5,517.4,896.8,514.7,896.8z"/>
<path class="st8" d="M613.5,896.8h-27.6c-2.8,0-5-2.2-5-5v-27.6c0-2.8,2.2-5,5-5h27.6c2.8,0,5,2.2,5,5v27.6
	C618.5,894.5,616.3,896.8,613.5,896.8z"/>
<path class="st8" d="M712.3,896.8h-27.6c-2.8,0-5-2.2-5-5v-27.6c0-2.8,2.2-5,5-5h27.6c2.8,0,5,2.2,5,5v27.6
	C717.3,894.5,715.1,896.8,712.3,896.8z"/>
<g>
	<circle class="st10" cx="473.9" cy="827.6" r="6.6"/>
	<circle class="st10" cx="500" cy="827.6" r="6.6"/>
	<circle class="st10" cx="526.1" cy="827.6" r="6.6"/>
</g>
</svg>
