<?xml version="1.0" encoding="utf-8"?>
<!-- Generator: Adobe Illustrator 27.0.1, SVG Export Plug-In . SVG Version: 6.00 Build 0)  -->
<svg version="1.1" id="Layer_1" xmlns="http://www.w3.org/2000/svg" xmlns:xlink="http://www.w3.org/1999/xlink" x="0px" y="0px"
	 viewBox="0 0 1000 1000" style="enable-background:new 0 0 1000 1000;" xml:space="preserve">
<style type="text/css">
	.st0{fill:#FFFFFF;}
	.st1{fill:#F39C12;}
	.st2{fill:#E5A865;}
	.st3{fill:#E2B588;}
	.st4{fill:#E9E9E9;}
	.st5{fill:none;stroke:#F39C12;stroke-width:3;stroke-miterlimit:10;}
	.st6{fill:#E9E9E9;stroke:#E2B588;stroke-width:3;stroke-miterlimit:10;}
	.st7{fill:#E9E9E9;stroke:#F39C12;stroke-width:3;stroke-miterlimit:10;}
	.st8{fill:#E9E9E9;stroke:#E5A865;stroke-width:3;stroke-miterlimit:10;}
</style>
<g>
	<path class="st0" d="M941.5,255.5v432.8c0,5.5-4.5,10-10,10H68.5c-5.5,0-10-4.5-10-10V255.5c0-5.5,4.5-10,10-10h863.1
		C937.1,245.5,941.5,249.9,941.5,255.5z"/>
	<g>
		<g>
			<g>
				<path class="st1" d="M941.2,397.4c-55.4,13.4-109.7,30.6-165,44.1c-56.6,13.9-113.9,22.3-172.2,25.1
					c-57.3,2.7-114.7,0.8-171.9-2.9c-58.7-3.8-117.2-9.3-175.8-13.7c-58.6-4.3-117.3-7.5-176-6.3c-7.3,0.1-14.5,0.4-21.8,0.6
					c-1.9,0.1-1.9,3.1,0,3c58.7-2.3,117.5,0.1,176.1,4.1c58.9,4,117.7,9.6,176.6,13.8c57.7,4.1,115.5,6.8,173.3,5.1
					c57.6-1.7,114.7-8.2,170.9-20.9c55.8-12.6,110.4-29.8,165.7-44c6.9-1.8,13.9-3.5,20.9-5.2C943.8,399.8,943,396.9,941.2,397.4
					L941.2,397.4z"/>
			</g>
		</g>
		<g>
			<g>
				<path class="st1" d="M58.4,404.5c58.8,7.4,117.4,18.6,173.1,39.2c55.3,20.4,106.3,55,165.3,64.3c59.6,9.3,119.9-8.6,174.9-30.3
					c56.7-22.4,111.1-50.6,169.6-68.2c28.9-8.7,58.6-14.8,88.8-15.9c30-1.1,59.9,3.2,88.4,12.9c7.5,2.6,15,5.5,22.2,8.7
					c1.7,0.8,3.3-1.8,1.5-2.6c-26.7-11.8-55.1-19.4-84.2-21.5c-29.5-2.1-59.1,1.2-87.9,7.7c-59.5,13.5-114.6,40.3-170.4,64.1
					c-56.5,24.1-117.1,47.1-179.5,44.4c-61.4-2.6-113.7-36.1-169-59c-55-22.8-113.4-35.6-172.1-44c-6.9-1-13.8-1.9-20.8-2.8
					C56.5,401.3,56.6,404.3,58.4,404.5L58.4,404.5z"/>
			</g>
		</g>
		<g>
			<g>
				<path class="st1" d="M650.7,699.5c17.9-8.7,36.5-16.2,55.3-22.9c18.2-6.5,36.7-12.2,55.4-17.2c18.8-5,37.8-9.1,56.9-12.5
					c19.2-3.4,38.5-6,57.9-7.7c19.4-1.8,38.8-2.7,58.2-2.8c2.4,0,4.7,0,7.1,0c1.9,0,1.9-3,0-3c-19.5-0.1-39.1,0.7-58.5,2.3
					c-19.5,1.6-38.9,4-58.3,7.2c-19.3,3.2-38.4,7.2-57.3,12c-18.9,4.8-37.7,10.4-56.1,16.8c-18.7,6.5-37.3,13.7-55.3,22.1
					c-2.3,1.1-4.6,2.2-6.9,3.3C647.4,697.8,649,700.4,650.7,699.5L650.7,699.5z"/>
			</g>
		</g>
		<g>
			<g>
				<path class="st1" d="M58.4,334.7c29.9-0.8,59.9-2.1,89.8-4.4c29.7-2.3,59.3-5.5,88.6-10.2c28.6-4.5,57-10.4,85.1-17.3
					c28.1-6.9,56-14.9,83.6-23.7c27.7-8.8,55.1-18.3,82.3-28.4c3.4-1.3,6.8-2.5,10.2-3.8c1.8-0.7,1-3.6-0.8-2.9
					c-27.1,10.2-54.3,19.8-81.8,28.8c-27.4,8.9-55.1,17.1-83,24.3c-28,7.2-56.4,13.4-84.9,18.3c-29.4,5-59,8.6-88.6,11.1
					c-29.7,2.5-59.5,4-89.3,4.9c-3.7,0.1-7.5,0.2-11.2,0.3C56.5,331.7,56.5,334.7,58.4,334.7L58.4,334.7z"/>
			</g>
		</g>
	</g>
	<g>
		<g>
			<g>
				<path class="st2" d="M941.2,407.1c-55.4,13.5-109.7,30.7-165.1,44.2c-56.6,13.8-113.9,21.9-172.1,24.5
					c-57.4,2.6-115,0.5-172.3-3.3c-58.4-3.8-116.7-9.3-175-13.6c-58.6-4.3-117.5-7.4-176.3-6c-7.3,0.2-14.6,0.4-21.9,0.7
					c-1.9,0.1-1.9,3.1,0,3c58.8-2.4,117.7-0.1,176.3,3.8c58.9,4,117.8,9.6,176.7,13.8c57.5,4.1,115.1,6.9,172.7,5.3
					c57.5-1.6,114.7-7.8,170.9-20.3c56.3-12.5,111.4-29.8,167.2-44.3c6.5-1.7,13.1-3.3,19.6-4.9C943.8,409.6,943,406.7,941.2,407.1
					L941.2,407.1z"/>
			</g>
		</g>
		<g>
			<g>
				<path class="st2" d="M942.3,420.2c-27.1-11.6-55.8-18.9-85.3-20.5c-29.2-1.6-58.5,2-87,8.7c-59.4,13.9-114.3,41-170.2,64.6
					c-56,23.7-116.2,46.1-178,43.1c-60.9-2.9-112.8-36.3-167.7-59c-55.7-23-115-36-174.6-44.3c-7.1-1-14.1-1.9-21.2-2.8
					c-1.9-0.2-1.9,2.8,0,3c59.5,7.4,118.9,18.6,175.4,39.3c55.3,20.3,106.3,54.9,165.2,64.4c58.9,9.5,118.6-7.8,173-29.1
					c56.6-22.2,110.9-50.4,169.2-68.3c57.8-17.8,118.8-24.1,177.2-5c7.6,2.5,15.1,5.3,22.4,8.4C942.5,423.6,944.1,421,942.3,420.2
					L942.3,420.2z"/>
			</g>
		</g>
		<g>
			<g>
				<path class="st2" d="M673.4,699.5c16.6-7.1,33.6-13.5,50.8-19.1c17-5.6,34.1-10.6,51.5-14.8c17.4-4.3,34.9-7.9,52.5-10.8
					c17.7-2.9,35.4-5.2,53.3-6.7c17.8-1.6,35.7-2.4,53.5-2.6c2.2,0,4.4,0,6.6,0c1.9,0,1.9-3,0-3c-18,0-36.1,0.7-54.1,2.2
					c-17.9,1.4-35.7,3.5-53.4,6.3c-17.7,2.8-35.4,6.2-52.8,10.4c-17.6,4.2-34.9,9-52.1,14.5c-17.2,5.5-34.2,11.7-50.9,18.6
					c-2.1,0.9-4.2,1.8-6.3,2.7C670.1,697.7,671.6,700.3,673.4,699.5L673.4,699.5z"/>
			</g>
		</g>
		<g>
			<g>
				<path class="st2" d="M58.4,343.8c32-0.8,64-2.2,95.9-4.7c31.6-2.5,63.1-6.1,94.3-11.4c30.2-5.1,60.1-11.6,89.7-19.3
					c29.8-7.7,59.3-16.6,88.5-26.2c29.3-9.7,58.3-20.2,87.1-31.2c3.6-1.4,7.2-2.7,10.8-4.1c1.8-0.7,1-3.6-0.8-2.9
					c-28.6,11.1-57.5,21.7-86.5,31.5c-29,9.8-58.3,18.9-87.8,26.8c-29.5,8-59.4,14.8-89.5,20.3c-31.2,5.7-62.7,9.7-94.3,12.5
					c-31.7,2.8-63.6,4.4-95.4,5.3c-4,0.1-8,0.2-12,0.3C56.5,340.8,56.5,343.8,58.4,343.8L58.4,343.8z"/>
			</g>
		</g>
	</g>
	<g>
		<g>
			<g>
				<path class="st3" d="M58.4,466.6c59.1-2.4,118.2-0.1,177.1,3.9c57.9,3.9,115.7,9.4,173.6,13.6c57.8,4.2,115.8,7,173.7,5.5
					c57.9-1.5,115.6-7.7,172.2-20.3c56.3-12.5,111.4-29.8,167.3-44.3c6.5-1.7,13-3.3,19.6-4.9c1.9-0.5,1.1-3.3-0.8-2.9
					c-55.4,13.5-109.8,30.7-165.2,44.2c-56.9,13.8-114.5,22-173,24.5c-58.2,2.5-116.5,0.3-174.6-3.5c-57.3-3.8-114.5-9.2-171.8-13.4
					c-58.7-4.3-117.5-7.4-176.3-6.1c-7.3,0.2-14.6,0.4-21.9,0.7C56.5,463.7,56.5,466.7,58.4,466.6L58.4,466.6z"/>
			</g>
		</g>
		<g>
			<g>
				<path class="st3" d="M942.3,430.2c-27.1-11.6-55.8-18.9-85.3-20.5c-29.2-1.6-58.5,2-87,8.7c-58.9,13.8-113.5,40.6-168.9,64.1
					C545,506.4,484.7,529,422.7,526.2c-60.6-2.7-112.3-35.6-166.9-58.4c-56.1-23.4-115.9-36.5-175.9-44.9c-7.1-1-14.3-1.9-21.4-2.8
					c-1.9-0.2-1.9,2.8,0,3c60.5,7.5,120.9,18.9,178.2,40.3c54.3,20.3,104.5,54,162.4,63.4c59.1,9.5,119-7.9,173.6-29.4
					c56.4-22.1,110.5-50.2,168.6-68.1c57.8-17.8,118.8-24.1,177.2-5c7.6,2.5,15.1,5.3,22.4,8.5C942.5,433.6,944.1,431,942.3,430.2
					L942.3,430.2z"/>
			</g>
		</g>
		<g>
			<g>
				<path class="st3" d="M941.5,652.3c-16.3,0-32.5,0.6-48.7,1.8c-16.2,1.2-32.4,2.9-48.4,5.1c-16.1,2.3-32.1,5.1-48,8.5
					c-15.8,3.4-31.5,7.3-47.1,11.8c-15.6,4.5-31.1,9.5-46.4,15.1c-1.9,0.7-3.8,1.4-5.7,2.1c-1.8,0.7-1,3.6,0.8,2.9
					c15.1-5.7,30.5-10.9,46-15.5c15.5-4.6,31.2-8.7,47-12.2c15.8-3.5,31.7-6.5,47.7-8.9c16-2.4,32.1-4.3,48.3-5.5
					c16.1-1.3,32.3-2,48.5-2.2c2,0,4.1,0,6.1,0C943.5,655.3,943.5,652.3,941.5,652.3L941.5,652.3z"/>
			</g>
		</g>
		<g>
			<g>
				<path class="st3" d="M58.4,353.8c33.9-0.8,67.8-2.3,101.6-5.1c33.3-2.8,66.4-6.9,99.3-12.8c31.9-5.8,63.6-13.1,94.9-21.6
					c31.4-8.6,62.4-18.3,93.1-28.9c30.8-10.6,61.3-22,91.7-33.9c3.8-1.5,7.5-3,11.3-4.4c1.8-0.7,1-3.6-0.8-2.9
					c-30.2,11.9-60.5,23.5-91.1,34.2C427.9,289,397.1,299,366,307.8c-31.2,8.9-62.8,16.6-94.6,22.7c-32.8,6.4-65.9,10.9-99.2,14
					c-33.6,3.1-67.3,4.9-101.1,5.9c-4.2,0.1-8.4,0.2-12.6,0.3C56.5,350.8,56.5,353.8,58.4,353.8L58.4,353.8z"/>
			</g>
		</g>
	</g>
</g>
<g>
	<g>
		<path class="st4" d="M47.7,718.7c-6,0-10.6-4.4-10.6-9.9V235c0-5.6,4.7-9.9,10.6-9.9h904.6c5.9,0,10.6,4.5,10.6,9.9v473.9
			c0,5.5-4.8,9.9-10.6,9.9L47.7,718.7L47.7,718.7z M72,244.9c-7.7,0-13.6,5.7-13.6,12.9v428.1c0,7.2,6,12.9,13.6,12.9h856
			c7.5,0,13.6-5.8,13.6-12.9V257.8c0-7.1-6.1-12.9-13.6-12.9H72L72,244.9z"/>
		<path class="st1" d="M952.3,226.5c5,0,9.1,3.8,9.1,8.4v473.9c0,4.7-4.1,8.4-9.1,8.4H47.7c-5.1,0-9.1-3.7-9.1-8.4V235
			c0-4.7,4-8.4,9.1-8.4L952.3,226.5 M72,700.4h856c8.3,0,15.1-6.5,15.1-14.4V257.8c0-8-6.8-14.4-15.1-14.4H72
			c-8.5,0-15.1,6.3-15.1,14.4v428.1C56.9,694,63.5,700.4,72,700.4 M952.3,223.5H47.7c-6.8,0-12.1,5-12.1,11.4v473.9
			c0,6.4,5.3,11.4,12.1,11.4h904.6c6.7,0,12.1-5,12.1-11.4V235C964.4,228.6,959,223.5,952.3,223.5L952.3,223.5L952.3,223.5z
			 M72,697.4c-6.8,0-12.1-5-12.1-11.4V257.8c0-6.4,5.3-11.4,12.1-11.4h856c6.7,0,12.1,5,12.1,11.4v428.1c0,6.4-5.5,11.4-12.1,11.4
			L72,697.4L72,697.4z"/>
	</g>
</g>
<line class="st5" x1="455.4" y1="758.3" x2="455.4" y2="720.2"/>
<line class="st5" x1="544.6" y1="758.3" x2="544.6" y2="720.2"/>
<g>
	<path class="st4" d="M366,775c-4.2,0-7.6-3.4-7.6-7.6s3.4-7.6,7.6-7.6h268c4.2,0,7.6,3.4,7.6,7.6s-3.4,7.6-7.6,7.6H366z"/>
	<path class="st1" d="M634,761.3c3.4,0,6.1,2.7,6.1,6.1s-2.7,6.1-6.1,6.1H366c-3.4,0-6.1-2.7-6.1-6.1s2.7-6.1,6.1-6.1H634
		 M634,758.3H366c-5,0-9.1,4.1-9.1,9.1s4.1,9.1,9.1,9.1h268c5,0,9.1-4.1,9.1-9.1S639,758.3,634,758.3L634,758.3z"/>
</g>
<circle class="st6" cx="196.1" cy="471.9" r="65"/>
<circle class="st7" cx="803.9" cy="471.9" r="65"/>
<circle class="st8" cx="503.1" cy="471.9" r="80"/>
<g>
	<g>
		<g>
			<g>
				<path class="st1" d="M58.8,546.3c55.4-13.4,109.7-30.6,165-44.1c56.6-13.9,113.9-22.3,172.2-25.1c57.3-2.7,114.7-0.8,171.9,2.9
					c58.7,3.8,117.2,9.3,175.8,13.7c58.6,4.3,117.3,7.5,176,6.3c7.3-0.1,14.5-0.4,21.8-0.6c1.9-0.1,1.9-3.1,0-3
					c-58.7,2.3-117.5-0.1-176.1-4.1c-58.9-4-117.7-9.6-176.6-13.8c-57.7-4.1-115.5-6.8-173.3-5.1c-57.6,1.7-114.7,8.2-170.9,20.9
					c-55.8,12.6-110.4,29.8-165.7,44c-6.9,1.8-13.9,3.5-20.9,5.2C56.2,543.9,57,546.8,58.8,546.3L58.8,546.3z"/>
			</g>
		</g>
		<g>
			<g>
				<path class="st1" d="M941.5,539.2c-58.8-7.4-117.4-18.6-173.1-39.2c-55.3-20.4-106.3-55-165.3-64.3
					c-59.6-9.3-119.9,8.6-174.9,30.3c-56.7,22.4-111.1,50.6-169.6,68.2c-28.9,8.7-58.6,14.8-88.8,15.9c-30,1.1-59.9-3.2-88.4-12.9
					c-7.5-2.6-15-5.5-22.2-8.7c-1.7-0.8-3.3,1.8-1.5,2.6c26.7,11.8,55.1,19.4,84.2,21.5c29.5,2.1,59.1-1.2,87.9-7.7
					c59.5-13.5,114.6-40.3,170.4-64.1c56.5-24.1,117.1-47.1,179.5-44.4c61.4,2.6,113.7,36.1,169,59c55,22.8,113.4,35.6,172.1,44
					c6.9,1,13.8,1.9,20.8,2.8C943.5,542.4,943.4,539.4,941.5,539.2L941.5,539.2z"/>
			</g>
		</g>
		<g>
			<g>
				<path class="st1" d="M349.3,244.2c-17.9,8.7-36.5,16.2-55.3,22.9c-18.2,6.5-36.7,12.2-55.4,17.2c-18.8,5-37.8,9.1-56.9,12.5
					c-19.2,3.4-38.5,6-57.9,7.7c-19.4,1.8-38.8,2.7-58.2,2.8c-2.4,0-4.7,0-7.1,0c-1.9,0-1.9,3,0,3c19.5,0.1,39.1-0.7,58.5-2.3
					c19.5-1.6,38.9-4,58.3-7.2c19.3-3.2,38.4-7.2,57.3-12c18.9-4.8,37.7-10.4,56.1-16.8c18.7-6.5,37.3-13.7,55.3-22.1
					c2.3-1.1,4.6-2.2,6.9-3.3C352.6,245.9,351,243.3,349.3,244.2L349.3,244.2z"/>
			</g>
		</g>
		<g>
			<g>
				<path class="st1" d="M941.5,609c-29.9,0.8-59.9,2.1-89.8,4.4c-29.7,2.3-59.3,5.5-88.6,10.2c-28.6,4.5-57,10.4-85.1,17.3
					c-28.1,6.9-56,14.9-83.6,23.7c-27.7,8.8-55.1,18.3-82.3,28.4c-3.4,1.3-6.8,2.5-10.2,3.8c-1.8,0.7-1,3.6,0.8,2.9
					c27.1-10.2,54.3-19.8,81.8-28.8c27.4-8.9,55.1-17.1,83-24.3c28-7.2,56.4-13.4,84.9-18.3c29.4-5,59-8.6,88.6-11.1
					c29.7-2.5,59.5-4,89.3-4.9c3.7-0.1,7.5-0.2,11.2-0.3C943.5,612,943.5,609,941.5,609L941.5,609z"/>
			</g>
		</g>
	</g>
	<g>
		<g>
			<g>
				<path class="st2" d="M58.8,536.6c55.4-13.5,109.7-30.7,165.1-44.2c56.6-13.8,113.9-21.9,172.1-24.5c57.4-2.6,115-0.5,172.3,3.3
					c58.4,3.8,116.7,9.3,175,13.6c58.6,4.3,117.5,7.4,176.3,6c7.3-0.2,14.6-0.4,21.9-0.7c1.9-0.1,1.9-3.1,0-3
					c-58.8,2.4-117.7,0.1-176.3-3.8c-58.9-4-117.8-9.6-176.7-13.8c-57.5-4.1-115.1-6.9-172.7-5.3c-57.5,1.6-114.7,7.8-170.9,20.3
					c-56.3,12.5-111.4,29.8-167.2,44.3c-6.5,1.7-13.1,3.3-19.6,4.9C56.2,534.1,57,537,58.8,536.6L58.8,536.6z"/>
			</g>
		</g>
		<g>
			<g>
				<path class="st2" d="M57.7,523.5c27.1,11.6,55.8,18.9,85.3,20.5c29.2,1.6,58.5-2,87-8.7c59.4-13.9,114.3-41,170.2-64.6
					c56-23.7,116.2-46.1,178-43.1c60.9,2.9,112.8,36.3,167.7,59c55.7,23,115,36,174.6,44.3c7.1,1,14.1,1.9,21.2,2.8
					c1.9,0.2,1.9-2.8,0-3c-59.5-7.4-118.9-18.6-175.4-39.3C710.9,471,659.9,436.4,601,426.9c-58.9-9.5-118.6,7.8-173,29.1
					c-56.6,22.2-110.9,50.4-169.2,68.3c-57.8,17.8-118.8,24.1-177.2,5c-7.6-2.5-15.1-5.3-22.4-8.4C57.5,520.1,55.9,522.7,57.7,523.5
					L57.7,523.5z"/>
			</g>
		</g>
		<g>
			<g>
				<path class="st2" d="M326.6,244.2c-16.6,7.1-33.6,13.4-50.8,19.1c-17,5.6-34.1,10.6-51.5,14.8c-17.4,4.3-34.9,7.9-52.5,10.8
					c-17.7,2.9-35.4,5.2-53.3,6.7c-17.8,1.6-35.7,2.4-53.5,2.6c-2.2,0-4.4,0-6.6,0c-1.9,0-1.9,3,0,3c18,0,36.1-0.7,54.1-2.2
					c17.9-1.4,35.7-3.5,53.4-6.3c17.7-2.8,35.4-6.2,52.8-10.4c17.6-4.2,34.9-9,52.1-14.5c17.2-5.5,34.2-11.7,50.9-18.6
					c2.1-0.9,4.2-1.8,6.3-2.7C329.9,246,328.4,243.4,326.6,244.2L326.6,244.2z"/>
			</g>
		</g>
		<g>
			<g>
				<path class="st2" d="M941.5,599.9c-32,0.8-64,2.2-95.9,4.7c-31.6,2.5-63.1,6.1-94.3,11.4c-30.2,5.1-60.1,11.6-89.7,19.3
					c-29.8,7.7-59.3,16.6-88.5,26.2c-29.3,9.7-58.3,20.2-87.1,31.2c-3.6,1.4-7.2,2.7-10.8,4.1c-1.8,0.7-1,3.6,0.8,2.9
					c28.6-11.1,57.5-21.7,86.5-31.5c29-9.8,58.3-18.9,87.8-26.8c29.5-8,59.4-14.8,89.5-20.3c31.2-5.7,62.7-9.7,94.3-12.5
					c31.7-2.8,63.6-4.4,95.4-5.3c4-0.1,8-0.2,12-0.3C943.5,602.9,943.5,599.9,941.5,599.9L941.5,599.9z"/>
			</g>
		</g>
	</g>
	<g>
		<g>
			<g>
				<path class="st3" d="M941.5,477.1c-59.1,2.4-118.2,0.1-177.1-3.9c-57.9-3.9-115.7-9.4-173.6-13.6c-57.8-4.2-115.8-7-173.7-5.5
					c-57.9,1.5-115.6,7.7-172.2,20.3c-56.3,12.5-111.4,29.8-167.3,44.3c-6.5,1.7-13,3.3-19.6,4.9c-1.9,0.5-1.1,3.3,0.8,2.9
					c55.4-13.5,109.8-30.7,165.2-44.2c56.9-13.8,114.5-22,173-24.5c58.2-2.5,116.5-0.3,174.6,3.5c57.3,3.8,114.5,9.2,171.8,13.4
					c58.7,4.3,117.5,7.4,176.3,6.1c7.3-0.2,14.6-0.4,21.9-0.7C943.5,480,943.5,477,941.5,477.1L941.5,477.1z"/>
			</g>
		</g>
		<g>
			<g>
				<path class="st3" d="M57.7,513.5c27.1,11.6,55.8,18.9,85.3,20.5c29.2,1.6,58.5-2,87-8.7c58.9-13.8,113.5-40.6,168.9-64.1
					c56.1-23.8,116.4-46.4,178.4-43.7c60.6,2.7,112.3,35.6,166.9,58.4c56.1,23.4,115.9,36.5,175.9,44.9c7.1,1,14.3,1.9,21.4,2.8
					c1.9,0.2,1.9-2.8,0-3c-60.5-7.5-120.9-18.9-178.2-40.3c-54.3-20.3-104.5-54-162.4-63.4c-59.1-9.5-119,7.9-173.6,29.4
					c-56.4,22.1-110.5,50.2-168.6,68.1c-57.8,17.8-118.8,24.1-177.2,5c-7.6-2.5-15.1-5.3-22.4-8.5C57.5,510.1,55.9,512.7,57.7,513.5
					L57.7,513.5z"/>
			</g>
		</g>
		<g>
			<g>
				<path class="st3" d="M58.4,291.4c16.3,0,32.5-0.6,48.7-1.8c16.2-1.2,32.4-2.9,48.4-5.1c16.1-2.3,32.1-5.1,48-8.5
					c15.8-3.4,31.5-7.3,47.1-11.8c15.6-4.5,31.1-9.5,46.4-15.1c1.9-0.7,3.8-1.4,5.7-2.1c1.8-0.7,1-3.6-0.8-2.9
					c-15.1,5.7-30.5,10.9-46,15.5c-15.5,4.6-31.2,8.7-47,12.2c-15.8,3.5-31.7,6.5-47.7,8.9c-16,2.4-32.1,4.3-48.3,5.5
					c-16.1,1.3-32.3,2-48.5,2.2c-2,0-4.1,0-6.1,0C56.5,288.4,56.5,291.4,58.4,291.4L58.4,291.4z"/>
			</g>
		</g>
		<g>
			<g>
				<path class="st3" d="M941.5,589.9c-33.9,0.8-67.8,2.3-101.6,5.1c-33.3,2.8-66.4,6.9-99.3,12.8c-31.9,5.8-63.6,13.1-94.9,21.6
					c-31.4,8.6-62.4,18.3-93.1,28.9c-30.8,10.6-61.3,22-91.7,33.9c-3.8,1.5-7.5,3-11.3,4.4c-1.8,0.7-1,3.6,0.8,2.9
					c30.2-11.9,60.5-23.5,91.1-34.2c30.5-10.7,61.3-20.7,92.4-29.5c31.2-8.9,62.8-16.6,94.6-22.7c32.8-6.4,65.9-10.9,99.2-14
					c33.6-3.1,67.3-4.9,101.1-5.9c4.2-0.1,8.4-0.2,12.6-0.3C943.5,592.9,943.5,589.9,941.5,589.9L941.5,589.9z"/>
			</g>
		</g>
	</g>
</g>
</svg>
