<?xml version="1.0" encoding="UTF-8"?>
<svg id="Layer_1" data-name="Layer 1" xmlns="http://www.w3.org/2000/svg" viewBox="0 0 1000 1000">
  <defs>
    <style>
      .cls-1 {
        fill: #e9e9e9;
      }

      .cls-2 {
        fill: #fff;
      }

      .cls-3 {
        fill: #f39c12;
      }

      .cls-4 {
        fill: none;
        stroke: #f39c12;
        stroke-miterlimit: 10;
        stroke-width: 3px;
      }
    </style>
  </defs>
  <g>
    <g>
      <path class="cls-1" d="M47.71,718.74c-5.97,0-10.64-4.36-10.64-9.93V234.95c0-5.57,4.67-9.93,10.64-9.93H952.29c5.87,0,10.64,4.46,10.64,9.93v473.86c0,5.48-4.77,9.93-10.64,9.93H47.71Zm24.28-473.86c-7.65,0-13.64,5.68-13.64,12.93v428.13c0,7.25,5.99,12.93,13.64,12.93H928c7.52,0,13.64-5.8,13.64-12.93V257.81c0-7.13-6.12-12.93-13.64-12.93H72Z"/>
      <path class="cls-3" d="M952.29,226.52c5.04,0,9.14,3.78,9.14,8.43v473.86c0,4.65-4.1,8.43-9.14,8.43H47.71c-5.13,0-9.14-3.7-9.14-8.43V234.95c0-4.73,4.02-8.43,9.14-8.43H952.29M72,700.38H928c8.35,0,15.14-6.47,15.14-14.43V257.81c0-7.96-6.79-14.43-15.14-14.43H72c-8.49,0-15.14,6.34-15.14,14.43v428.13c0,8.09,6.65,14.43,15.14,14.43M952.29,223.52H47.71c-6.8,0-12.14,5.03-12.14,11.43v473.86c0,6.4,5.34,11.43,12.14,11.43H952.29c6.68,0,12.14-5.03,12.14-11.43V234.95c0-6.4-5.47-11.43-12.14-11.43h0ZM72,697.38c-6.8,0-12.14-5.03-12.14-11.43V257.81c0-6.4,5.34-11.43,12.14-11.43H928c6.68,0,12.14,5.03,12.14,11.43v428.13c0,6.4-5.47,11.43-12.14,11.43H72Z"/>
    </g>
    <path class="cls-2" d="M940.14,257.81v428.13c0,6.4-5.47,11.43-12.14,11.43H72c-6.8,0-12.14-5.03-12.14-11.43V257.81c0-6.4,5.34-11.43,12.14-11.43H928c6.68,0,12.14,5.03,12.14,11.43Z"/>
  </g>
  <line class="cls-4" x1="455.43" y1="758.26" x2="455.43" y2="720.24"/>
  <line class="cls-4" x1="544.57" y1="758.26" x2="544.57" y2="720.24"/>
  <g>
    <path class="cls-1" d="M366,774.98c-4.2,0-7.61-3.41-7.61-7.61s3.41-7.61,7.61-7.61h268.01c4.2,0,7.61,3.41,7.61,7.61s-3.41,7.61-7.61,7.61H366Z"/>
    <path class="cls-3" d="M634,761.26c3.37,0,6.11,2.74,6.11,6.11s-2.74,6.11-6.11,6.11H366c-3.37,0-6.11-2.74-6.11-6.11s2.74-6.11,6.11-6.11h268.01m0-3H366c-5.03,0-9.11,4.08-9.11,9.11s4.08,9.11,9.11,9.11h268.01c5.03,0,9.11-4.08,9.11-9.11s-4.08-9.11-9.11-9.11h0Z"/>
  </g>
</svg>