<?xml version="1.0" encoding="utf-8"?>
<!-- Generator: Adobe Illustrator 27.0.1, SVG Export Plug-In . SVG Version: 6.00 Build 0)  -->
<svg version="1.1" id="Layer_1" xmlns="http://www.w3.org/2000/svg" xmlns:xlink="http://www.w3.org/1999/xlink" x="0px" y="0px"
	 viewBox="0 0 1000 1000" style="enable-background:new 0 0 1000 1000;" xml:space="preserve">
<style type="text/css">
	.st0{fill:#E9E9E9;}
	.st1{fill:#F39C12;}
	.st2{fill:#FFFFFF;}
	.st3{fill:none;stroke:#F39C12;stroke-width:3;stroke-miterlimit:10;}
	.st4{fill:#E2B588;}
	.st5{fill:#E5A865;}
	.st6{fill:#F2A02A;}
	.st7{fill:#EDA23E;}
</style>
<g>
	<g>
		<g>
			<g>
				<path class="st0" d="M47.7,718.7c-6,0-10.6-4.4-10.6-9.9V235c0-5.6,4.7-9.9,10.6-9.9h904.6c5.9,0,10.6,4.5,10.6,9.9v473.9
					c0,5.5-4.8,9.9-10.6,9.9L47.7,718.7L47.7,718.7z M72,244.9c-7.7,0-13.6,5.7-13.6,12.9v428.1c0,7.2,6,12.9,13.6,12.9h856
					c7.5,0,13.6-5.8,13.6-12.9V257.8c0-7.1-6.1-12.9-13.6-12.9H72L72,244.9z"/>
				<path class="st1" d="M952.3,226.5c5,0,9.1,3.8,9.1,8.4v473.9c0,4.7-4.1,8.4-9.1,8.4H47.7c-5.1,0-9.1-3.7-9.1-8.4V235
					c0-4.7,4-8.4,9.1-8.4L952.3,226.5 M72,700.4h856c8.3,0,15.1-6.5,15.1-14.4V257.8c0-8-6.8-14.4-15.1-14.4H72
					c-8.5,0-15.1,6.3-15.1,14.4v428.1C56.9,694,63.5,700.4,72,700.4 M952.3,223.5H47.7c-6.8,0-12.1,5-12.1,11.4v473.9
					c0,6.4,5.3,11.4,12.1,11.4h904.6c6.7,0,12.1-5,12.1-11.4V235C964.4,228.6,959,223.5,952.3,223.5L952.3,223.5L952.3,223.5z
					 M72,697.4c-6.8,0-12.1-5-12.1-11.4V257.8c0-6.4,5.3-11.4,12.1-11.4h856c6.7,0,12.1,5,12.1,11.4v428.1c0,6.4-5.5,11.4-12.1,11.4
					L72,697.4L72,697.4z"/>
			</g>
			<path class="st2" d="M940.1,257.8v428.1c0,6.4-5.5,11.4-12.1,11.4H72c-6.8,0-12.1-5-12.1-11.4V257.8c0-6.4,5.3-11.4,12.1-11.4
				h856C934.7,246.4,940.1,251.4,940.1,257.8z"/>
		</g>
		<line class="st3" x1="455.4" y1="758.3" x2="455.4" y2="720.2"/>
		<line class="st3" x1="544.6" y1="758.3" x2="544.6" y2="720.2"/>
		<g>
			<path class="st0" d="M366,775c-4.2,0-7.6-3.4-7.6-7.6s3.4-7.6,7.6-7.6h268c4.2,0,7.6,3.4,7.6,7.6s-3.4,7.6-7.6,7.6H366z"/>
			<path class="st1" d="M634,761.3c3.4,0,6.1,2.7,6.1,6.1s-2.7,6.1-6.1,6.1H366c-3.4,0-6.1-2.7-6.1-6.1s2.7-6.1,6.1-6.1H634
				 M634,758.3H366c-5,0-9.1,4.1-9.1,9.1s4.1,9.1,9.1,9.1h268c5,0,9.1-4.1,9.1-9.1S639,758.3,634,758.3L634,758.3z"/>
		</g>
	</g>
	<g>
		<path class="st4" d="M941.7,256.5v63.8c-62.4-7.6-127.2-3.4-189.4,7.1c-114.6,19.4-225.1,58.6-339.6,79.1
			c-43.1,7.7-86.7,12.8-130.4,16.9c-8.1,0.8-16.3,1.5-24.4,2.2h0c-27.6-6.5-55.4-12.5-83.3-17.2c-38.1-6.4-77.1-10.5-116-10.9V256.5
			c0-6.4,5.4-11.5,12.2-11.5h858.8C936.2,245,941.7,250,941.7,256.5z"/>
		<path class="st5" d="M941.7,320.3v142.9c-37.4,0.7-75,4.7-111.6,10.8c-50,8.5-99.2,20.7-148.3,33.5c0,0,0,0,0,0
			c-12.4-1-24.8-2.1-37.2-3.3c-43.6-4.1-87.2-9.1-130.4-16.9c-86.5-15.5-170.7-41.6-256.2-61.9c8.1-0.7,16.3-1.4,24.4-2.2
			c43.6-4.1,87.2-9.2,130.4-16.9c114.4-20.5,225-59.7,339.6-79.1C814.4,316.8,879.3,312.7,941.7,320.3z"/>
		<path class="st6" d="M941.7,462.9v183.7c-42.8-0.9-85.7-4-128.4-8.1c-43.6-4.1-87.2-9.1-130.4-16.9c-84-15-165.9-40.2-248.9-60.1
			c18.9-2.5,37.7-5.3,56.5-8.7c37.4-6.7,74.3-15.4,111.2-24.7c26.7-6.8,53.4-13.9,80.1-20.9c0,0,0,0,0,0
			c49.1-12.8,98.3-25,148.3-33.5C866.7,467.5,904.3,463.5,941.7,462.9z"/>
		<path class="st1" d="M941.7,645.8v40.5c0,6.4-5.5,11.5-12.2,11.5H70.8c-1.1,0-2.1-0.1-3.1-0.4c-0.2-0.1-0.4-0.1-0.7-0.2
			c-0.7-0.2-1.3-0.4-1.9-0.7c-0.3-0.1-0.5-0.3-0.8-0.4c-0.3-0.2-0.7-0.4-1-0.6c-3-2.1-4.8-5.4-4.8-9.2V557.1
			c74.9-27.3,158-30.9,238.8-21.8c15.4,1.7,30.8,3.9,46,6.5c30.5,5.2,60.6,11.7,90.6,18.9c83,20,164.9,45.1,248.9,60.1
			c43.1,7.7,86.7,12.8,130.4,16.9C856,641.7,898.8,644.9,941.7,645.8z"/>
		<g>
			<path class="st7" d="M681.8,507.5c-26.7,6.9-53.4,14.1-80.1,20.9c-36.8,9.3-73.8,18-111.2,24.7c-18.8,3.4-37.6,6.2-56.5,8.7
				c-30-7.2-60.2-13.8-90.6-18.9c-15.2-2.6-30.6-4.8-46-6.5c-80.8-9-163.9-5.5-238.8,21.8V397.4c38.9,0.4,78,4.5,116,10.9
				c28,4.7,55.7,10.6,83.3,17.2h0c85.5,20.2,169.7,46.4,256.2,61.9c43.1,7.7,86.7,12.8,130.4,16.9
				C656.9,505.4,669.4,506.5,681.8,507.5z"/>
		</g>
	</g>
</g>
</svg>
